SplineFontDB: 3.0
FontName: Pixeled
FullName: Pixeled Regular
FamilyName: Pixeled
Weight: Book
Copyright: Copyright OmegaPC777 2016
Version: 1.0
ItalicAngle: 0
UnderlinePosition: 307
UnderlineWidth: 204
Ascent: 4096
Descent: 0
InvalidEm: 0
sfntRevision: 0x00010000
LayerCount: 2
Layer: 0 1 "Arri+AOgA-re" 1
Layer: 1 1 "Avant" 0
XUID: [1021 370 -304143481 25942]
StyleMap: 0x0040
FSType: 4
OS2Version: 2
OS2_WeightWidthSlopeOnly: 0
OS2_UseTypoMetrics: 0
CreationTime: 1499730344
ModificationTime: 1501940384
PfmFamily: 81
TTFWeight: 400
TTFWidth: 5
LineGap: 0
VLineGap: 0
Panose: 0 0 4 0 0 0 0 0 0 0
OS2TypoAscent: 4096
OS2TypoAOffset: 0
OS2TypoDescent: 0
OS2TypoDOffset: 0
OS2TypoLinegap: 0
OS2WinAscent: 9011
OS2WinAOffset: 0
OS2WinDescent: 2457
OS2WinDOffset: 0
HheadAscent: 9011
HheadAOffset: 0
HheadDescent: -2457
HheadDOffset: 0
OS2SubXSize: 2048
OS2SubYSize: 2048
OS2SubXOff: 0
OS2SubYOff: 0
OS2SupXSize: 2048
OS2SupYSize: 2048
OS2SupXOff: 0
OS2SupYOff: 2048
OS2StrikeYSize: 204
OS2StrikeYPos: 819
OS2CapHeight: 4915
OS2XHeight: 4096
OS2Vendor: 'FSTR'
OS2CodePages: 00000115.00000000
OS2UnicodeRanges: a000008f.40000008.00000000.00000000
DEI: 91125
ShortTable: maxp 16
  1
  0
  314
  38
  9
  0
  0
  2
  0
  0
  0
  0
  0
  0
  0
  0
EndShort
LangName: 1033 "" "" "Regular" "FontStruct Pixeled" "" "Version 1.0" "" "FontStruct is a trademark of FSI FontShop International GmbH" "http://fontstruct.com/" "OmegaPC777" "+IBwA-Pixeled+IB0A was built with FontStruct+AAoA-Designer description: <p>This font is influenced by various 8-bit retro sytle fonts with a retro feel.</p>+AAoA" "" "http://fontstruct.com/fontstructions/show/1298421/pixeled-5" "FontStruct Non-Commercial License" "" "" "" "" "" "Five big quacking zephyrs jolt my wax bed"
Encoding: UnicodeBmp
UnicodeInterp: none
NameList: AGL For New Fonts
DisplaySize: -48
AntiAlias: 1
FitToEm: 0
WinInfo: 38 38 14
BeginChars: 65539 316

StartChar: .notdef
Encoding: 65536 -1 0
Width: 3276
Flags: W
LayerCount: 2
Fore
SplineSet
2048 581 m 1,0,-1
 2048 1232 l 1,1,-1
 1396 1232 l 1,2,-1
 1396 581 l 1,3,-1
 2048 581 l 1,0,-1
2699 1343 m 1,4,-1
 2699 1994 l 1,5,-1
 1396 1994 l 1,6,-1
 1396 1343 l 1,7,-1
 2699 1343 l 1,4,-1
2048 2101 m 1,8,-1
 2048 2752 l 1,9,-1
 1396 2752 l 1,10,-1
 1396 2101 l 1,11,-1
 2048 2101 l 1,8,-1
2699 2863 m 1,12,-1
 2699 3510 l 1,13,-1
 2048 3510 l 2,14,15
 1777 3510 1777 3510 1589 3321 c 0,16,17
 1396 3129 1396 3129 1396 2863 c 1,18,-1
 2699 2863 l 1,12,-1
0 0 m 1,19,-1
 0 4096 l 1,20,-1
 4096 4096 l 1,21,-1
 4096 0 l 1,22,-1
 0 0 l 1,19,-1
EndSplineSet
Validated: 1
EndChar

StartChar: exclam
Encoding: 33 33 4
Width: 1638
Flags: W
LayerCount: 2
Fore
SplineSet
0 0 m 1,0,-1
 0 819 l 1,1,-1
 819 819 l 1,2,-1
 819 0 l 1,3,-1
 0 0 l 1,0,-1
0 1638 m 1,4,-1
 0 4915 l 1,5,-1
 819 4915 l 1,6,-1
 819 1638 l 1,7,-1
 0 1638 l 1,4,-1
EndSplineSet
Validated: 1
EndChar

StartChar: quotedbl
Encoding: 34 34 5
Width: 3276
Flags: W
LayerCount: 2
Fore
SplineSet
0 3276 m 1,0,-1
 0 4915 l 1,1,-1
 819 4915 l 1,2,-1
 819 3276 l 1,3,-1
 0 3276 l 1,0,-1
1638 3276 m 1,4,-1
 1638 4915 l 1,5,-1
 2457 4915 l 1,6,-1
 2457 3276 l 1,7,-1
 1638 3276 l 1,4,-1
EndSplineSet
Validated: 1
EndChar

StartChar: numbersign
Encoding: 35 35 6
Width: 4915
Flags: W
LayerCount: 2
Fore
SplineSet
2457 1638 m 1,0,-1
 2457 2457 l 1,1,-1
 1638 2457 l 1,2,-1
 1638 1638 l 1,3,-1
 2457 1638 l 1,0,-1
819 0 m 1,4,-1
 819 819 l 1,5,-1
 0 819 l 1,6,-1
 0 1638 l 1,7,-1
 819 1638 l 1,8,-1
 819 2457 l 1,9,-1
 0 2457 l 1,10,-1
 0 3276 l 1,11,-1
 819 3276 l 1,12,-1
 819 4096 l 1,13,-1
 1638 4096 l 1,14,-1
 1638 3276 l 1,15,-1
 2457 3276 l 1,16,-1
 2457 4096 l 1,17,-1
 3276 4096 l 1,18,-1
 3276 3276 l 1,19,-1
 4096 3276 l 1,20,-1
 4096 2457 l 1,21,-1
 3276 2457 l 1,22,-1
 3276 1638 l 1,23,-1
 4096 1638 l 1,24,-1
 4096 819 l 1,25,-1
 3276 819 l 1,26,-1
 3276 0 l 1,27,-1
 2457 0 l 1,28,-1
 2457 819 l 1,29,-1
 1638 819 l 1,30,-1
 1638 0 l 1,31,-1
 819 0 l 1,4,-1
EndSplineSet
Validated: 1
EndChar

StartChar: dollar
Encoding: 36 36 7
Width: 4915
Flags: W
LayerCount: 2
Fore
SplineSet
3276 1638 m 1,0,-1
 3276 2457 l 1,1,-1
 2457 2457 l 1,2,-1
 2457 1638 l 1,3,-1
 3276 1638 l 1,0,-1
1638 3276 m 1,4,-1
 1638 4096 l 1,5,-1
 819 4096 l 1,6,-1
 819 3276 l 1,7,-1
 1638 3276 l 1,4,-1
1638 0 m 1,8,-1
 1638 819 l 1,9,-1
 0 819 l 1,10,-1
 0 1638 l 1,11,-1
 1638 1638 l 1,12,-1
 1638 2457 l 1,13,-1
 0 2457 l 1,14,-1
 0 4915 l 1,15,-1
 1638 4915 l 1,16,-1
 1638 5734 l 1,17,-1
 2457 5734 l 1,18,-1
 2457 4915 l 1,19,-1
 4096 4915 l 1,20,-1
 4096 4096 l 1,21,-1
 2457 4096 l 1,22,-1
 2457 3276 l 1,23,-1
 4096 3276 l 1,24,-1
 4096 819 l 1,25,-1
 2457 819 l 1,26,-1
 2457 0 l 1,27,-1
 1638 0 l 1,8,-1
EndSplineSet
Validated: 1
EndChar

StartChar: quotesingle
Encoding: 39 39 8
Width: 1638
Flags: W
LayerCount: 2
Fore
SplineSet
0 3276 m 1,0,-1
 0 4915 l 1,1,-1
 819 4915 l 1,2,-1
 819 3276 l 1,3,-1
 0 3276 l 1,0,-1
EndSplineSet
Validated: 1
EndChar

StartChar: parenleft
Encoding: 40 40 9
Width: 2457
Flags: W
LayerCount: 2
Fore
SplineSet
819 0 m 1,0,-1
 819 819 l 1,1,-1
 1638 819 l 1,2,-1
 1638 0 l 1,3,-1
 819 0 l 1,0,-1
0 819 m 1,4,-1
 0 4096 l 1,5,-1
 819 4096 l 1,6,-1
 819 819 l 1,7,-1
 0 819 l 1,4,-1
819 4096 m 1,8,-1
 819 4915 l 1,9,-1
 1638 4915 l 1,10,-1
 1638 4096 l 1,11,-1
 819 4096 l 1,8,-1
EndSplineSet
Validated: 5
EndChar

StartChar: parenright
Encoding: 41 41 10
Width: 3276
Flags: W
LayerCount: 2
Fore
SplineSet
819 0 m 1,0,-1
 819 819 l 1,1,-1
 1638 819 l 1,2,-1
 1638 0 l 1,3,-1
 819 0 l 1,0,-1
1638 819 m 1,4,-1
 1638 4096 l 1,5,-1
 2457 4096 l 1,6,-1
 2457 819 l 1,7,-1
 1638 819 l 1,4,-1
819 4096 m 1,8,-1
 819 4915 l 1,9,-1
 1638 4915 l 1,10,-1
 1638 4096 l 1,11,-1
 819 4096 l 1,8,-1
EndSplineSet
Validated: 5
EndChar

StartChar: plus
Encoding: 43 43 11
Width: 3276
Flags: W
LayerCount: 2
Fore
SplineSet
819 1638 m 1,0,-1
 819 2457 l 1,1,-1
 0 2457 l 1,2,-1
 0 3276 l 1,3,-1
 819 3276 l 1,4,-1
 819 4096 l 1,5,-1
 1638 4096 l 1,6,-1
 1638 3276 l 1,7,-1
 2457 3276 l 1,8,-1
 2457 2457 l 1,9,-1
 1638 2457 l 1,10,-1
 1638 1638 l 1,11,-1
 819 1638 l 1,0,-1
EndSplineSet
Validated: 1
EndChar

StartChar: comma
Encoding: 44 44 12
Width: 1638
Flags: W
LayerCount: 2
Fore
SplineSet
0 -819 m 1,0,-1
 0 819 l 1,1,-1
 819 819 l 1,2,-1
 819 -819 l 1,3,-1
 0 -819 l 1,0,-1
EndSplineSet
Validated: 1
EndChar

StartChar: hyphen
Encoding: 45 45 13
Width: 3276
Flags: W
LayerCount: 2
Fore
SplineSet
0 2457 m 1,0,-1
 0 3276 l 1,1,-1
 2457 3276 l 1,2,-1
 2457 2457 l 1,3,-1
 0 2457 l 1,0,-1
EndSplineSet
Validated: 1
EndChar

StartChar: period
Encoding: 46 46 14
Width: 1638
Flags: W
LayerCount: 2
Fore
SplineSet
0 0 m 1,0,-1
 0 819 l 1,1,-1
 819 819 l 1,2,-1
 819 0 l 1,3,-1
 0 0 l 1,0,-1
EndSplineSet
Validated: 1
EndChar

StartChar: slash
Encoding: 47 47 15
Width: 3276
Flags: W
LayerCount: 2
Fore
SplineSet
0 0 m 1,0,-1
 0 1638 l 1,1,-1
 819 1638 l 1,2,-1
 819 0 l 1,3,-1
 0 0 l 1,0,-1
819 1638 m 1,4,-1
 819 3276 l 1,5,-1
 1638 3276 l 1,6,-1
 1638 1638 l 1,7,-1
 819 1638 l 1,4,-1
1638 3276 m 1,8,-1
 1638 4915 l 1,9,-1
 2457 4915 l 1,10,-1
 2457 3276 l 1,11,-1
 1638 3276 l 1,8,-1
EndSplineSet
Validated: 5
EndChar

StartChar: zero
Encoding: 48 48 16
Width: 4096
Flags: W
LayerCount: 2
Fore
SplineSet
2457 819 m 1,0,-1
 2457 4096 l 1,1,-1
 819 4096 l 1,2,-1
 819 819 l 1,3,-1
 2457 819 l 1,0,-1
0 0 m 1,4,-1
 0 4915 l 1,5,-1
 3276 4915 l 1,6,-1
 3276 0 l 1,7,-1
 0 0 l 1,4,-1
EndSplineSet
Validated: 1
EndChar

StartChar: one
Encoding: 49 49 17
Width: 1638
Flags: W
LayerCount: 2
Fore
SplineSet
0 0 m 1,0,-1
 0 4915 l 1,1,-1
 819 4915 l 1,2,-1
 819 0 l 1,3,-1
 0 0 l 1,0,-1
EndSplineSet
Validated: 1
EndChar

StartChar: two
Encoding: 50 50 18
Width: 4096
Flags: W
LayerCount: 2
Fore
SplineSet
0 0 m 1,0,-1
 0 1638 l 1,1,-1
 819 1638 l 1,2,-1
 819 819 l 1,3,-1
 3276 819 l 1,4,-1
 3276 0 l 1,5,-1
 0 0 l 1,0,-1
819 1638 m 1,6,-1
 819 2457 l 1,7,-1
 1638 2457 l 1,8,-1
 1638 1638 l 1,9,-1
 819 1638 l 1,6,-1
1638 2457 m 1,10,-1
 1638 3276 l 1,11,-1
 2457 3276 l 1,12,-1
 2457 2457 l 1,13,-1
 1638 2457 l 1,10,-1
2457 3276 m 1,14,-1
 2457 4096 l 1,15,-1
 3276 4096 l 1,16,-1
 3276 3276 l 1,17,-1
 2457 3276 l 1,14,-1
0 4096 m 1,18,-1
 0 4915 l 1,19,-1
 2457 4915 l 1,20,-1
 2457 4096 l 1,21,-1
 0 4096 l 1,18,-1
EndSplineSet
Validated: 5
EndChar

StartChar: three
Encoding: 51 51 19
Width: 4096
Flags: W
LayerCount: 2
Fore
SplineSet
0 0 m 1,0,-1
 0 819 l 1,1,-1
 2457 819 l 1,2,-1
 2457 0 l 1,3,-1
 0 0 l 1,0,-1
2457 819 m 1,4,-1
 2457 2457 l 1,5,-1
 3276 2457 l 1,6,-1
 3276 819 l 1,7,-1
 2457 819 l 1,4,-1
0 2457 m 1,8,-1
 0 3276 l 1,9,-1
 2457 3276 l 1,10,-1
 2457 2457 l 1,11,-1
 0 2457 l 1,8,-1
2457 3276 m 1,12,-1
 2457 4096 l 1,13,-1
 3276 4096 l 1,14,-1
 3276 3276 l 1,15,-1
 2457 3276 l 1,12,-1
0 4096 m 1,16,-1
 0 4915 l 1,17,-1
 2457 4915 l 1,18,-1
 2457 4096 l 1,19,-1
 0 4096 l 1,16,-1
EndSplineSet
Validated: 5
EndChar

StartChar: four
Encoding: 52 52 20
Width: 4096
Flags: W
LayerCount: 2
Fore
SplineSet
2457 0 m 1,0,-1
 2457 2457 l 1,1,-1
 0 2457 l 1,2,-1
 0 4915 l 1,3,-1
 819 4915 l 1,4,-1
 819 3276 l 1,5,-1
 2457 3276 l 1,6,-1
 2457 4915 l 1,7,-1
 3276 4915 l 1,8,-1
 3276 0 l 1,9,-1
 2457 0 l 1,0,-1
EndSplineSet
Validated: 1
EndChar

StartChar: five
Encoding: 53 53 21
Width: 4096
Flags: W
LayerCount: 2
Fore
SplineSet
0 0 m 1,0,-1
 0 819 l 1,1,-1
 2457 819 l 1,2,-1
 2457 0 l 1,3,-1
 0 0 l 1,0,-1
2457 819 m 1,4,-1
 2457 2457 l 1,5,-1
 3276 2457 l 1,6,-1
 3276 819 l 1,7,-1
 2457 819 l 1,4,-1
0 2457 m 1,8,-1
 0 4915 l 1,9,-1
 3276 4915 l 1,10,-1
 3276 4096 l 1,11,-1
 819 4096 l 1,12,-1
 819 3276 l 1,13,-1
 2457 3276 l 1,14,-1
 2457 2457 l 1,15,-1
 0 2457 l 1,8,-1
EndSplineSet
Validated: 5
EndChar

StartChar: six
Encoding: 54 54 22
Width: 4096
Flags: W
LayerCount: 2
Fore
SplineSet
819 0 m 1,0,-1
 819 819 l 1,1,-1
 2457 819 l 1,2,-1
 2457 0 l 1,3,-1
 819 0 l 1,0,-1
2457 819 m 1,4,-1
 2457 2457 l 1,5,-1
 3276 2457 l 1,6,-1
 3276 819 l 1,7,-1
 2457 819 l 1,4,-1
0 819 m 1,8,-1
 0 4096 l 1,9,-1
 819 4096 l 1,10,-1
 819 3276 l 1,11,-1
 2457 3276 l 1,12,-1
 2457 2457 l 1,13,-1
 819 2457 l 1,14,-1
 819 819 l 1,15,-1
 0 819 l 1,8,-1
819 4096 m 1,16,-1
 819 4915 l 1,17,-1
 3276 4915 l 1,18,-1
 3276 4096 l 1,19,-1
 819 4096 l 1,16,-1
EndSplineSet
Validated: 5
EndChar

StartChar: seven
Encoding: 55 55 23
Width: 4096
Flags: W
LayerCount: 2
Fore
SplineSet
0 0 m 1,0,-1
 0 819 l 1,1,-1
 819 819 l 1,2,-1
 819 0 l 1,3,-1
 0 0 l 1,0,-1
819 819 m 1,4,-1
 819 1638 l 1,5,-1
 1638 1638 l 1,6,-1
 1638 819 l 1,7,-1
 819 819 l 1,4,-1
1638 1638 m 1,8,-1
 1638 2457 l 1,9,-1
 2457 2457 l 1,10,-1
 2457 1638 l 1,11,-1
 1638 1638 l 1,8,-1
2457 2457 m 1,12,-1
 2457 4096 l 1,13,-1
 0 4096 l 1,14,-1
 0 4915 l 1,15,-1
 3276 4915 l 1,16,-1
 3276 2457 l 1,17,-1
 2457 2457 l 1,12,-1
EndSplineSet
Validated: 5
EndChar

StartChar: eight
Encoding: 56 56 24
Width: 4096
Flags: W
LayerCount: 2
Fore
SplineSet
819 0 m 1,0,-1
 819 819 l 1,1,-1
 2457 819 l 1,2,-1
 2457 0 l 1,3,-1
 819 0 l 1,0,-1
0 819 m 1,4,-1
 0 2457 l 1,5,-1
 819 2457 l 1,6,-1
 819 819 l 1,7,-1
 0 819 l 1,4,-1
2457 819 m 1,8,-1
 2457 2457 l 1,9,-1
 3276 2457 l 1,10,-1
 3276 819 l 1,11,-1
 2457 819 l 1,8,-1
819 2457 m 1,12,-1
 819 3276 l 1,13,-1
 2457 3276 l 1,14,-1
 2457 2457 l 1,15,-1
 819 2457 l 1,12,-1
0 3276 m 1,16,-1
 0 4096 l 1,17,-1
 819 4096 l 1,18,-1
 819 3276 l 1,19,-1
 0 3276 l 1,16,-1
2457 3276 m 1,20,-1
 2457 4096 l 1,21,-1
 3276 4096 l 1,22,-1
 3276 3276 l 1,23,-1
 2457 3276 l 1,20,-1
819 4096 m 1,24,-1
 819 4915 l 1,25,-1
 2457 4915 l 1,26,-1
 2457 4096 l 1,27,-1
 819 4096 l 1,24,-1
EndSplineSet
Validated: 5
EndChar

StartChar: nine
Encoding: 57 57 25
Width: 4096
Flags: W
LayerCount: 2
Fore
SplineSet
2457 3276 m 1,0,-1
 2457 4096 l 1,1,-1
 819 4096 l 1,2,-1
 819 3276 l 1,3,-1
 2457 3276 l 1,0,-1
0 0 m 1,4,-1
 0 819 l 1,5,-1
 2457 819 l 1,6,-1
 2457 2457 l 1,7,-1
 0 2457 l 1,8,-1
 0 4915 l 1,9,-1
 3276 4915 l 1,10,-1
 3276 0 l 1,11,-1
 0 0 l 1,4,-1
EndSplineSet
Validated: 1
EndChar

StartChar: colon
Encoding: 58 58 26
Width: 1638
Flags: W
LayerCount: 2
Fore
SplineSet
0 819 m 1,0,-1
 0 1638 l 1,1,-1
 819 1638 l 1,2,-1
 819 819 l 1,3,-1
 0 819 l 1,0,-1
0 2457 m 1,4,-1
 0 3276 l 1,5,-1
 819 3276 l 1,6,-1
 819 2457 l 1,7,-1
 0 2457 l 1,4,-1
EndSplineSet
Validated: 1
EndChar

StartChar: semicolon
Encoding: 59 59 27
Width: 1638
Flags: W
LayerCount: 2
Fore
SplineSet
0 0 m 1,0,-1
 0 1638 l 1,1,-1
 819 1638 l 1,2,-1
 819 0 l 1,3,-1
 0 0 l 1,0,-1
0 2457 m 1,4,-1
 0 3276 l 1,5,-1
 819 3276 l 1,6,-1
 819 2457 l 1,7,-1
 0 2457 l 1,4,-1
EndSplineSet
Validated: 1
EndChar

StartChar: equal
Encoding: 61 61 28
Width: 3276
Flags: W
LayerCount: 2
Fore
SplineSet
0 1638 m 1,0,-1
 0 2457 l 1,1,-1
 2457 2457 l 1,2,-1
 2457 1638 l 1,3,-1
 0 1638 l 1,0,-1
0 3276 m 1,4,-1
 0 4096 l 1,5,-1
 2457 4096 l 1,6,-1
 2457 3276 l 1,7,-1
 0 3276 l 1,4,-1
EndSplineSet
Validated: 1
EndChar

StartChar: question
Encoding: 63 63 29
Width: 4915
Flags: W
LayerCount: 2
Fore
SplineSet
1638 0 m 1,0,-1
 1638 819 l 1,1,-1
 2457 819 l 1,2,-1
 2457 0 l 1,3,-1
 1638 0 l 1,0,-1
1638 1638 m 1,4,-1
 1638 2457 l 1,5,-1
 2457 2457 l 1,6,-1
 2457 1638 l 1,7,-1
 1638 1638 l 1,4,-1
2457 2457 m 1,8,-1
 2457 3276 l 1,9,-1
 3276 3276 l 1,10,-1
 3276 2457 l 1,11,-1
 2457 2457 l 1,8,-1
0 3276 m 1,12,-1
 0 4096 l 1,13,-1
 819 4096 l 1,14,-1
 819 3276 l 1,15,-1
 0 3276 l 1,12,-1
3276 3276 m 1,16,-1
 3276 4096 l 1,17,-1
 4096 4096 l 1,18,-1
 4096 3276 l 1,19,-1
 3276 3276 l 1,16,-1
819 4096 m 1,20,-1
 819 4915 l 1,21,-1
 3276 4915 l 1,22,-1
 3276 4096 l 1,23,-1
 819 4096 l 1,20,-1
EndSplineSet
Validated: 5
EndChar

StartChar: A
Encoding: 65 65 30
Width: 4096
Flags: W
LayerCount: 2
Fore
SplineSet
0 0 m 1,0,-1
 0 4096 l 1,1,-1
 819 4096 l 1,2,-1
 819 2457 l 1,3,-1
 2457 2457 l 1,4,-1
 2457 4096 l 1,5,-1
 3276 4096 l 1,6,-1
 3276 0 l 1,7,-1
 2457 0 l 1,8,-1
 2457 1638 l 1,9,-1
 819 1638 l 1,10,-1
 819 0 l 1,11,-1
 0 0 l 1,0,-1
819 4096 m 1,12,-1
 819 4915 l 1,13,-1
 2457 4915 l 1,14,-1
 2457 4096 l 1,15,-1
 819 4096 l 1,12,-1
EndSplineSet
Validated: 5
EndChar

StartChar: B
Encoding: 66 66 31
Width: 4096
Flags: W
LayerCount: 2
Fore
SplineSet
2457 819 m 1,0,-1
 2457 2457 l 1,1,-1
 3276 2457 l 1,2,-1
 3276 819 l 1,3,-1
 2457 819 l 1,0,-1
2457 3276 m 1,4,-1
 2457 4096 l 1,5,-1
 3276 4096 l 1,6,-1
 3276 3276 l 1,7,-1
 2457 3276 l 1,4,-1
0 0 m 1,8,-1
 0 4915 l 1,9,-1
 2457 4915 l 1,10,-1
 2457 4096 l 1,11,-1
 819 4096 l 1,12,-1
 819 3276 l 1,13,-1
 2457 3276 l 1,14,-1
 2457 2457 l 1,15,-1
 819 2457 l 1,16,-1
 819 819 l 1,17,-1
 2457 819 l 1,18,-1
 2457 0 l 1,19,-1
 0 0 l 1,8,-1
EndSplineSet
Validated: 5
EndChar

StartChar: C
Encoding: 67 67 32
Width: 4096
Flags: W
LayerCount: 2
Fore
SplineSet
819 0 m 1,0,-1
 819 819 l 1,1,-1
 2457 819 l 1,2,-1
 2457 0 l 1,3,-1
 819 0 l 1,0,-1
2457 819 m 1,4,-1
 2457 1638 l 1,5,-1
 3276 1638 l 1,6,-1
 3276 819 l 1,7,-1
 2457 819 l 1,4,-1
0 819 m 1,8,-1
 0 4096 l 1,9,-1
 819 4096 l 1,10,-1
 819 819 l 1,11,-1
 0 819 l 1,8,-1
2457 3276 m 1,12,-1
 2457 4096 l 1,13,-1
 3276 4096 l 1,14,-1
 3276 3276 l 1,15,-1
 2457 3276 l 1,12,-1
819 4096 m 1,16,-1
 819 4915 l 1,17,-1
 2457 4915 l 1,18,-1
 2457 4096 l 1,19,-1
 819 4096 l 1,16,-1
EndSplineSet
Validated: 5
EndChar

StartChar: D
Encoding: 68 68 33
Width: 4096
Flags: W
LayerCount: 2
Fore
SplineSet
2457 819 m 1,0,-1
 2457 4096 l 1,1,-1
 3276 4096 l 1,2,-1
 3276 819 l 1,3,-1
 2457 819 l 1,0,-1
0 0 m 1,4,-1
 0 4915 l 1,5,-1
 2457 4915 l 1,6,-1
 2457 4096 l 1,7,-1
 819 4096 l 1,8,-1
 819 819 l 1,9,-1
 2457 819 l 1,10,-1
 2457 0 l 1,11,-1
 0 0 l 1,4,-1
EndSplineSet
Validated: 5
EndChar

StartChar: E
Encoding: 69 69 34
Width: 4096
Flags: W
LayerCount: 2
Fore
SplineSet
0 0 m 1,0,-1
 0 4915 l 1,1,-1
 3276 4915 l 1,2,-1
 3276 4096 l 1,3,-1
 819 4096 l 1,4,-1
 819 3276 l 1,5,-1
 3276 3276 l 1,6,-1
 3276 2457 l 1,7,-1
 819 2457 l 1,8,-1
 819 819 l 1,9,-1
 3276 819 l 1,10,-1
 3276 0 l 1,11,-1
 0 0 l 1,0,-1
EndSplineSet
Validated: 1
EndChar

StartChar: F
Encoding: 70 70 35
Width: 4096
Flags: W
LayerCount: 2
Fore
SplineSet
0 0 m 1,0,-1
 0 4915 l 1,1,-1
 3276 4915 l 1,2,-1
 3276 4096 l 1,3,-1
 819 4096 l 1,4,-1
 819 3276 l 1,5,-1
 3276 3276 l 1,6,-1
 3276 2457 l 1,7,-1
 819 2457 l 1,8,-1
 819 0 l 1,9,-1
 0 0 l 1,0,-1
EndSplineSet
Validated: 1
EndChar

StartChar: G
Encoding: 71 71 36
Width: 4096
Flags: W
LayerCount: 2
Fore
SplineSet
819 0 m 1,0,-1
 819 819 l 1,1,-1
 2457 819 l 1,2,-1
 2457 0 l 1,3,-1
 819 0 l 1,0,-1
2457 819 m 1,4,-1
 2457 2457 l 1,5,-1
 1638 2457 l 1,6,-1
 1638 3276 l 1,7,-1
 3276 3276 l 1,8,-1
 3276 819 l 1,9,-1
 2457 819 l 1,4,-1
0 819 m 1,10,-1
 0 4096 l 1,11,-1
 819 4096 l 1,12,-1
 819 819 l 1,13,-1
 0 819 l 1,10,-1
819 4096 m 1,14,-1
 819 4915 l 1,15,-1
 3276 4915 l 1,16,-1
 3276 4096 l 1,17,-1
 819 4096 l 1,14,-1
EndSplineSet
Validated: 5
EndChar

StartChar: H
Encoding: 72 72 37
Width: 4096
Flags: W
LayerCount: 2
Fore
SplineSet
0 0 m 1,0,-1
 0 4915 l 1,1,-1
 819 4915 l 1,2,-1
 819 3276 l 1,3,-1
 2457 3276 l 1,4,-1
 2457 4915 l 1,5,-1
 3276 4915 l 1,6,-1
 3276 0 l 1,7,-1
 2457 0 l 1,8,-1
 2457 2457 l 1,9,-1
 819 2457 l 1,10,-1
 819 0 l 1,11,-1
 0 0 l 1,0,-1
EndSplineSet
Validated: 1
EndChar

StartChar: I
Encoding: 73 73 38
Width: 1638
Flags: W
LayerCount: 2
Fore
SplineSet
0 0 m 1,0,-1
 0 4915 l 1,1,-1
 819 4915 l 1,2,-1
 819 0 l 1,3,-1
 0 0 l 1,0,-1
EndSplineSet
Validated: 1
EndChar

StartChar: J
Encoding: 74 74 39
Width: 4096
Flags: W
LayerCount: 2
Fore
SplineSet
819 0 m 1,0,-1
 819 819 l 1,1,-1
 2457 819 l 1,2,-1
 2457 0 l 1,3,-1
 819 0 l 1,0,-1
0 819 m 1,4,-1
 0 1638 l 1,5,-1
 819 1638 l 1,6,-1
 819 819 l 1,7,-1
 0 819 l 1,4,-1
2457 819 m 1,8,-1
 2457 4096 l 1,9,-1
 0 4096 l 1,10,-1
 0 4915 l 1,11,-1
 3276 4915 l 1,12,-1
 3276 819 l 1,13,-1
 2457 819 l 1,8,-1
EndSplineSet
Validated: 5
EndChar

StartChar: K
Encoding: 75 75 40
Width: 4096
Flags: W
LayerCount: 2
Fore
SplineSet
2457 0 m 1,0,-1
 2457 1638 l 1,1,-1
 3276 1638 l 1,2,-1
 3276 0 l 1,3,-1
 2457 0 l 1,0,-1
1638 1638 m 1,4,-1
 1638 2457 l 1,5,-1
 2457 2457 l 1,6,-1
 2457 1638 l 1,7,-1
 1638 1638 l 1,4,-1
1638 3276 m 1,8,-1
 1638 4096 l 1,9,-1
 2457 4096 l 1,10,-1
 2457 3276 l 1,11,-1
 1638 3276 l 1,8,-1
0 0 m 1,12,-1
 0 4915 l 1,13,-1
 819 4915 l 1,14,-1
 819 3276 l 1,15,-1
 1638 3276 l 1,16,-1
 1638 2457 l 1,17,-1
 819 2457 l 1,18,-1
 819 0 l 1,19,-1
 0 0 l 1,12,-1
2457 4096 m 1,20,-1
 2457 4915 l 1,21,-1
 3276 4915 l 1,22,-1
 3276 4096 l 1,23,-1
 2457 4096 l 1,20,-1
EndSplineSet
Validated: 5
EndChar

StartChar: L
Encoding: 76 76 41
Width: 4096
Flags: W
LayerCount: 2
Fore
SplineSet
0 0 m 1,0,-1
 0 4915 l 1,1,-1
 819 4915 l 1,2,-1
 819 819 l 1,3,-1
 3276 819 l 1,4,-1
 3276 0 l 1,5,-1
 0 0 l 1,0,-1
EndSplineSet
Validated: 1
EndChar

StartChar: M
Encoding: 77 77 42
Width: 4915
Flags: W
LayerCount: 2
Fore
SplineSet
1638 2457 m 1,0,-1
 1638 3276 l 1,1,-1
 2457 3276 l 1,2,-1
 2457 2457 l 1,3,-1
 1638 2457 l 1,0,-1
0 0 m 1,4,-1
 0 4915 l 1,5,-1
 819 4915 l 1,6,-1
 819 4096 l 1,7,-1
 1638 4096 l 1,8,-1
 1638 3276 l 1,9,-1
 819 3276 l 1,10,-1
 819 0 l 1,11,-1
 0 0 l 1,4,-1
3276 0 m 1,12,-1
 3276 3276 l 1,13,-1
 2457 3276 l 1,14,-1
 2457 4096 l 1,15,-1
 3276 4096 l 1,16,-1
 3276 4915 l 1,17,-1
 4096 4915 l 1,18,-1
 4096 0 l 1,19,-1
 3276 0 l 1,12,-1
EndSplineSet
Validated: 5
EndChar

StartChar: N
Encoding: 78 78 43
Width: 4096
Flags: W
LayerCount: 2
Fore
SplineSet
0 0 m 1,0,-1
 0 4915 l 1,1,-1
 819 4915 l 1,2,-1
 819 4096 l 1,3,-1
 1638 4096 l 1,4,-1
 1638 3276 l 1,5,-1
 819 3276 l 1,6,-1
 819 0 l 1,7,-1
 0 0 l 1,0,-1
2457 0 m 1,8,-1
 2457 2457 l 1,9,-1
 1638 2457 l 1,10,-1
 1638 3276 l 1,11,-1
 2457 3276 l 1,12,-1
 2457 4915 l 1,13,-1
 3276 4915 l 1,14,-1
 3276 0 l 1,15,-1
 2457 0 l 1,8,-1
EndSplineSet
Validated: 5
EndChar

StartChar: O
Encoding: 79 79 44
Width: 4096
Flags: W
LayerCount: 2
Fore
SplineSet
819 0 m 1,0,-1
 819 819 l 1,1,-1
 2457 819 l 1,2,-1
 2457 0 l 1,3,-1
 819 0 l 1,0,-1
0 819 m 1,4,-1
 0 4096 l 1,5,-1
 819 4096 l 1,6,-1
 819 819 l 1,7,-1
 0 819 l 1,4,-1
2457 819 m 1,8,-1
 2457 4096 l 1,9,-1
 3276 4096 l 1,10,-1
 3276 819 l 1,11,-1
 2457 819 l 1,8,-1
819 4096 m 1,12,-1
 819 4915 l 1,13,-1
 2457 4915 l 1,14,-1
 2457 4096 l 1,15,-1
 819 4096 l 1,12,-1
EndSplineSet
Validated: 5
EndChar

StartChar: P
Encoding: 80 80 45
Width: 4096
Flags: W
LayerCount: 2
Fore
SplineSet
2457 3276 m 1,0,-1
 2457 4096 l 1,1,-1
 819 4096 l 1,2,-1
 819 3276 l 1,3,-1
 2457 3276 l 1,0,-1
0 0 m 1,4,-1
 0 4915 l 1,5,-1
 3276 4915 l 1,6,-1
 3276 2457 l 1,7,-1
 819 2457 l 1,8,-1
 819 0 l 1,9,-1
 0 0 l 1,4,-1
EndSplineSet
Validated: 1
EndChar

StartChar: Q
Encoding: 81 81 46
Width: 4915
Flags: W
LayerCount: 2
Fore
SplineSet
819 0 m 1,0,-1
 819 819 l 1,1,-1
 2457 819 l 1,2,-1
 2457 0 l 1,3,-1
 819 0 l 1,0,-1
3276 0 m 1,4,-1
 3276 819 l 1,5,-1
 4096 819 l 1,6,-1
 4096 0 l 1,7,-1
 3276 0 l 1,4,-1
2457 819 m 1,8,-1
 2457 1638 l 1,9,-1
 3276 1638 l 1,10,-1
 3276 819 l 1,11,-1
 2457 819 l 1,8,-1
1638 1638 m 1,12,-1
 1638 2457 l 1,13,-1
 2457 2457 l 1,14,-1
 2457 1638 l 1,15,-1
 1638 1638 l 1,12,-1
0 819 m 1,16,-1
 0 4096 l 1,17,-1
 819 4096 l 1,18,-1
 819 819 l 1,19,-1
 0 819 l 1,16,-1
3276 1638 m 1,20,-1
 3276 4096 l 1,21,-1
 4096 4096 l 1,22,-1
 4096 1638 l 1,23,-1
 3276 1638 l 1,20,-1
819 4096 m 1,24,-1
 819 4915 l 1,25,-1
 3276 4915 l 1,26,-1
 3276 4096 l 1,27,-1
 819 4096 l 1,24,-1
EndSplineSet
Validated: 5
EndChar

StartChar: R
Encoding: 82 82 47
Width: 4096
Flags: W
LayerCount: 2
Fore
SplineSet
2457 0 m 1,0,-1
 2457 2457 l 1,1,-1
 3276 2457 l 1,2,-1
 3276 0 l 1,3,-1
 2457 0 l 1,0,-1
2457 3276 m 1,4,-1
 2457 4096 l 1,5,-1
 3276 4096 l 1,6,-1
 3276 3276 l 1,7,-1
 2457 3276 l 1,4,-1
0 0 m 1,8,-1
 0 4915 l 1,9,-1
 2457 4915 l 1,10,-1
 2457 4096 l 1,11,-1
 819 4096 l 1,12,-1
 819 3276 l 1,13,-1
 2457 3276 l 1,14,-1
 2457 2457 l 1,15,-1
 819 2457 l 1,16,-1
 819 0 l 1,17,-1
 0 0 l 1,8,-1
EndSplineSet
Validated: 5
EndChar

StartChar: S
Encoding: 83 83 48
Width: 4096
Flags: W
LayerCount: 2
Fore
SplineSet
0 0 m 1,0,-1
 0 819 l 1,1,-1
 2457 819 l 1,2,-1
 2457 2457 l 1,3,-1
 0 2457 l 1,4,-1
 0 4915 l 1,5,-1
 3276 4915 l 1,6,-1
 3276 4096 l 1,7,-1
 819 4096 l 1,8,-1
 819 3276 l 1,9,-1
 3276 3276 l 1,10,-1
 3276 0 l 1,11,-1
 0 0 l 1,0,-1
EndSplineSet
Validated: 1
EndChar

StartChar: T
Encoding: 84 84 49
Width: 4915
Flags: W
LayerCount: 2
Fore
SplineSet
1638 0 m 1,0,-1
 1638 4096 l 1,1,-1
 0 4096 l 1,2,-1
 0 4915 l 1,3,-1
 4096 4915 l 1,4,-1
 4096 4096 l 1,5,-1
 2457 4096 l 1,6,-1
 2457 0 l 1,7,-1
 1638 0 l 1,0,-1
EndSplineSet
Validated: 1
EndChar

StartChar: U
Encoding: 85 85 50
Width: 4096
Flags: W
LayerCount: 2
Fore
SplineSet
819 0 m 1,0,-1
 819 819 l 1,1,-1
 2457 819 l 1,2,-1
 2457 0 l 1,3,-1
 819 0 l 1,0,-1
0 819 m 1,4,-1
 0 4915 l 1,5,-1
 819 4915 l 1,6,-1
 819 819 l 1,7,-1
 0 819 l 1,4,-1
2457 819 m 1,8,-1
 2457 4915 l 1,9,-1
 3276 4915 l 1,10,-1
 3276 819 l 1,11,-1
 2457 819 l 1,8,-1
EndSplineSet
Validated: 5
EndChar

StartChar: V
Encoding: 86 86 51
Width: 4915
Flags: W
LayerCount: 2
Fore
SplineSet
1638 0 m 1,0,-1
 1638 819 l 1,1,-1
 2457 819 l 1,2,-1
 2457 0 l 1,3,-1
 1638 0 l 1,0,-1
819 819 m 1,4,-1
 819 1638 l 1,5,-1
 1638 1638 l 1,6,-1
 1638 819 l 1,7,-1
 819 819 l 1,4,-1
2457 819 m 1,8,-1
 2457 1638 l 1,9,-1
 3276 1638 l 1,10,-1
 3276 819 l 1,11,-1
 2457 819 l 1,8,-1
0 1638 m 1,12,-1
 0 4915 l 1,13,-1
 819 4915 l 1,14,-1
 819 1638 l 1,15,-1
 0 1638 l 1,12,-1
3276 1638 m 1,16,-1
 3276 4915 l 1,17,-1
 4096 4915 l 1,18,-1
 4096 1638 l 1,19,-1
 3276 1638 l 1,16,-1
EndSplineSet
Validated: 5
EndChar

StartChar: W
Encoding: 87 87 52
Width: 4915
Flags: W
LayerCount: 2
Fore
SplineSet
819 0 m 1,0,-1
 819 819 l 1,1,-1
 1638 819 l 1,2,-1
 1638 0 l 1,3,-1
 819 0 l 1,0,-1
2457 0 m 1,4,-1
 2457 819 l 1,5,-1
 3276 819 l 1,6,-1
 3276 0 l 1,7,-1
 2457 0 l 1,4,-1
1638 819 m 1,8,-1
 1638 2457 l 1,9,-1
 2457 2457 l 1,10,-1
 2457 819 l 1,11,-1
 1638 819 l 1,8,-1
0 819 m 1,12,-1
 0 4915 l 1,13,-1
 819 4915 l 1,14,-1
 819 819 l 1,15,-1
 0 819 l 1,12,-1
3276 819 m 1,16,-1
 3276 4915 l 1,17,-1
 4096 4915 l 1,18,-1
 4096 819 l 1,19,-1
 3276 819 l 1,16,-1
EndSplineSet
Validated: 5
EndChar

StartChar: X
Encoding: 88 88 53
Width: 4915
Flags: W
LayerCount: 2
Fore
SplineSet
0 0 m 1,0,-1
 0 819 l 1,1,-1
 819 819 l 1,2,-1
 819 0 l 1,3,-1
 0 0 l 1,0,-1
3276 0 m 1,4,-1
 3276 819 l 1,5,-1
 4096 819 l 1,6,-1
 4096 0 l 1,7,-1
 3276 0 l 1,4,-1
819 819 m 1,8,-1
 819 1638 l 1,9,-1
 1638 1638 l 1,10,-1
 1638 819 l 1,11,-1
 819 819 l 1,8,-1
2457 819 m 1,12,-1
 2457 1638 l 1,13,-1
 3276 1638 l 1,14,-1
 3276 819 l 1,15,-1
 2457 819 l 1,12,-1
1638 1638 m 1,16,-1
 1638 2457 l 1,17,-1
 2457 2457 l 1,18,-1
 2457 1638 l 1,19,-1
 1638 1638 l 1,16,-1
819 2457 m 1,20,-1
 819 3276 l 1,21,-1
 1638 3276 l 1,22,-1
 1638 2457 l 1,23,-1
 819 2457 l 1,20,-1
2457 2457 m 1,24,-1
 2457 3276 l 1,25,-1
 3276 3276 l 1,26,-1
 3276 2457 l 1,27,-1
 2457 2457 l 1,24,-1
0 3276 m 1,28,-1
 0 4915 l 1,29,-1
 819 4915 l 1,30,-1
 819 3276 l 1,31,-1
 0 3276 l 1,28,-1
3276 3276 m 1,32,-1
 3276 4915 l 1,33,-1
 4096 4915 l 1,34,-1
 4096 3276 l 1,35,-1
 3276 3276 l 1,32,-1
EndSplineSet
Validated: 5
EndChar

StartChar: Y
Encoding: 89 89 54
Width: 4915
Flags: W
LayerCount: 2
Fore
SplineSet
1638 0 m 1,0,-1
 1638 2457 l 1,1,-1
 2457 2457 l 1,2,-1
 2457 0 l 1,3,-1
 1638 0 l 1,0,-1
819 2457 m 1,4,-1
 819 3276 l 1,5,-1
 1638 3276 l 1,6,-1
 1638 2457 l 1,7,-1
 819 2457 l 1,4,-1
2457 2457 m 1,8,-1
 2457 3276 l 1,9,-1
 3276 3276 l 1,10,-1
 3276 2457 l 1,11,-1
 2457 2457 l 1,8,-1
0 3276 m 1,12,-1
 0 4915 l 1,13,-1
 819 4915 l 1,14,-1
 819 3276 l 1,15,-1
 0 3276 l 1,12,-1
3276 3276 m 1,16,-1
 3276 4915 l 1,17,-1
 4096 4915 l 1,18,-1
 4096 3276 l 1,19,-1
 3276 3276 l 1,16,-1
EndSplineSet
Validated: 5
EndChar

StartChar: Z
Encoding: 90 90 55
Width: 4096
Flags: W
LayerCount: 2
Fore
SplineSet
0 0 m 1,0,-1
 0 1638 l 1,1,-1
 819 1638 l 1,2,-1
 819 819 l 1,3,-1
 3276 819 l 1,4,-1
 3276 0 l 1,5,-1
 0 0 l 1,0,-1
819 1638 m 1,6,-1
 819 2457 l 1,7,-1
 1638 2457 l 1,8,-1
 1638 1638 l 1,9,-1
 819 1638 l 1,6,-1
1638 2457 m 1,10,-1
 1638 3276 l 1,11,-1
 2457 3276 l 1,12,-1
 2457 2457 l 1,13,-1
 1638 2457 l 1,10,-1
2457 3276 m 1,14,-1
 2457 4096 l 1,15,-1
 0 4096 l 1,16,-1
 0 4915 l 1,17,-1
 3276 4915 l 1,18,-1
 3276 3276 l 1,19,-1
 2457 3276 l 1,14,-1
EndSplineSet
Validated: 5
EndChar

StartChar: bracketleft
Encoding: 91 91 56
Width: 3276
Flags: W
LayerCount: 2
Fore
SplineSet
0 0 m 1,0,-1
 0 4915 l 1,1,-1
 2457 4915 l 1,2,-1
 2457 4096 l 1,3,-1
 819 4096 l 1,4,-1
 819 819 l 1,5,-1
 2457 819 l 1,6,-1
 2457 0 l 1,7,-1
 0 0 l 1,0,-1
EndSplineSet
Validated: 1
EndChar

StartChar: backslash
Encoding: 92 92 57
Width: 3276
Flags: W
LayerCount: 2
Fore
SplineSet
1638 0 m 1,0,-1
 1638 1638 l 1,1,-1
 2457 1638 l 1,2,-1
 2457 0 l 1,3,-1
 1638 0 l 1,0,-1
819 1638 m 1,4,-1
 819 3276 l 1,5,-1
 1638 3276 l 1,6,-1
 1638 1638 l 1,7,-1
 819 1638 l 1,4,-1
0 3276 m 1,8,-1
 0 4915 l 1,9,-1
 819 4915 l 1,10,-1
 819 3276 l 1,11,-1
 0 3276 l 1,8,-1
EndSplineSet
Validated: 5
EndChar

StartChar: bracketright
Encoding: 93 93 58
Width: 3276
Flags: W
LayerCount: 2
Fore
SplineSet
0 0 m 1,0,-1
 0 819 l 1,1,-1
 1638 819 l 1,2,-1
 1638 4096 l 1,3,-1
 0 4096 l 1,4,-1
 0 4915 l 1,5,-1
 2457 4915 l 1,6,-1
 2457 0 l 1,7,-1
 0 0 l 1,0,-1
EndSplineSet
Validated: 1
EndChar

StartChar: asciicircum
Encoding: 94 94 59
Width: 3276
Flags: W
LayerCount: 2
Fore
SplineSet
0 3276 m 1,0,-1
 0 4096 l 1,1,-1
 819 4096 l 1,2,-1
 819 3276 l 1,3,-1
 0 3276 l 1,0,-1
1638 3276 m 1,4,-1
 1638 4096 l 1,5,-1
 2457 4096 l 1,6,-1
 2457 3276 l 1,7,-1
 1638 3276 l 1,4,-1
819 4096 m 1,8,-1
 819 4915 l 1,9,-1
 1638 4915 l 1,10,-1
 1638 4096 l 1,11,-1
 819 4096 l 1,8,-1
EndSplineSet
Validated: 5
EndChar

StartChar: underscore
Encoding: 95 95 60
Width: 4096
Flags: W
LayerCount: 2
Fore
SplineSet
0 0 m 1,0,-1
 0 819 l 1,1,-1
 3276 819 l 1,2,-1
 3276 0 l 1,3,-1
 0 0 l 1,0,-1
EndSplineSet
Validated: 1
EndChar

StartChar: grave
Encoding: 96 96 61
Width: 3276
Flags: W
LayerCount: 2
Fore
SplineSet
1638 3276 m 1,0,-1
 1638 4096 l 1,1,-1
 2457 4096 l 1,2,-1
 2457 3276 l 1,3,-1
 1638 3276 l 1,0,-1
819 4096 m 1,4,-1
 819 4915 l 1,5,-1
 1638 4915 l 1,6,-1
 1638 4096 l 1,7,-1
 819 4096 l 1,4,-1
EndSplineSet
Validated: 5
EndChar

StartChar: a
Encoding: 97 97 62
Width: 4096
Flags: W
LayerCount: 2
Fore
SplineSet
2457 819 m 1,0,-1
 2457 1638 l 1,1,-1
 819 1638 l 1,2,-1
 819 819 l 1,3,-1
 2457 819 l 1,0,-1
0 0 m 1,4,-1
 0 2457 l 1,5,-1
 2457 2457 l 1,6,-1
 2457 3276 l 1,7,-1
 3276 3276 l 1,8,-1
 3276 0 l 1,9,-1
 0 0 l 1,4,-1
0 3276 m 1,10,-1
 0 4096 l 1,11,-1
 2457 4096 l 1,12,-1
 2457 3276 l 1,13,-1
 0 3276 l 1,10,-1
EndSplineSet
Validated: 5
EndChar

StartChar: b
Encoding: 98 98 63
Width: 4096
Flags: W
LayerCount: 2
Fore
SplineSet
2457 819 m 1,0,-1
 2457 1638 l 1,1,-1
 819 1638 l 1,2,-1
 819 819 l 1,3,-1
 2457 819 l 1,0,-1
0 0 m 1,4,-1
 0 4096 l 1,5,-1
 819 4096 l 1,6,-1
 819 2457 l 1,7,-1
 3276 2457 l 1,8,-1
 3276 0 l 1,9,-1
 0 0 l 1,4,-1
EndSplineSet
Validated: 1
EndChar

StartChar: c
Encoding: 99 99 64
Width: 4096
Flags: W
LayerCount: 2
Fore
SplineSet
819 0 m 1,0,-1
 819 819 l 1,1,-1
 2457 819 l 1,2,-1
 2457 0 l 1,3,-1
 819 0 l 1,0,-1
2457 819 m 1,4,-1
 2457 1638 l 1,5,-1
 3276 1638 l 1,6,-1
 3276 819 l 1,7,-1
 2457 819 l 1,4,-1
0 819 m 1,8,-1
 0 3276 l 1,9,-1
 819 3276 l 1,10,-1
 819 819 l 1,11,-1
 0 819 l 1,8,-1
2457 2457 m 1,12,-1
 2457 3276 l 1,13,-1
 3276 3276 l 1,14,-1
 3276 2457 l 1,15,-1
 2457 2457 l 1,12,-1
819 3276 m 1,16,-1
 819 4096 l 1,17,-1
 2457 4096 l 1,18,-1
 2457 3276 l 1,19,-1
 819 3276 l 1,16,-1
EndSplineSet
Validated: 5
EndChar

StartChar: d
Encoding: 100 100 65
Width: 4096
Flags: W
LayerCount: 2
Fore
SplineSet
2457 819 m 1,0,-1
 2457 1638 l 1,1,-1
 819 1638 l 1,2,-1
 819 819 l 1,3,-1
 2457 819 l 1,0,-1
0 0 m 1,4,-1
 0 2457 l 1,5,-1
 2457 2457 l 1,6,-1
 2457 4096 l 1,7,-1
 3276 4096 l 1,8,-1
 3276 0 l 1,9,-1
 0 0 l 1,4,-1
EndSplineSet
Validated: 1
EndChar

StartChar: e
Encoding: 101 101 66
Width: 4096
Flags: W
LayerCount: 2
Fore
SplineSet
2457 2457 m 1,0,-1
 2457 3276 l 1,1,-1
 819 3276 l 1,2,-1
 819 2457 l 1,3,-1
 2457 2457 l 1,0,-1
0 0 m 1,4,-1
 0 4096 l 1,5,-1
 3276 4096 l 1,6,-1
 3276 1638 l 1,7,-1
 819 1638 l 1,8,-1
 819 819 l 1,9,-1
 3276 819 l 1,10,-1
 3276 0 l 1,11,-1
 0 0 l 1,4,-1
EndSplineSet
Validated: 1
EndChar

StartChar: f
Encoding: 102 102 67
Width: 4096
Flags: W
LayerCount: 2
Fore
SplineSet
0 0 m 1,0,-1
 0 4096 l 1,1,-1
 3276 4096 l 1,2,-1
 3276 3276 l 1,3,-1
 819 3276 l 1,4,-1
 819 2457 l 1,5,-1
 3276 2457 l 1,6,-1
 3276 1638 l 1,7,-1
 819 1638 l 1,8,-1
 819 0 l 1,9,-1
 0 0 l 1,0,-1
EndSplineSet
Validated: 1
EndChar

StartChar: g
Encoding: 103 103 68
Width: 4096
Flags: W
LayerCount: 2
Fore
SplineSet
0 0 m 1,0,-1
 0 4096 l 1,1,-1
 3276 4096 l 1,2,-1
 3276 3276 l 1,3,-1
 819 3276 l 1,4,-1
 819 819 l 1,5,-1
 2457 819 l 1,6,-1
 2457 1638 l 1,7,-1
 1638 1638 l 1,8,-1
 1638 2457 l 1,9,-1
 3276 2457 l 1,10,-1
 3276 0 l 1,11,-1
 0 0 l 1,0,-1
EndSplineSet
Validated: 1
EndChar

StartChar: h
Encoding: 104 104 69
Width: 4096
Flags: W
LayerCount: 2
Fore
SplineSet
0 0 m 1,0,-1
 0 4096 l 1,1,-1
 819 4096 l 1,2,-1
 819 2457 l 1,3,-1
 3276 2457 l 1,4,-1
 3276 0 l 1,5,-1
 2457 0 l 1,6,-1
 2457 1638 l 1,7,-1
 819 1638 l 1,8,-1
 819 0 l 1,9,-1
 0 0 l 1,0,-1
EndSplineSet
Validated: 1
EndChar

StartChar: i
Encoding: 105 105 70
Width: 1638
Flags: W
LayerCount: 2
Fore
SplineSet
0 0 m 1,0,-1
 0 2457 l 1,1,-1
 819 2457 l 1,2,-1
 819 0 l 1,3,-1
 0 0 l 1,0,-1
0 3276 m 1,4,-1
 0 4096 l 1,5,-1
 819 4096 l 1,6,-1
 819 3276 l 1,7,-1
 0 3276 l 1,4,-1
EndSplineSet
Validated: 1
EndChar

StartChar: j
Encoding: 106 106 71
Width: 3276
Flags: W
LayerCount: 2
Fore
SplineSet
0 0 m 1,0,-1
 0 819 l 1,1,-1
 1638 819 l 1,2,-1
 1638 2457 l 1,3,-1
 2457 2457 l 1,4,-1
 2457 0 l 1,5,-1
 0 0 l 1,0,-1
1638 3276 m 1,6,-1
 1638 4096 l 1,7,-1
 2457 4096 l 1,8,-1
 2457 3276 l 1,9,-1
 1638 3276 l 1,6,-1
EndSplineSet
Validated: 1
EndChar

StartChar: k
Encoding: 107 107 72
Width: 4096
Flags: W
LayerCount: 2
Fore
SplineSet
2457 0 m 1,0,-1
 2457 819 l 1,1,-1
 3276 819 l 1,2,-1
 3276 0 l 1,3,-1
 2457 0 l 1,0,-1
2457 1638 m 1,4,-1
 2457 2457 l 1,5,-1
 3276 2457 l 1,6,-1
 3276 1638 l 1,7,-1
 2457 1638 l 1,4,-1
0 0 m 1,8,-1
 0 4096 l 1,9,-1
 819 4096 l 1,10,-1
 819 1638 l 1,11,-1
 2457 1638 l 1,12,-1
 2457 819 l 1,13,-1
 819 819 l 1,14,-1
 819 0 l 1,15,-1
 0 0 l 1,8,-1
EndSplineSet
Validated: 5
EndChar

StartChar: l
Encoding: 108 108 73
Width: 1638
Flags: W
LayerCount: 2
Fore
SplineSet
0 0 m 1,0,-1
 0 4096 l 1,1,-1
 819 4096 l 1,2,-1
 819 0 l 1,3,-1
 0 0 l 1,0,-1
EndSplineSet
Validated: 1
EndChar

StartChar: m
Encoding: 109 109 74
Width: 4915
Flags: W
LayerCount: 2
Fore
SplineSet
1638 0 m 1,0,-1
 1638 2457 l 1,1,-1
 2457 2457 l 1,2,-1
 2457 0 l 1,3,-1
 1638 0 l 1,0,-1
0 0 m 1,4,-1
 0 4096 l 1,5,-1
 819 4096 l 1,6,-1
 819 3276 l 1,7,-1
 1638 3276 l 1,8,-1
 1638 2457 l 1,9,-1
 819 2457 l 1,10,-1
 819 0 l 1,11,-1
 0 0 l 1,4,-1
3276 0 m 1,12,-1
 3276 2457 l 1,13,-1
 2457 2457 l 1,14,-1
 2457 3276 l 1,15,-1
 3276 3276 l 1,16,-1
 3276 4096 l 1,17,-1
 4096 4096 l 1,18,-1
 4096 0 l 1,19,-1
 3276 0 l 1,12,-1
EndSplineSet
Validated: 5
EndChar

StartChar: n
Encoding: 110 110 75
Width: 4096
Flags: W
LayerCount: 2
Fore
SplineSet
0 0 m 1,0,-1
 0 4096 l 1,1,-1
 819 4096 l 1,2,-1
 819 3276 l 1,3,-1
 1638 3276 l 1,4,-1
 1638 2457 l 1,5,-1
 819 2457 l 1,6,-1
 819 0 l 1,7,-1
 0 0 l 1,0,-1
2457 0 m 1,8,-1
 2457 1638 l 1,9,-1
 1638 1638 l 1,10,-1
 1638 2457 l 1,11,-1
 2457 2457 l 1,12,-1
 2457 4096 l 1,13,-1
 3276 4096 l 1,14,-1
 3276 0 l 1,15,-1
 2457 0 l 1,8,-1
EndSplineSet
Validated: 5
EndChar

StartChar: o
Encoding: 111 111 76
Width: 4096
Flags: W
LayerCount: 2
Fore
SplineSet
819 0 m 1,0,-1
 819 819 l 1,1,-1
 2457 819 l 1,2,-1
 2457 0 l 1,3,-1
 819 0 l 1,0,-1
0 819 m 1,4,-1
 0 3276 l 1,5,-1
 819 3276 l 1,6,-1
 819 819 l 1,7,-1
 0 819 l 1,4,-1
2457 819 m 1,8,-1
 2457 3276 l 1,9,-1
 3276 3276 l 1,10,-1
 3276 819 l 1,11,-1
 2457 819 l 1,8,-1
819 3276 m 1,12,-1
 819 4096 l 1,13,-1
 2457 4096 l 1,14,-1
 2457 3276 l 1,15,-1
 819 3276 l 1,12,-1
EndSplineSet
Validated: 5
EndChar

StartChar: p
Encoding: 112 112 77
Width: 4096
Flags: W
LayerCount: 2
Fore
SplineSet
2457 2457 m 1,0,-1
 2457 3276 l 1,1,-1
 819 3276 l 1,2,-1
 819 2457 l 1,3,-1
 2457 2457 l 1,0,-1
0 0 m 1,4,-1
 0 4096 l 1,5,-1
 3276 4096 l 1,6,-1
 3276 1638 l 1,7,-1
 819 1638 l 1,8,-1
 819 0 l 1,9,-1
 0 0 l 1,4,-1
EndSplineSet
Validated: 1
EndChar

StartChar: q
Encoding: 113 113 78
Width: 4096
Flags: W
LayerCount: 2
Fore
SplineSet
2457 2457 m 1,0,-1
 2457 3276 l 1,1,-1
 819 3276 l 1,2,-1
 819 2457 l 1,3,-1
 2457 2457 l 1,0,-1
2457 0 m 1,4,-1
 2457 1638 l 1,5,-1
 0 1638 l 1,6,-1
 0 4096 l 1,7,-1
 3276 4096 l 1,8,-1
 3276 0 l 1,9,-1
 2457 0 l 1,4,-1
EndSplineSet
Validated: 1
EndChar

StartChar: r
Encoding: 114 114 79
Width: 4096
Flags: W
LayerCount: 2
Fore
SplineSet
0 0 m 1,0,-1
 0 4096 l 1,1,-1
 3276 4096 l 1,2,-1
 3276 3276 l 1,3,-1
 819 3276 l 1,4,-1
 819 0 l 1,5,-1
 0 0 l 1,0,-1
EndSplineSet
Validated: 1
EndChar

StartChar: s
Encoding: 115 115 80
Width: 4096
Flags: W
LayerCount: 2
Fore
SplineSet
0 0 m 1,0,-1
 0 819 l 1,1,-1
 2457 819 l 1,2,-1
 2457 1638 l 1,3,-1
 0 1638 l 1,4,-1
 0 4096 l 1,5,-1
 3276 4096 l 1,6,-1
 3276 3276 l 1,7,-1
 819 3276 l 1,8,-1
 819 2457 l 1,9,-1
 3276 2457 l 1,10,-1
 3276 0 l 1,11,-1
 0 0 l 1,0,-1
EndSplineSet
Validated: 1
EndChar

StartChar: t
Encoding: 116 116 81
Width: 4096
Flags: W
LayerCount: 2
Fore
SplineSet
0 0 m 1,0,-1
 0 4096 l 1,1,-1
 819 4096 l 1,2,-1
 819 2457 l 1,3,-1
 3276 2457 l 1,4,-1
 3276 1638 l 1,5,-1
 819 1638 l 1,6,-1
 819 819 l 1,7,-1
 3276 819 l 1,8,-1
 3276 0 l 1,9,-1
 0 0 l 1,0,-1
EndSplineSet
Validated: 1
EndChar

StartChar: u
Encoding: 117 117 82
Width: 4096
Flags: W
LayerCount: 2
Fore
SplineSet
819 0 m 1,0,-1
 819 819 l 1,1,-1
 2457 819 l 1,2,-1
 2457 0 l 1,3,-1
 819 0 l 1,0,-1
0 819 m 1,4,-1
 0 4096 l 1,5,-1
 819 4096 l 1,6,-1
 819 819 l 1,7,-1
 0 819 l 1,4,-1
2457 819 m 1,8,-1
 2457 4096 l 1,9,-1
 3276 4096 l 1,10,-1
 3276 819 l 1,11,-1
 2457 819 l 1,8,-1
EndSplineSet
Validated: 5
EndChar

StartChar: v
Encoding: 118 118 83
Width: 4915
Flags: W
LayerCount: 2
Fore
SplineSet
1638 0 m 1,0,-1
 1638 819 l 1,1,-1
 2457 819 l 1,2,-1
 2457 0 l 1,3,-1
 1638 0 l 1,0,-1
819 819 m 1,4,-1
 819 1638 l 1,5,-1
 1638 1638 l 1,6,-1
 1638 819 l 1,7,-1
 819 819 l 1,4,-1
2457 819 m 1,8,-1
 2457 1638 l 1,9,-1
 3276 1638 l 1,10,-1
 3276 819 l 1,11,-1
 2457 819 l 1,8,-1
0 1638 m 1,12,-1
 0 4096 l 1,13,-1
 819 4096 l 1,14,-1
 819 1638 l 1,15,-1
 0 1638 l 1,12,-1
3276 1638 m 1,16,-1
 3276 4096 l 1,17,-1
 4096 4096 l 1,18,-1
 4096 1638 l 1,19,-1
 3276 1638 l 1,16,-1
EndSplineSet
Validated: 5
EndChar

StartChar: w
Encoding: 119 119 84
Width: 4915
Flags: W
LayerCount: 2
Fore
SplineSet
819 0 m 1,0,-1
 819 819 l 1,1,-1
 1638 819 l 1,2,-1
 1638 0 l 1,3,-1
 819 0 l 1,0,-1
2457 0 m 1,4,-1
 2457 819 l 1,5,-1
 3276 819 l 1,6,-1
 3276 0 l 1,7,-1
 2457 0 l 1,4,-1
1638 819 m 1,8,-1
 1638 2457 l 1,9,-1
 2457 2457 l 1,10,-1
 2457 819 l 1,11,-1
 1638 819 l 1,8,-1
0 819 m 1,12,-1
 0 4096 l 1,13,-1
 819 4096 l 1,14,-1
 819 819 l 1,15,-1
 0 819 l 1,12,-1
3276 819 m 1,16,-1
 3276 4096 l 1,17,-1
 4096 4096 l 1,18,-1
 4096 819 l 1,19,-1
 3276 819 l 1,16,-1
EndSplineSet
Validated: 5
EndChar

StartChar: x
Encoding: 120 120 85
Width: 4915
Flags: W
LayerCount: 2
Fore
SplineSet
0 0 m 1,0,-1
 0 819 l 1,1,-1
 819 819 l 1,2,-1
 819 0 l 1,3,-1
 0 0 l 1,0,-1
3276 0 m 1,4,-1
 3276 819 l 1,5,-1
 4096 819 l 1,6,-1
 4096 0 l 1,7,-1
 3276 0 l 1,4,-1
819 819 m 1,8,-1
 819 1638 l 1,9,-1
 1638 1638 l 1,10,-1
 1638 819 l 1,11,-1
 819 819 l 1,8,-1
2457 819 m 1,12,-1
 2457 1638 l 1,13,-1
 3276 1638 l 1,14,-1
 3276 819 l 1,15,-1
 2457 819 l 1,12,-1
1638 1638 m 1,16,-1
 1638 2457 l 1,17,-1
 2457 2457 l 1,18,-1
 2457 1638 l 1,19,-1
 1638 1638 l 1,16,-1
819 2457 m 1,20,-1
 819 3276 l 1,21,-1
 1638 3276 l 1,22,-1
 1638 2457 l 1,23,-1
 819 2457 l 1,20,-1
2457 2457 m 1,24,-1
 2457 3276 l 1,25,-1
 3276 3276 l 1,26,-1
 3276 2457 l 1,27,-1
 2457 2457 l 1,24,-1
0 3276 m 1,28,-1
 0 4096 l 1,29,-1
 819 4096 l 1,30,-1
 819 3276 l 1,31,-1
 0 3276 l 1,28,-1
3276 3276 m 1,32,-1
 3276 4096 l 1,33,-1
 4096 4096 l 1,34,-1
 4096 3276 l 1,35,-1
 3276 3276 l 1,32,-1
EndSplineSet
Validated: 5
EndChar

StartChar: y
Encoding: 121 121 86
Width: 4096
Flags: W
LayerCount: 2
Fore
SplineSet
0 0 m 1,0,-1
 0 819 l 1,1,-1
 2457 819 l 1,2,-1
 2457 1638 l 1,3,-1
 0 1638 l 1,4,-1
 0 4096 l 1,5,-1
 819 4096 l 1,6,-1
 819 2457 l 1,7,-1
 2457 2457 l 1,8,-1
 2457 4096 l 1,9,-1
 3276 4096 l 1,10,-1
 3276 0 l 1,11,-1
 0 0 l 1,0,-1
EndSplineSet
Validated: 1
EndChar

StartChar: z
Encoding: 122 122 87
Width: 4096
Flags: W
LayerCount: 2
Fore
SplineSet
0 0 m 1,0,-1
 0 1638 l 1,1,-1
 819 1638 l 1,2,-1
 819 819 l 1,3,-1
 3276 819 l 1,4,-1
 3276 0 l 1,5,-1
 0 0 l 1,0,-1
819 1638 m 1,6,-1
 819 2457 l 1,7,-1
 1638 2457 l 1,8,-1
 1638 1638 l 1,9,-1
 819 1638 l 1,6,-1
1638 2457 m 1,10,-1
 1638 3276 l 1,11,-1
 0 3276 l 1,12,-1
 0 4096 l 1,13,-1
 3276 4096 l 1,14,-1
 3276 3276 l 1,15,-1
 2457 3276 l 1,16,-1
 2457 2457 l 1,17,-1
 1638 2457 l 1,10,-1
EndSplineSet
Validated: 5
EndChar

StartChar: bar
Encoding: 124 124 88
Width: 1638
Flags: W
LayerCount: 2
Fore
SplineSet
0 0 m 1,0,-1
 0 4915 l 1,1,-1
 819 4915 l 1,2,-1
 819 0 l 1,3,-1
 0 0 l 1,0,-1
EndSplineSet
Validated: 1
EndChar

StartChar: asciitilde
Encoding: 126 126 89
Width: 4096
Flags: W
LayerCount: 2
Fore
SplineSet
0 2457 m 1,0,-1
 0 3276 l 1,1,-1
 819 3276 l 1,2,-1
 819 2457 l 1,3,-1
 0 2457 l 1,0,-1
1638 2457 m 1,4,-1
 1638 3276 l 1,5,-1
 2457 3276 l 1,6,-1
 2457 2457 l 1,7,-1
 1638 2457 l 1,4,-1
819 3276 m 1,8,-1
 819 4096 l 1,9,-1
 1638 4096 l 1,10,-1
 1638 3276 l 1,11,-1
 819 3276 l 1,8,-1
2457 3276 m 1,12,-1
 2457 4096 l 1,13,-1
 3276 4096 l 1,14,-1
 3276 3276 l 1,15,-1
 2457 3276 l 1,12,-1
EndSplineSet
Validated: 5
EndChar

StartChar: exclamdown
Encoding: 161 161 90
Width: 1638
Flags: W
LayerCount: 2
Fore
SplineSet
0 0 m 1,0,-1
 0 3276 l 1,1,-1
 819 3276 l 1,2,-1
 819 0 l 1,3,-1
 0 0 l 1,0,-1
0 4096 m 1,4,-1
 0 4915 l 1,5,-1
 819 4915 l 1,6,-1
 819 4096 l 1,7,-1
 0 4096 l 1,4,-1
EndSplineSet
Validated: 1
EndChar

StartChar: mu
Encoding: 181 181 91
Width: 4096
Flags: W
LayerCount: 2
Fore
SplineSet
0 -1638 m 1,0,-1
 0 4096 l 1,1,-1
 819 4096 l 1,2,-1
 819 819 l 1,3,-1
 2457 819 l 1,4,-1
 2457 0 l 1,5,-1
 819 0 l 1,6,-1
 819 -1638 l 1,7,-1
 0 -1638 l 1,0,-1
2457 819 m 1,8,-1
 2457 4096 l 1,9,-1
 3276 4096 l 1,10,-1
 3276 819 l 1,11,-1
 2457 819 l 1,8,-1
EndSplineSet
Validated: 5
EndChar

StartChar: questiondown
Encoding: 191 191 92
Width: 4096
Flags: W
LayerCount: 2
Fore
SplineSet
819 0 m 1,0,-1
 819 819 l 1,1,-1
 2457 819 l 1,2,-1
 2457 0 l 1,3,-1
 819 0 l 1,0,-1
0 819 m 1,4,-1
 0 1638 l 1,5,-1
 819 1638 l 1,6,-1
 819 819 l 1,7,-1
 0 819 l 1,4,-1
2457 819 m 1,8,-1
 2457 1638 l 1,9,-1
 3276 1638 l 1,10,-1
 3276 819 l 1,11,-1
 2457 819 l 1,8,-1
819 1638 m 1,12,-1
 819 2457 l 1,13,-1
 1638 2457 l 1,14,-1
 1638 1638 l 1,15,-1
 819 1638 l 1,12,-1
1638 2457 m 1,16,-1
 1638 3276 l 1,17,-1
 2457 3276 l 1,18,-1
 2457 2457 l 1,19,-1
 1638 2457 l 1,16,-1
1638 4096 m 1,20,-1
 1638 4915 l 1,21,-1
 2457 4915 l 1,22,-1
 2457 4096 l 1,23,-1
 1638 4096 l 1,20,-1
EndSplineSet
Validated: 5
EndChar

StartChar: Agrave
Encoding: 192 192 93
Width: 4096
Flags: W
LayerCount: 2
Fore
SplineSet
0 0 m 1,0,-1
 0 4096 l 1,1,-1
 819 4096 l 1,2,-1
 819 2457 l 1,3,-1
 2457 2457 l 1,4,-1
 2457 4096 l 1,5,-1
 3276 4096 l 1,6,-1
 3276 0 l 1,7,-1
 2457 0 l 1,8,-1
 2457 1638 l 1,9,-1
 819 1638 l 1,10,-1
 819 0 l 1,11,-1
 0 0 l 1,0,-1
819 4096 m 1,12,-1
 819 4915 l 1,13,-1
 2457 4915 l 1,14,-1
 2457 4096 l 1,15,-1
 819 4096 l 1,12,-1
1638 5734 m 1,16,-1
 1638 6553 l 1,17,-1
 3276 6553 l 1,18,-1
 3276 5734 l 1,19,-1
 1638 5734 l 1,16,-1
0 6553 m 1,20,-1
 0 7372 l 1,21,-1
 1638 7372 l 1,22,-1
 1638 6553 l 1,23,-1
 0 6553 l 1,20,-1
EndSplineSet
Validated: 5
EndChar

StartChar: Aacute
Encoding: 193 193 94
Width: 4096
Flags: W
LayerCount: 2
Fore
SplineSet
0 0 m 1,0,-1
 0 4096 l 1,1,-1
 819 4096 l 1,2,-1
 819 2457 l 1,3,-1
 2457 2457 l 1,4,-1
 2457 4096 l 1,5,-1
 3276 4096 l 1,6,-1
 3276 0 l 1,7,-1
 2457 0 l 1,8,-1
 2457 1638 l 1,9,-1
 819 1638 l 1,10,-1
 819 0 l 1,11,-1
 0 0 l 1,0,-1
819 4096 m 1,12,-1
 819 4915 l 1,13,-1
 2457 4915 l 1,14,-1
 2457 4096 l 1,15,-1
 819 4096 l 1,12,-1
0 5734 m 1,16,-1
 0 6553 l 1,17,-1
 1638 6553 l 1,18,-1
 1638 5734 l 1,19,-1
 0 5734 l 1,16,-1
1638 6553 m 1,20,-1
 1638 7372 l 1,21,-1
 3276 7372 l 1,22,-1
 3276 6553 l 1,23,-1
 1638 6553 l 1,20,-1
EndSplineSet
Validated: 5
EndChar

StartChar: Acircumflex
Encoding: 194 194 95
Width: 4096
Flags: W
LayerCount: 2
Fore
SplineSet
0 0 m 1,0,-1
 0 4096 l 1,1,-1
 819 4096 l 1,2,-1
 819 2457 l 1,3,-1
 2457 2457 l 1,4,-1
 2457 4096 l 1,5,-1
 3276 4096 l 1,6,-1
 3276 0 l 1,7,-1
 2457 0 l 1,8,-1
 2457 1638 l 1,9,-1
 819 1638 l 1,10,-1
 819 0 l 1,11,-1
 0 0 l 1,0,-1
819 4096 m 1,12,-1
 819 4915 l 1,13,-1
 2457 4915 l 1,14,-1
 2457 4096 l 1,15,-1
 819 4096 l 1,12,-1
0 5734 m 1,16,-1
 0 6553 l 1,17,-1
 819 6553 l 1,18,-1
 819 5734 l 1,19,-1
 0 5734 l 1,16,-1
2457 5734 m 1,20,-1
 2457 6553 l 1,21,-1
 3276 6553 l 1,22,-1
 3276 5734 l 1,23,-1
 2457 5734 l 1,20,-1
819 6553 m 1,24,-1
 819 7372 l 1,25,-1
 2457 7372 l 1,26,-1
 2457 6553 l 1,27,-1
 819 6553 l 1,24,-1
EndSplineSet
Validated: 5
EndChar

StartChar: Atilde
Encoding: 195 195 96
Width: 4096
Flags: W
LayerCount: 2
Fore
SplineSet
0 0 m 1,0,-1
 0 4096 l 1,1,-1
 819 4096 l 1,2,-1
 819 2457 l 1,3,-1
 2457 2457 l 1,4,-1
 2457 4096 l 1,5,-1
 3276 4096 l 1,6,-1
 3276 0 l 1,7,-1
 2457 0 l 1,8,-1
 2457 1638 l 1,9,-1
 819 1638 l 1,10,-1
 819 0 l 1,11,-1
 0 0 l 1,0,-1
819 4096 m 1,12,-1
 819 4915 l 1,13,-1
 2457 4915 l 1,14,-1
 2457 4096 l 1,15,-1
 819 4096 l 1,12,-1
0 5734 m 1,16,-1
 0 6553 l 1,17,-1
 819 6553 l 1,18,-1
 819 5734 l 1,19,-1
 0 5734 l 1,16,-1
1638 5734 m 1,20,-1
 1638 6553 l 1,21,-1
 2457 6553 l 1,22,-1
 2457 5734 l 1,23,-1
 1638 5734 l 1,20,-1
819 6553 m 1,24,-1
 819 7372 l 1,25,-1
 1638 7372 l 1,26,-1
 1638 6553 l 1,27,-1
 819 6553 l 1,24,-1
2457 6553 m 1,28,-1
 2457 7372 l 1,29,-1
 3276 7372 l 1,30,-1
 3276 6553 l 1,31,-1
 2457 6553 l 1,28,-1
EndSplineSet
Validated: 5
EndChar

StartChar: Adieresis
Encoding: 196 196 97
Width: 4096
Flags: W
LayerCount: 2
Fore
SplineSet
0 0 m 1,0,-1
 0 4096 l 1,1,-1
 819 4096 l 1,2,-1
 819 2457 l 1,3,-1
 2457 2457 l 1,4,-1
 2457 4096 l 1,5,-1
 3276 4096 l 1,6,-1
 3276 0 l 1,7,-1
 2457 0 l 1,8,-1
 2457 1638 l 1,9,-1
 819 1638 l 1,10,-1
 819 0 l 1,11,-1
 0 0 l 1,0,-1
819 4096 m 1,12,-1
 819 4915 l 1,13,-1
 2457 4915 l 1,14,-1
 2457 4096 l 1,15,-1
 819 4096 l 1,12,-1
0 5734 m 1,16,-1
 0 6553 l 1,17,-1
 819 6553 l 1,18,-1
 819 5734 l 1,19,-1
 0 5734 l 1,16,-1
2457 5734 m 1,20,-1
 2457 6553 l 1,21,-1
 3276 6553 l 1,22,-1
 3276 5734 l 1,23,-1
 2457 5734 l 1,20,-1
EndSplineSet
Validated: 5
EndChar

StartChar: Aring
Encoding: 197 197 98
Width: 4096
Flags: W
LayerCount: 2
Fore
SplineSet
0 0 m 1,0,-1
 0 4096 l 1,1,-1
 819 4096 l 1,2,-1
 819 2457 l 1,3,-1
 2457 2457 l 1,4,-1
 2457 4096 l 1,5,-1
 3276 4096 l 1,6,-1
 3276 0 l 1,7,-1
 2457 0 l 1,8,-1
 2457 1638 l 1,9,-1
 819 1638 l 1,10,-1
 819 0 l 1,11,-1
 0 0 l 1,0,-1
819 4096 m 1,12,-1
 819 4915 l 1,13,-1
 2457 4915 l 1,14,-1
 2457 4096 l 1,15,-1
 819 4096 l 1,12,-1
819 5734 m 1,16,-1
 819 6553 l 1,17,-1
 2457 6553 l 1,18,-1
 2457 5734 l 1,19,-1
 819 5734 l 1,16,-1
0 6553 m 1,20,-1
 0 8192 l 1,21,-1
 819 8192 l 1,22,-1
 819 6553 l 1,23,-1
 0 6553 l 1,20,-1
2457 6553 m 1,24,-1
 2457 8192 l 1,25,-1
 3276 8192 l 1,26,-1
 3276 6553 l 1,27,-1
 2457 6553 l 1,24,-1
819 8192 m 1,28,-1
 819 9011 l 1,29,-1
 2457 9011 l 1,30,-1
 2457 8192 l 1,31,-1
 819 8192 l 1,28,-1
EndSplineSet
Validated: 5
EndChar

StartChar: AE
Encoding: 198 198 99
Width: 6553
Flags: W
LayerCount: 2
Fore
SplineSet
0 0 m 1,0,-1
 0 4096 l 1,1,-1
 819 4096 l 1,2,-1
 819 2457 l 1,3,-1
 2457 2457 l 1,4,-1
 2457 4096 l 1,5,-1
 819 4096 l 1,6,-1
 819 4915 l 1,7,-1
 5734 4915 l 1,8,-1
 5734 4096 l 1,9,-1
 3276 4096 l 1,10,-1
 3276 3276 l 1,11,-1
 5734 3276 l 1,12,-1
 5734 2457 l 1,13,-1
 3276 2457 l 1,14,-1
 3276 819 l 1,15,-1
 5734 819 l 1,16,-1
 5734 0 l 1,17,-1
 2457 0 l 1,18,-1
 2457 1638 l 1,19,-1
 819 1638 l 1,20,-1
 819 0 l 1,21,-1
 0 0 l 1,0,-1
EndSplineSet
Validated: 5
EndChar

StartChar: Ccedilla
Encoding: 199 199 100
Width: 4096
Flags: W
LayerCount: 2
Fore
SplineSet
819 -1638 m 1,0,-1
 819 -819 l 1,1,-1
 1638 -819 l 1,2,-1
 1638 -1638 l 1,3,-1
 819 -1638 l 1,0,-1
1638 -819 m 1,4,-1
 1638 0 l 1,5,-1
 819 0 l 1,6,-1
 819 819 l 1,7,-1
 2457 819 l 1,8,-1
 2457 -819 l 1,9,-1
 1638 -819 l 1,4,-1
2457 819 m 1,10,-1
 2457 1638 l 1,11,-1
 3276 1638 l 1,12,-1
 3276 819 l 1,13,-1
 2457 819 l 1,10,-1
0 819 m 1,14,-1
 0 4096 l 1,15,-1
 819 4096 l 1,16,-1
 819 819 l 1,17,-1
 0 819 l 1,14,-1
2457 3276 m 1,18,-1
 2457 4096 l 1,19,-1
 3276 4096 l 1,20,-1
 3276 3276 l 1,21,-1
 2457 3276 l 1,18,-1
819 4096 m 1,22,-1
 819 4915 l 1,23,-1
 2457 4915 l 1,24,-1
 2457 4096 l 1,25,-1
 819 4096 l 1,22,-1
EndSplineSet
Validated: 5
EndChar

StartChar: Egrave
Encoding: 200 200 101
Width: 4096
Flags: W
LayerCount: 2
Fore
SplineSet
0 0 m 1,0,-1
 0 4915 l 1,1,-1
 3276 4915 l 1,2,-1
 3276 4096 l 1,3,-1
 819 4096 l 1,4,-1
 819 3276 l 1,5,-1
 3276 3276 l 1,6,-1
 3276 2457 l 1,7,-1
 819 2457 l 1,8,-1
 819 819 l 1,9,-1
 3276 819 l 1,10,-1
 3276 0 l 1,11,-1
 0 0 l 1,0,-1
1638 5734 m 1,12,-1
 1638 6553 l 1,13,-1
 3276 6553 l 1,14,-1
 3276 5734 l 1,15,-1
 1638 5734 l 1,12,-1
0 6553 m 1,16,-1
 0 7372 l 1,17,-1
 1638 7372 l 1,18,-1
 1638 6553 l 1,19,-1
 0 6553 l 1,16,-1
EndSplineSet
Validated: 5
EndChar

StartChar: Eacute
Encoding: 201 201 102
Width: 4096
Flags: W
LayerCount: 2
Fore
SplineSet
0 0 m 1,0,-1
 0 4915 l 1,1,-1
 3276 4915 l 1,2,-1
 3276 4096 l 1,3,-1
 819 4096 l 1,4,-1
 819 3276 l 1,5,-1
 3276 3276 l 1,6,-1
 3276 2457 l 1,7,-1
 819 2457 l 1,8,-1
 819 819 l 1,9,-1
 3276 819 l 1,10,-1
 3276 0 l 1,11,-1
 0 0 l 1,0,-1
0 5734 m 1,12,-1
 0 6553 l 1,13,-1
 1638 6553 l 1,14,-1
 1638 5734 l 1,15,-1
 0 5734 l 1,12,-1
1638 6553 m 1,16,-1
 1638 7372 l 1,17,-1
 3276 7372 l 1,18,-1
 3276 6553 l 1,19,-1
 1638 6553 l 1,16,-1
EndSplineSet
Validated: 5
EndChar

StartChar: Ecircumflex
Encoding: 202 202 103
Width: 4096
Flags: W
LayerCount: 2
Fore
SplineSet
0 0 m 1,0,-1
 0 4915 l 1,1,-1
 3276 4915 l 1,2,-1
 3276 4096 l 1,3,-1
 819 4096 l 1,4,-1
 819 3276 l 1,5,-1
 3276 3276 l 1,6,-1
 3276 2457 l 1,7,-1
 819 2457 l 1,8,-1
 819 819 l 1,9,-1
 3276 819 l 1,10,-1
 3276 0 l 1,11,-1
 0 0 l 1,0,-1
0 5734 m 1,12,-1
 0 6553 l 1,13,-1
 819 6553 l 1,14,-1
 819 5734 l 1,15,-1
 0 5734 l 1,12,-1
2457 5734 m 1,16,-1
 2457 6553 l 1,17,-1
 3276 6553 l 1,18,-1
 3276 5734 l 1,19,-1
 2457 5734 l 1,16,-1
819 6553 m 1,20,-1
 819 7372 l 1,21,-1
 2457 7372 l 1,22,-1
 2457 6553 l 1,23,-1
 819 6553 l 1,20,-1
EndSplineSet
Validated: 5
EndChar

StartChar: Edieresis
Encoding: 203 203 104
Width: 4096
Flags: W
LayerCount: 2
Fore
SplineSet
0 0 m 1,0,-1
 0 4915 l 1,1,-1
 3276 4915 l 1,2,-1
 3276 4096 l 1,3,-1
 819 4096 l 1,4,-1
 819 3276 l 1,5,-1
 3276 3276 l 1,6,-1
 3276 2457 l 1,7,-1
 819 2457 l 1,8,-1
 819 819 l 1,9,-1
 3276 819 l 1,10,-1
 3276 0 l 1,11,-1
 0 0 l 1,0,-1
0 5734 m 1,12,-1
 0 6553 l 1,13,-1
 819 6553 l 1,14,-1
 819 5734 l 1,15,-1
 0 5734 l 1,12,-1
2457 5734 m 1,16,-1
 2457 6553 l 1,17,-1
 3276 6553 l 1,18,-1
 3276 5734 l 1,19,-1
 2457 5734 l 1,16,-1
EndSplineSet
Validated: 1
EndChar

StartChar: Igrave
Encoding: 204 204 105
Width: 2457
Flags: W
LayerCount: 2
Fore
SplineSet
819 0 m 1,0,-1
 819 4915 l 1,1,-1
 1638 4915 l 1,2,-1
 1638 0 l 1,3,-1
 819 0 l 1,0,-1
819 5734 m 1,4,-1
 819 6553 l 1,5,-1
 1638 6553 l 1,6,-1
 1638 5734 l 1,7,-1
 819 5734 l 1,4,-1
0 6553 m 1,8,-1
 0 7372 l 1,9,-1
 819 7372 l 1,10,-1
 819 6553 l 1,11,-1
 0 6553 l 1,8,-1
EndSplineSet
Validated: 5
EndChar

StartChar: Iacute
Encoding: 205 205 106
Width: 2457
Flags: W
LayerCount: 2
Fore
SplineSet
0 0 m 1,0,-1
 0 4915 l 1,1,-1
 819 4915 l 1,2,-1
 819 0 l 1,3,-1
 0 0 l 1,0,-1
0 5734 m 1,4,-1
 0 6553 l 1,5,-1
 819 6553 l 1,6,-1
 819 5734 l 1,7,-1
 0 5734 l 1,4,-1
819 6553 m 1,8,-1
 819 7372 l 1,9,-1
 1638 7372 l 1,10,-1
 1638 6553 l 1,11,-1
 819 6553 l 1,8,-1
EndSplineSet
Validated: 5
EndChar

StartChar: Icircumflex
Encoding: 206 206 107
Width: 3276
Flags: W
LayerCount: 2
Fore
SplineSet
819 0 m 1,0,-1
 819 4915 l 1,1,-1
 1638 4915 l 1,2,-1
 1638 0 l 1,3,-1
 819 0 l 1,0,-1
0 5734 m 1,4,-1
 0 6553 l 1,5,-1
 819 6553 l 1,6,-1
 819 5734 l 1,7,-1
 0 5734 l 1,4,-1
1638 5734 m 1,8,-1
 1638 6553 l 1,9,-1
 2457 6553 l 1,10,-1
 2457 5734 l 1,11,-1
 1638 5734 l 1,8,-1
819 6553 m 1,12,-1
 819 7372 l 1,13,-1
 1638 7372 l 1,14,-1
 1638 6553 l 1,15,-1
 819 6553 l 1,12,-1
EndSplineSet
Validated: 5
EndChar

StartChar: Idieresis
Encoding: 207 207 108
Width: 3276
Flags: W
LayerCount: 2
Fore
SplineSet
819 0 m 1,0,-1
 819 4915 l 1,1,-1
 1638 4915 l 1,2,-1
 1638 0 l 1,3,-1
 819 0 l 1,0,-1
0 5734 m 1,4,-1
 0 6553 l 1,5,-1
 819 6553 l 1,6,-1
 819 5734 l 1,7,-1
 0 5734 l 1,4,-1
1638 5734 m 1,8,-1
 1638 6553 l 1,9,-1
 2457 6553 l 1,10,-1
 2457 5734 l 1,11,-1
 1638 5734 l 1,8,-1
EndSplineSet
Validated: 1
EndChar

StartChar: Eth
Encoding: 208 208 109
Width: 4915
Flags: W
LayerCount: 2
Fore
SplineSet
3276 819 m 1,0,-1
 3276 4096 l 1,1,-1
 4096 4096 l 1,2,-1
 4096 819 l 1,3,-1
 3276 819 l 1,0,-1
819 0 m 1,4,-1
 819 2457 l 1,5,-1
 0 2457 l 1,6,-1
 0 3276 l 1,7,-1
 819 3276 l 1,8,-1
 819 4915 l 1,9,-1
 3276 4915 l 1,10,-1
 3276 4096 l 1,11,-1
 1638 4096 l 1,12,-1
 1638 3276 l 1,13,-1
 2457 3276 l 1,14,-1
 2457 2457 l 1,15,-1
 1638 2457 l 1,16,-1
 1638 819 l 1,17,-1
 3276 819 l 1,18,-1
 3276 0 l 1,19,-1
 819 0 l 1,4,-1
EndSplineSet
Validated: 5
EndChar

StartChar: Ntilde
Encoding: 209 209 110
Width: 4096
Flags: W
LayerCount: 2
Fore
SplineSet
0 0 m 1,0,-1
 0 4915 l 1,1,-1
 819 4915 l 1,2,-1
 819 4096 l 1,3,-1
 1638 4096 l 1,4,-1
 1638 3276 l 1,5,-1
 819 3276 l 1,6,-1
 819 0 l 1,7,-1
 0 0 l 1,0,-1
2457 0 m 1,8,-1
 2457 2457 l 1,9,-1
 1638 2457 l 1,10,-1
 1638 3276 l 1,11,-1
 2457 3276 l 1,12,-1
 2457 4915 l 1,13,-1
 3276 4915 l 1,14,-1
 3276 0 l 1,15,-1
 2457 0 l 1,8,-1
0 5734 m 1,16,-1
 0 6553 l 1,17,-1
 819 6553 l 1,18,-1
 819 5734 l 1,19,-1
 0 5734 l 1,16,-1
1638 5734 m 1,20,-1
 1638 6553 l 1,21,-1
 2457 6553 l 1,22,-1
 2457 5734 l 1,23,-1
 1638 5734 l 1,20,-1
819 6553 m 1,24,-1
 819 7372 l 1,25,-1
 1638 7372 l 1,26,-1
 1638 6553 l 1,27,-1
 819 6553 l 1,24,-1
2457 6553 m 1,28,-1
 2457 7372 l 1,29,-1
 3276 7372 l 1,30,-1
 3276 6553 l 1,31,-1
 2457 6553 l 1,28,-1
EndSplineSet
Validated: 5
EndChar

StartChar: Ograve
Encoding: 210 210 111
Width: 4096
Flags: W
LayerCount: 2
Fore
SplineSet
819 0 m 1,0,-1
 819 819 l 1,1,-1
 2457 819 l 1,2,-1
 2457 0 l 1,3,-1
 819 0 l 1,0,-1
0 819 m 1,4,-1
 0 4096 l 1,5,-1
 819 4096 l 1,6,-1
 819 819 l 1,7,-1
 0 819 l 1,4,-1
2457 819 m 1,8,-1
 2457 4096 l 1,9,-1
 3276 4096 l 1,10,-1
 3276 819 l 1,11,-1
 2457 819 l 1,8,-1
819 4096 m 1,12,-1
 819 4915 l 1,13,-1
 2457 4915 l 1,14,-1
 2457 4096 l 1,15,-1
 819 4096 l 1,12,-1
1638 5734 m 1,16,-1
 1638 6553 l 1,17,-1
 3276 6553 l 1,18,-1
 3276 5734 l 1,19,-1
 1638 5734 l 1,16,-1
0 6553 m 1,20,-1
 0 7372 l 1,21,-1
 1638 7372 l 1,22,-1
 1638 6553 l 1,23,-1
 0 6553 l 1,20,-1
EndSplineSet
Validated: 5
EndChar

StartChar: Oacute
Encoding: 211 211 112
Width: 4096
Flags: W
LayerCount: 2
Fore
SplineSet
819 0 m 1,0,-1
 819 819 l 1,1,-1
 2457 819 l 1,2,-1
 2457 0 l 1,3,-1
 819 0 l 1,0,-1
0 819 m 1,4,-1
 0 4096 l 1,5,-1
 819 4096 l 1,6,-1
 819 819 l 1,7,-1
 0 819 l 1,4,-1
2457 819 m 1,8,-1
 2457 4096 l 1,9,-1
 3276 4096 l 1,10,-1
 3276 819 l 1,11,-1
 2457 819 l 1,8,-1
819 4096 m 1,12,-1
 819 4915 l 1,13,-1
 2457 4915 l 1,14,-1
 2457 4096 l 1,15,-1
 819 4096 l 1,12,-1
0 5734 m 1,16,-1
 0 6553 l 1,17,-1
 1638 6553 l 1,18,-1
 1638 5734 l 1,19,-1
 0 5734 l 1,16,-1
1638 6553 m 1,20,-1
 1638 7372 l 1,21,-1
 3276 7372 l 1,22,-1
 3276 6553 l 1,23,-1
 1638 6553 l 1,20,-1
EndSplineSet
Validated: 5
EndChar

StartChar: Thorn
Encoding: 222 222 113
Width: 4096
Flags: W
LayerCount: 2
Fore
SplineSet
2457 2457 m 1,0,-1
 2457 3276 l 1,1,-1
 819 3276 l 1,2,-1
 819 2457 l 1,3,-1
 2457 2457 l 1,0,-1
0 0 m 1,4,-1
 0 4915 l 1,5,-1
 819 4915 l 1,6,-1
 819 4096 l 1,7,-1
 3276 4096 l 1,8,-1
 3276 1638 l 1,9,-1
 819 1638 l 1,10,-1
 819 0 l 1,11,-1
 0 0 l 1,4,-1
EndSplineSet
Validated: 1
EndChar

StartChar: germandbls
Encoding: 223 223 114
Width: 4096
Flags: W
LayerCount: 2
Fore
SplineSet
1638 0 m 1,0,-1
 1638 819 l 1,1,-1
 2457 819 l 1,2,-1
 2457 0 l 1,3,-1
 1638 0 l 1,0,-1
2457 819 m 1,4,-1
 2457 1638 l 1,5,-1
 1638 1638 l 1,6,-1
 1638 3276 l 1,7,-1
 2457 3276 l 1,8,-1
 2457 2457 l 1,9,-1
 3276 2457 l 1,10,-1
 3276 819 l 1,11,-1
 2457 819 l 1,4,-1
0 0 m 1,12,-1
 0 4096 l 1,13,-1
 819 4096 l 1,14,-1
 819 0 l 1,15,-1
 0 0 l 1,12,-1
2457 3276 m 1,16,-1
 2457 4096 l 1,17,-1
 3276 4096 l 1,18,-1
 3276 3276 l 1,19,-1
 2457 3276 l 1,16,-1
819 4096 m 1,20,-1
 819 4915 l 1,21,-1
 2457 4915 l 1,22,-1
 2457 4096 l 1,23,-1
 819 4096 l 1,20,-1
EndSplineSet
Validated: 5
EndChar

StartChar: adieresis
Encoding: 228 228 115
Width: 4096
Flags: W
LayerCount: 2
Fore
SplineSet
2457 819 m 1,0,-1
 2457 1638 l 1,1,-1
 819 1638 l 1,2,-1
 819 819 l 1,3,-1
 2457 819 l 1,0,-1
0 0 m 1,4,-1
 0 2457 l 1,5,-1
 2457 2457 l 1,6,-1
 2457 3276 l 1,7,-1
 3276 3276 l 1,8,-1
 3276 0 l 1,9,-1
 0 0 l 1,4,-1
0 3276 m 1,10,-1
 0 4096 l 1,11,-1
 2457 4096 l 1,12,-1
 2457 3276 l 1,13,-1
 0 3276 l 1,10,-1
0 4915 m 1,14,-1
 0 5734 l 1,15,-1
 819 5734 l 1,16,-1
 819 4915 l 1,17,-1
 0 4915 l 1,14,-1
2457 4915 m 1,18,-1
 2457 5734 l 1,19,-1
 3276 5734 l 1,20,-1
 3276 4915 l 1,21,-1
 2457 4915 l 1,18,-1
EndSplineSet
Validated: 5
EndChar

StartChar: aring
Encoding: 229 229 116
Width: 4096
Flags: W
LayerCount: 2
Fore
SplineSet
2457 819 m 1,0,-1
 2457 1638 l 1,1,-1
 819 1638 l 1,2,-1
 819 819 l 1,3,-1
 2457 819 l 1,0,-1
0 0 m 1,4,-1
 0 2457 l 1,5,-1
 2457 2457 l 1,6,-1
 2457 3276 l 1,7,-1
 3276 3276 l 1,8,-1
 3276 0 l 1,9,-1
 0 0 l 1,4,-1
0 3276 m 1,10,-1
 0 4096 l 1,11,-1
 2457 4096 l 1,12,-1
 2457 3276 l 1,13,-1
 0 3276 l 1,10,-1
819 4915 m 1,14,-1
 819 5734 l 1,15,-1
 2457 5734 l 1,16,-1
 2457 4915 l 1,17,-1
 819 4915 l 1,14,-1
0 5734 m 1,18,-1
 0 7372 l 1,19,-1
 819 7372 l 1,20,-1
 819 5734 l 1,21,-1
 0 5734 l 1,18,-1
2457 5734 m 1,22,-1
 2457 7372 l 1,23,-1
 3276 7372 l 1,24,-1
 3276 5734 l 1,25,-1
 2457 5734 l 1,22,-1
819 7372 m 1,26,-1
 819 8192 l 1,27,-1
 2457 8192 l 1,28,-1
 2457 7372 l 1,29,-1
 819 7372 l 1,26,-1
EndSplineSet
Validated: 5
EndChar

StartChar: ae
Encoding: 230 230 117
Width: 6553
Flags: W
LayerCount: 2
Fore
SplineSet
2457 819 m 1,0,-1
 2457 1638 l 1,1,-1
 819 1638 l 1,2,-1
 819 819 l 1,3,-1
 2457 819 l 1,0,-1
4915 2457 m 1,4,-1
 4915 3276 l 1,5,-1
 3276 3276 l 1,6,-1
 3276 2457 l 1,7,-1
 4915 2457 l 1,4,-1
0 0 m 1,8,-1
 0 2457 l 1,9,-1
 2457 2457 l 1,10,-1
 2457 3276 l 1,11,-1
 0 3276 l 1,12,-1
 0 4096 l 1,13,-1
 5734 4096 l 1,14,-1
 5734 1638 l 1,15,-1
 3276 1638 l 1,16,-1
 3276 819 l 1,17,-1
 5734 819 l 1,18,-1
 5734 0 l 1,19,-1
 0 0 l 1,8,-1
EndSplineSet
Validated: 1
EndChar

StartChar: ccedilla
Encoding: 231 231 118
Width: 4096
Flags: W
LayerCount: 2
Fore
SplineSet
819 -1638 m 1,0,-1
 819 -819 l 1,1,-1
 1638 -819 l 1,2,-1
 1638 -1638 l 1,3,-1
 819 -1638 l 1,0,-1
1638 -819 m 1,4,-1
 1638 0 l 1,5,-1
 819 0 l 1,6,-1
 819 819 l 1,7,-1
 2457 819 l 1,8,-1
 2457 -819 l 1,9,-1
 1638 -819 l 1,4,-1
2457 819 m 1,10,-1
 2457 1638 l 1,11,-1
 3276 1638 l 1,12,-1
 3276 819 l 1,13,-1
 2457 819 l 1,10,-1
0 819 m 1,14,-1
 0 3276 l 1,15,-1
 819 3276 l 1,16,-1
 819 819 l 1,17,-1
 0 819 l 1,14,-1
2457 2457 m 1,18,-1
 2457 3276 l 1,19,-1
 3276 3276 l 1,20,-1
 3276 2457 l 1,21,-1
 2457 2457 l 1,18,-1
819 3276 m 1,22,-1
 819 4096 l 1,23,-1
 2457 4096 l 1,24,-1
 2457 3276 l 1,25,-1
 819 3276 l 1,22,-1
EndSplineSet
Validated: 5
EndChar

StartChar: egrave
Encoding: 232 232 119
Width: 4096
Flags: W
LayerCount: 2
Fore
SplineSet
2457 2457 m 1,0,-1
 2457 3276 l 1,1,-1
 819 3276 l 1,2,-1
 819 2457 l 1,3,-1
 2457 2457 l 1,0,-1
0 0 m 1,4,-1
 0 4096 l 1,5,-1
 3276 4096 l 1,6,-1
 3276 1638 l 1,7,-1
 819 1638 l 1,8,-1
 819 819 l 1,9,-1
 3276 819 l 1,10,-1
 3276 0 l 1,11,-1
 0 0 l 1,4,-1
1638 4915 m 1,12,-1
 1638 5734 l 1,13,-1
 3276 5734 l 1,14,-1
 3276 4915 l 1,15,-1
 1638 4915 l 1,12,-1
0 5734 m 1,16,-1
 0 6553 l 1,17,-1
 1638 6553 l 1,18,-1
 1638 5734 l 1,19,-1
 0 5734 l 1,16,-1
EndSplineSet
Validated: 5
EndChar

StartChar: eacute
Encoding: 233 233 120
Width: 4096
Flags: W
LayerCount: 2
Fore
SplineSet
2457 2457 m 1,0,-1
 2457 3276 l 1,1,-1
 819 3276 l 1,2,-1
 819 2457 l 1,3,-1
 2457 2457 l 1,0,-1
0 0 m 1,4,-1
 0 4096 l 1,5,-1
 3276 4096 l 1,6,-1
 3276 1638 l 1,7,-1
 819 1638 l 1,8,-1
 819 819 l 1,9,-1
 3276 819 l 1,10,-1
 3276 0 l 1,11,-1
 0 0 l 1,4,-1
0 4915 m 1,12,-1
 0 5734 l 1,13,-1
 1638 5734 l 1,14,-1
 1638 4915 l 1,15,-1
 0 4915 l 1,12,-1
1638 5734 m 1,16,-1
 1638 6553 l 1,17,-1
 3276 6553 l 1,18,-1
 3276 5734 l 1,19,-1
 1638 5734 l 1,16,-1
EndSplineSet
Validated: 5
EndChar

StartChar: igrave
Encoding: 236 236 121
Width: 2457
Flags: W
LayerCount: 2
Fore
SplineSet
819 0 m 1,0,-1
 819 4096 l 1,1,-1
 1638 4096 l 1,2,-1
 1638 0 l 1,3,-1
 819 0 l 1,0,-1
819 4915 m 1,4,-1
 819 5734 l 1,5,-1
 1638 5734 l 1,6,-1
 1638 4915 l 1,7,-1
 819 4915 l 1,4,-1
0 5734 m 1,8,-1
 0 6553 l 1,9,-1
 819 6553 l 1,10,-1
 819 5734 l 1,11,-1
 0 5734 l 1,8,-1
EndSplineSet
Validated: 5
EndChar

StartChar: iacute
Encoding: 237 237 122
Width: 2457
Flags: W
LayerCount: 2
Fore
SplineSet
0 0 m 1,0,-1
 0 4096 l 1,1,-1
 819 4096 l 1,2,-1
 819 0 l 1,3,-1
 0 0 l 1,0,-1
0 4915 m 1,4,-1
 0 5734 l 1,5,-1
 819 5734 l 1,6,-1
 819 4915 l 1,7,-1
 0 4915 l 1,4,-1
819 5734 m 1,8,-1
 819 6553 l 1,9,-1
 1638 6553 l 1,10,-1
 1638 5734 l 1,11,-1
 819 5734 l 1,8,-1
EndSplineSet
Validated: 5
EndChar

StartChar: idieresis
Encoding: 239 239 123
Width: 3276
Flags: W
LayerCount: 2
Fore
SplineSet
819 0 m 1,0,-1
 819 4096 l 1,1,-1
 1638 4096 l 1,2,-1
 1638 0 l 1,3,-1
 819 0 l 1,0,-1
0 4915 m 1,4,-1
 0 5734 l 1,5,-1
 819 5734 l 1,6,-1
 819 4915 l 1,7,-1
 0 4915 l 1,4,-1
1638 4915 m 1,8,-1
 1638 5734 l 1,9,-1
 2457 5734 l 1,10,-1
 2457 4915 l 1,11,-1
 1638 4915 l 1,8,-1
EndSplineSet
Validated: 1
EndChar

StartChar: eth
Encoding: 240 240 124
Width: 4096
Flags: W
LayerCount: 2
Fore
SplineSet
2457 819 m 1,0,-1
 2457 1638 l 1,1,-1
 819 1638 l 1,2,-1
 819 819 l 1,3,-1
 2457 819 l 1,0,-1
0 0 m 1,4,-1
 0 2457 l 1,5,-1
 2457 2457 l 1,6,-1
 2457 4096 l 1,7,-1
 1638 4096 l 1,8,-1
 1638 3276 l 1,9,-1
 819 3276 l 1,10,-1
 819 4096 l 1,11,-1
 0 4096 l 1,12,-1
 0 4915 l 1,13,-1
 819 4915 l 1,14,-1
 819 5734 l 1,15,-1
 1638 5734 l 1,16,-1
 1638 4915 l 1,17,-1
 3276 4915 l 1,18,-1
 3276 0 l 1,19,-1
 0 0 l 1,4,-1
EndSplineSet
Validated: 1
EndChar

StartChar: ntilde
Encoding: 241 241 125
Width: 4096
Flags: W
LayerCount: 2
Fore
SplineSet
0 0 m 1,0,-1
 0 4096 l 1,1,-1
 819 4096 l 1,2,-1
 819 3276 l 1,3,-1
 1638 3276 l 1,4,-1
 1638 2457 l 1,5,-1
 819 2457 l 1,6,-1
 819 0 l 1,7,-1
 0 0 l 1,0,-1
2457 0 m 1,8,-1
 2457 1638 l 1,9,-1
 1638 1638 l 1,10,-1
 1638 2457 l 1,11,-1
 2457 2457 l 1,12,-1
 2457 4096 l 1,13,-1
 3276 4096 l 1,14,-1
 3276 0 l 1,15,-1
 2457 0 l 1,8,-1
0 4915 m 1,16,-1
 0 5734 l 1,17,-1
 819 5734 l 1,18,-1
 819 4915 l 1,19,-1
 0 4915 l 1,16,-1
1638 4915 m 1,20,-1
 1638 5734 l 1,21,-1
 2457 5734 l 1,22,-1
 2457 4915 l 1,23,-1
 1638 4915 l 1,20,-1
819 5734 m 1,24,-1
 819 6553 l 1,25,-1
 1638 6553 l 1,26,-1
 1638 5734 l 1,27,-1
 819 5734 l 1,24,-1
2457 5734 m 1,28,-1
 2457 6553 l 1,29,-1
 3276 6553 l 1,30,-1
 3276 5734 l 1,31,-1
 2457 5734 l 1,28,-1
EndSplineSet
Validated: 5
EndChar

StartChar: thorn
Encoding: 254 254 126
Width: 4096
Flags: W
LayerCount: 2
Fore
SplineSet
2457 1638 m 1,0,-1
 2457 2457 l 1,1,-1
 819 2457 l 1,2,-1
 819 1638 l 1,3,-1
 2457 1638 l 1,0,-1
0 0 m 1,4,-1
 0 4096 l 1,5,-1
 819 4096 l 1,6,-1
 819 3276 l 1,7,-1
 3276 3276 l 1,8,-1
 3276 819 l 1,9,-1
 819 819 l 1,10,-1
 819 0 l 1,11,-1
 0 0 l 1,4,-1
EndSplineSet
Validated: 1
EndChar

StartChar: Emacron
Encoding: 274 274 127
Width: 4096
Flags: W
LayerCount: 2
Fore
SplineSet
0 0 m 1,0,-1
 0 4915 l 1,1,-1
 3276 4915 l 1,2,-1
 3276 4096 l 1,3,-1
 819 4096 l 1,4,-1
 819 3276 l 1,5,-1
 3276 3276 l 1,6,-1
 3276 2457 l 1,7,-1
 819 2457 l 1,8,-1
 819 819 l 1,9,-1
 3276 819 l 1,10,-1
 3276 0 l 1,11,-1
 0 0 l 1,0,-1
0 5734 m 1,12,-1
 0 6553 l 1,13,-1
 3276 6553 l 1,14,-1
 3276 5734 l 1,15,-1
 0 5734 l 1,12,-1
EndSplineSet
Validated: 1
EndChar

StartChar: emacron
Encoding: 275 275 128
Width: 4096
Flags: W
LayerCount: 2
Fore
SplineSet
2457 2457 m 1,0,-1
 2457 3276 l 1,1,-1
 819 3276 l 1,2,-1
 819 2457 l 1,3,-1
 2457 2457 l 1,0,-1
0 0 m 1,4,-1
 0 4096 l 1,5,-1
 3276 4096 l 1,6,-1
 3276 1638 l 1,7,-1
 819 1638 l 1,8,-1
 819 819 l 1,9,-1
 3276 819 l 1,10,-1
 3276 0 l 1,11,-1
 0 0 l 1,4,-1
0 4915 m 1,12,-1
 0 5734 l 1,13,-1
 3276 5734 l 1,14,-1
 3276 4915 l 1,15,-1
 0 4915 l 1,12,-1
EndSplineSet
Validated: 1
EndChar

StartChar: Idotaccent
Encoding: 304 304 129
Width: 1638
Flags: W
LayerCount: 2
Fore
SplineSet
0 0 m 1,0,-1
 0 4915 l 1,1,-1
 819 4915 l 1,2,-1
 819 0 l 1,3,-1
 0 0 l 1,0,-1
0 5734 m 1,4,-1
 0 6553 l 1,5,-1
 819 6553 l 1,6,-1
 819 5734 l 1,7,-1
 0 5734 l 1,4,-1
EndSplineSet
Validated: 1
EndChar

StartChar: dotlessi
Encoding: 305 305 130
Width: 1638
Flags: W
LayerCount: 2
Fore
SplineSet
0 0 m 1,0,-1
 0 2457 l 1,1,-1
 819 2457 l 1,2,-1
 819 0 l 1,3,-1
 0 0 l 1,0,-1
EndSplineSet
Validated: 1
EndChar

StartChar: uni0190
Encoding: 400 400 131
Width: 4096
Flags: W
LayerCount: 2
Fore
SplineSet
819 0 m 1,0,-1
 819 819 l 1,1,-1
 3276 819 l 1,2,-1
 3276 0 l 1,3,-1
 819 0 l 1,0,-1
0 819 m 1,4,-1
 0 1638 l 1,5,-1
 819 1638 l 1,6,-1
 819 819 l 1,7,-1
 0 819 l 1,4,-1
819 1638 m 1,8,-1
 819 2457 l 1,9,-1
 3276 2457 l 1,10,-1
 3276 1638 l 1,11,-1
 819 1638 l 1,8,-1
0 2457 m 1,12,-1
 0 3276 l 1,13,-1
 819 3276 l 1,14,-1
 819 2457 l 1,15,-1
 0 2457 l 1,12,-1
819 3276 m 1,16,-1
 819 4096 l 1,17,-1
 3276 4096 l 1,18,-1
 3276 3276 l 1,19,-1
 819 3276 l 1,16,-1
EndSplineSet
Validated: 5
EndChar

StartChar: uni0197
Encoding: 407 407 132
Width: 3276
Flags: W
LayerCount: 2
Fore
SplineSet
819 0 m 1,0,-1
 819 2457 l 1,1,-1
 0 2457 l 1,2,-1
 0 3276 l 1,3,-1
 819 3276 l 1,4,-1
 819 4915 l 1,5,-1
 1638 4915 l 1,6,-1
 1638 3276 l 1,7,-1
 2457 3276 l 1,8,-1
 2457 2457 l 1,9,-1
 1638 2457 l 1,10,-1
 1638 0 l 1,11,-1
 819 0 l 1,0,-1
EndSplineSet
Validated: 1
EndChar

StartChar: uni019A
Encoding: 410 410 133
Width: 3276
Flags: W
LayerCount: 2
Fore
SplineSet
819 0 m 1,0,-1
 819 1638 l 1,1,-1
 0 1638 l 1,2,-1
 0 2457 l 1,3,-1
 819 2457 l 1,4,-1
 819 4096 l 1,5,-1
 1638 4096 l 1,6,-1
 1638 2457 l 1,7,-1
 2457 2457 l 1,8,-1
 2457 1638 l 1,9,-1
 1638 1638 l 1,10,-1
 1638 0 l 1,11,-1
 819 0 l 1,0,-1
EndSplineSet
Validated: 1
EndChar

StartChar: uni019F
Encoding: 415 415 134
Width: 4096
Flags: W
LayerCount: 2
Fore
SplineSet
819 0 m 1,0,-1
 819 819 l 1,1,-1
 2457 819 l 1,2,-1
 2457 0 l 1,3,-1
 819 0 l 1,0,-1
0 819 m 1,4,-1
 0 4096 l 1,5,-1
 819 4096 l 1,6,-1
 819 3276 l 1,7,-1
 2457 3276 l 1,8,-1
 2457 4096 l 1,9,-1
 3276 4096 l 1,10,-1
 3276 819 l 1,11,-1
 2457 819 l 1,12,-1
 2457 2457 l 1,13,-1
 819 2457 l 1,14,-1
 819 819 l 1,15,-1
 0 819 l 1,4,-1
819 4096 m 1,16,-1
 819 4915 l 1,17,-1
 2457 4915 l 1,18,-1
 2457 4096 l 1,19,-1
 819 4096 l 1,16,-1
EndSplineSet
Validated: 5
EndChar

StartChar: Ohorn
Encoding: 416 416 135
Width: 4915
Flags: W
LayerCount: 2
Fore
SplineSet
819 0 m 1,0,-1
 819 819 l 1,1,-1
 2457 819 l 1,2,-1
 2457 0 l 1,3,-1
 819 0 l 1,0,-1
0 819 m 1,4,-1
 0 4096 l 1,5,-1
 819 4096 l 1,6,-1
 819 819 l 1,7,-1
 0 819 l 1,4,-1
2457 819 m 1,8,-1
 2457 4096 l 1,9,-1
 3276 4096 l 1,10,-1
 3276 819 l 1,11,-1
 2457 819 l 1,8,-1
819 4096 m 1,12,-1
 819 4915 l 1,13,-1
 2457 4915 l 1,14,-1
 2457 4096 l 1,15,-1
 819 4096 l 1,12,-1
3276 4096 m 1,16,-1
 3276 4915 l 1,17,-1
 4096 4915 l 1,18,-1
 4096 4096 l 1,19,-1
 3276 4096 l 1,16,-1
EndSplineSet
Validated: 5
EndChar

StartChar: ohorn
Encoding: 417 417 136
Width: 4915
Flags: W
LayerCount: 2
Fore
SplineSet
819 0 m 1,0,-1
 819 819 l 1,1,-1
 2457 819 l 1,2,-1
 2457 0 l 1,3,-1
 819 0 l 1,0,-1
0 819 m 1,4,-1
 0 3276 l 1,5,-1
 819 3276 l 1,6,-1
 819 819 l 1,7,-1
 0 819 l 1,4,-1
2457 819 m 1,8,-1
 2457 3276 l 1,9,-1
 3276 3276 l 1,10,-1
 3276 819 l 1,11,-1
 2457 819 l 1,8,-1
819 3276 m 1,12,-1
 819 4096 l 1,13,-1
 2457 4096 l 1,14,-1
 2457 3276 l 1,15,-1
 819 3276 l 1,12,-1
3276 3276 m 1,16,-1
 3276 4096 l 1,17,-1
 4096 4096 l 1,18,-1
 4096 3276 l 1,19,-1
 3276 3276 l 1,16,-1
EndSplineSet
Validated: 5
EndChar

StartChar: uni01A4
Encoding: 420 420 137
Width: 5734
Flags: W
LayerCount: 2
Fore
SplineSet
4096 3276 m 1,0,-1
 4096 4096 l 1,1,-1
 2457 4096 l 1,2,-1
 2457 3276 l 1,3,-1
 4096 3276 l 1,0,-1
1638 0 m 1,4,-1
 1638 4096 l 1,5,-1
 819 4096 l 1,6,-1
 819 3276 l 1,7,-1
 0 3276 l 1,8,-1
 0 4915 l 1,9,-1
 4915 4915 l 1,10,-1
 4915 2457 l 1,11,-1
 2457 2457 l 1,12,-1
 2457 0 l 1,13,-1
 1638 0 l 1,4,-1
EndSplineSet
Validated: 1
EndChar

StartChar: uni01DD
Encoding: 477 477 138
Width: 4096
Flags: W
LayerCount: 2
Fore
SplineSet
2457 819 m 1,0,-1
 2457 1638 l 1,1,-1
 819 1638 l 1,2,-1
 819 819 l 1,3,-1
 2457 819 l 1,0,-1
0 0 m 1,4,-1
 0 2457 l 1,5,-1
 2457 2457 l 1,6,-1
 2457 3276 l 1,7,-1
 0 3276 l 1,8,-1
 0 4096 l 1,9,-1
 3276 4096 l 1,10,-1
 3276 0 l 1,11,-1
 0 0 l 1,4,-1
EndSplineSet
Validated: 1
EndChar

StartChar: uni01F1
Encoding: 497 497 139
Width: 8191
Flags: W
LayerCount: 2
Fore
SplineSet
4096 0 m 1,0,-1
 4096 2457 l 1,1,-1
 4915 2457 l 1,2,-1
 4915 819 l 1,3,-1
 7372 819 l 1,4,-1
 7372 0 l 1,5,-1
 4096 0 l 1,0,-1
4915 2457 m 1,6,-1
 4915 3276 l 1,7,-1
 5734 3276 l 1,8,-1
 5734 2457 l 1,9,-1
 4915 2457 l 1,6,-1
2457 819 m 1,10,-1
 2457 4096 l 1,11,-1
 3276 4096 l 1,12,-1
 3276 819 l 1,13,-1
 2457 819 l 1,10,-1
0 0 m 1,14,-1
 0 4915 l 1,15,-1
 2457 4915 l 1,16,-1
 2457 4096 l 1,17,-1
 819 4096 l 1,18,-1
 819 819 l 1,19,-1
 2457 819 l 1,20,-1
 2457 0 l 1,21,-1
 0 0 l 1,14,-1
5734 3276 m 1,22,-1
 5734 4096 l 1,23,-1
 4096 4096 l 1,24,-1
 4096 4915 l 1,25,-1
 7372 4915 l 1,26,-1
 7372 4096 l 1,27,-1
 6553 4096 l 1,28,-1
 6553 3276 l 1,29,-1
 5734 3276 l 1,22,-1
EndSplineSet
Validated: 5
EndChar

StartChar: uni01F2
Encoding: 498 498 140
Width: 8191
Flags: W
LayerCount: 2
Fore
SplineSet
4096 0 m 1,0,-1
 4096 1638 l 1,1,-1
 4915 1638 l 1,2,-1
 4915 819 l 1,3,-1
 7372 819 l 1,4,-1
 7372 0 l 1,5,-1
 4096 0 l 1,0,-1
4915 1638 m 1,6,-1
 4915 2457 l 1,7,-1
 5734 2457 l 1,8,-1
 5734 1638 l 1,9,-1
 4915 1638 l 1,6,-1
2457 819 m 1,10,-1
 2457 4096 l 1,11,-1
 3276 4096 l 1,12,-1
 3276 819 l 1,13,-1
 2457 819 l 1,10,-1
5734 2457 m 1,14,-1
 5734 3276 l 1,15,-1
 4096 3276 l 1,16,-1
 4096 4096 l 1,17,-1
 7372 4096 l 1,18,-1
 7372 3276 l 1,19,-1
 6553 3276 l 1,20,-1
 6553 2457 l 1,21,-1
 5734 2457 l 1,14,-1
0 0 m 1,22,-1
 0 4915 l 1,23,-1
 2457 4915 l 1,24,-1
 2457 4096 l 1,25,-1
 819 4096 l 1,26,-1
 819 819 l 1,27,-1
 2457 819 l 1,28,-1
 2457 0 l 1,29,-1
 0 0 l 1,22,-1
EndSplineSet
Validated: 5
EndChar

StartChar: uni01F3
Encoding: 499 499 141
Width: 8191
Flags: W
LayerCount: 2
Fore
SplineSet
2457 819 m 1,0,-1
 2457 1638 l 1,1,-1
 819 1638 l 1,2,-1
 819 819 l 1,3,-1
 2457 819 l 1,0,-1
4096 0 m 1,4,-1
 4096 1638 l 1,5,-1
 4915 1638 l 1,6,-1
 4915 819 l 1,7,-1
 7372 819 l 1,8,-1
 7372 0 l 1,9,-1
 4096 0 l 1,4,-1
4915 1638 m 1,10,-1
 4915 2457 l 1,11,-1
 5734 2457 l 1,12,-1
 5734 1638 l 1,13,-1
 4915 1638 l 1,10,-1
0 0 m 1,14,-1
 0 2457 l 1,15,-1
 2457 2457 l 1,16,-1
 2457 4096 l 1,17,-1
 3276 4096 l 1,18,-1
 3276 0 l 1,19,-1
 0 0 l 1,14,-1
5734 2457 m 1,20,-1
 5734 3276 l 1,21,-1
 4096 3276 l 1,22,-1
 4096 4096 l 1,23,-1
 7372 4096 l 1,24,-1
 7372 3276 l 1,25,-1
 6553 3276 l 1,26,-1
 6553 2457 l 1,27,-1
 5734 2457 l 1,20,-1
EndSplineSet
Validated: 5
EndChar

StartChar: uni023D
Encoding: 573 573 142
Width: 4915
Flags: W
LayerCount: 2
Fore
SplineSet
819 0 m 1,0,-1
 819 2457 l 1,1,-1
 0 2457 l 1,2,-1
 0 3276 l 1,3,-1
 819 3276 l 1,4,-1
 819 4915 l 1,5,-1
 1638 4915 l 1,6,-1
 1638 3276 l 1,7,-1
 3276 3276 l 1,8,-1
 3276 2457 l 1,9,-1
 1638 2457 l 1,10,-1
 1638 819 l 1,11,-1
 4096 819 l 1,12,-1
 4096 0 l 1,13,-1
 819 0 l 1,0,-1
EndSplineSet
Validated: 1
EndChar

StartChar: Alpha
Encoding: 913 913 143
Width: 4096
Flags: W
LayerCount: 2
Fore
SplineSet
0 0 m 1,0,-1
 0 4096 l 1,1,-1
 819 4096 l 1,2,-1
 819 2457 l 1,3,-1
 2457 2457 l 1,4,-1
 2457 4096 l 1,5,-1
 3276 4096 l 1,6,-1
 3276 0 l 1,7,-1
 2457 0 l 1,8,-1
 2457 1638 l 1,9,-1
 819 1638 l 1,10,-1
 819 0 l 1,11,-1
 0 0 l 1,0,-1
819 4096 m 1,12,-1
 819 4915 l 1,13,-1
 2457 4915 l 1,14,-1
 2457 4096 l 1,15,-1
 819 4096 l 1,12,-1
EndSplineSet
Validated: 5
EndChar

StartChar: Beta
Encoding: 914 914 144
Width: 4096
Flags: W
LayerCount: 2
Fore
SplineSet
2457 819 m 1,0,-1
 2457 2457 l 1,1,-1
 3276 2457 l 1,2,-1
 3276 819 l 1,3,-1
 2457 819 l 1,0,-1
2457 3276 m 1,4,-1
 2457 4096 l 1,5,-1
 3276 4096 l 1,6,-1
 3276 3276 l 1,7,-1
 2457 3276 l 1,4,-1
0 0 m 1,8,-1
 0 4915 l 1,9,-1
 2457 4915 l 1,10,-1
 2457 4096 l 1,11,-1
 819 4096 l 1,12,-1
 819 3276 l 1,13,-1
 2457 3276 l 1,14,-1
 2457 2457 l 1,15,-1
 819 2457 l 1,16,-1
 819 819 l 1,17,-1
 2457 819 l 1,18,-1
 2457 0 l 1,19,-1
 0 0 l 1,8,-1
EndSplineSet
Validated: 5
EndChar

StartChar: Gamma
Encoding: 915 915 145
Width: 4096
Flags: W
LayerCount: 2
Fore
SplineSet
0 0 m 1,0,-1
 0 4915 l 1,1,-1
 3276 4915 l 1,2,-1
 3276 4096 l 1,3,-1
 819 4096 l 1,4,-1
 819 0 l 1,5,-1
 0 0 l 1,0,-1
EndSplineSet
Validated: 1
EndChar

StartChar: uni0394
Encoding: 916 916 146
Width: 4096
Flags: W
LayerCount: 2
Fore
SplineSet
0 0 m 1,0,-1
 0 4096 l 1,1,-1
 819 4096 l 1,2,-1
 819 819 l 1,3,-1
 2457 819 l 1,4,-1
 2457 4096 l 1,5,-1
 3276 4096 l 1,6,-1
 3276 0 l 1,7,-1
 0 0 l 1,0,-1
819 4096 m 1,8,-1
 819 4915 l 1,9,-1
 2457 4915 l 1,10,-1
 2457 4096 l 1,11,-1
 819 4096 l 1,8,-1
EndSplineSet
Validated: 5
EndChar

StartChar: Epsilon
Encoding: 917 917 147
Width: 4096
Flags: W
LayerCount: 2
Fore
SplineSet
0 0 m 1,0,-1
 0 4915 l 1,1,-1
 3276 4915 l 1,2,-1
 3276 4096 l 1,3,-1
 819 4096 l 1,4,-1
 819 3276 l 1,5,-1
 3276 3276 l 1,6,-1
 3276 2457 l 1,7,-1
 819 2457 l 1,8,-1
 819 819 l 1,9,-1
 3276 819 l 1,10,-1
 3276 0 l 1,11,-1
 0 0 l 1,0,-1
EndSplineSet
Validated: 1
EndChar

StartChar: Zeta
Encoding: 918 918 148
Width: 4096
Flags: W
LayerCount: 2
Fore
SplineSet
0 0 m 1,0,-1
 0 1638 l 1,1,-1
 819 1638 l 1,2,-1
 819 819 l 1,3,-1
 3276 819 l 1,4,-1
 3276 0 l 1,5,-1
 0 0 l 1,0,-1
819 1638 m 1,6,-1
 819 2457 l 1,7,-1
 1638 2457 l 1,8,-1
 1638 1638 l 1,9,-1
 819 1638 l 1,6,-1
1638 2457 m 1,10,-1
 1638 3276 l 1,11,-1
 2457 3276 l 1,12,-1
 2457 2457 l 1,13,-1
 1638 2457 l 1,10,-1
2457 3276 m 1,14,-1
 2457 4096 l 1,15,-1
 0 4096 l 1,16,-1
 0 4915 l 1,17,-1
 3276 4915 l 1,18,-1
 3276 3276 l 1,19,-1
 2457 3276 l 1,14,-1
EndSplineSet
Validated: 5
EndChar

StartChar: Eta
Encoding: 919 919 149
Width: 4096
Flags: W
LayerCount: 2
Fore
SplineSet
0 0 m 1,0,-1
 0 4915 l 1,1,-1
 819 4915 l 1,2,-1
 819 3276 l 1,3,-1
 2457 3276 l 1,4,-1
 2457 4915 l 1,5,-1
 3276 4915 l 1,6,-1
 3276 0 l 1,7,-1
 2457 0 l 1,8,-1
 2457 2457 l 1,9,-1
 819 2457 l 1,10,-1
 819 0 l 1,11,-1
 0 0 l 1,0,-1
EndSplineSet
Validated: 1
EndChar

StartChar: Theta
Encoding: 920 920 150
Width: 4096
Flags: W
LayerCount: 2
Fore
SplineSet
819 0 m 1,0,-1
 819 819 l 1,1,-1
 2457 819 l 1,2,-1
 2457 0 l 1,3,-1
 819 0 l 1,0,-1
0 819 m 1,4,-1
 0 4096 l 1,5,-1
 819 4096 l 1,6,-1
 819 3276 l 1,7,-1
 2457 3276 l 1,8,-1
 2457 4096 l 1,9,-1
 3276 4096 l 1,10,-1
 3276 819 l 1,11,-1
 2457 819 l 1,12,-1
 2457 2457 l 1,13,-1
 819 2457 l 1,14,-1
 819 819 l 1,15,-1
 0 819 l 1,4,-1
819 4096 m 1,16,-1
 819 4915 l 1,17,-1
 2457 4915 l 1,18,-1
 2457 4096 l 1,19,-1
 819 4096 l 1,16,-1
EndSplineSet
Validated: 5
EndChar

StartChar: Iota
Encoding: 921 921 151
Width: 1638
Flags: W
LayerCount: 2
Fore
SplineSet
0 0 m 1,0,-1
 0 4915 l 1,1,-1
 819 4915 l 1,2,-1
 819 0 l 1,3,-1
 0 0 l 1,0,-1
EndSplineSet
Validated: 1
EndChar

StartChar: Kappa
Encoding: 922 922 152
Width: 4096
Flags: W
LayerCount: 2
Fore
SplineSet
2457 0 m 1,0,-1
 2457 1638 l 1,1,-1
 3276 1638 l 1,2,-1
 3276 0 l 1,3,-1
 2457 0 l 1,0,-1
1638 1638 m 1,4,-1
 1638 2457 l 1,5,-1
 2457 2457 l 1,6,-1
 2457 1638 l 1,7,-1
 1638 1638 l 1,4,-1
1638 3276 m 1,8,-1
 1638 4096 l 1,9,-1
 2457 4096 l 1,10,-1
 2457 3276 l 1,11,-1
 1638 3276 l 1,8,-1
0 0 m 1,12,-1
 0 4915 l 1,13,-1
 819 4915 l 1,14,-1
 819 3276 l 1,15,-1
 1638 3276 l 1,16,-1
 1638 2457 l 1,17,-1
 819 2457 l 1,18,-1
 819 0 l 1,19,-1
 0 0 l 1,12,-1
2457 4096 m 1,20,-1
 2457 4915 l 1,21,-1
 3276 4915 l 1,22,-1
 3276 4096 l 1,23,-1
 2457 4096 l 1,20,-1
EndSplineSet
Validated: 5
EndChar

StartChar: Lambda
Encoding: 923 923 153
Width: 4915
Flags: W
LayerCount: 2
Fore
SplineSet
0 0 m 1,0,-1
 0 2457 l 1,1,-1
 819 2457 l 1,2,-1
 819 0 l 1,3,-1
 0 0 l 1,0,-1
3276 0 m 1,4,-1
 3276 2457 l 1,5,-1
 4096 2457 l 1,6,-1
 4096 0 l 1,7,-1
 3276 0 l 1,4,-1
819 2457 m 1,8,-1
 819 4096 l 1,9,-1
 1638 4096 l 1,10,-1
 1638 2457 l 1,11,-1
 819 2457 l 1,8,-1
2457 2457 m 1,12,-1
 2457 4096 l 1,13,-1
 3276 4096 l 1,14,-1
 3276 2457 l 1,15,-1
 2457 2457 l 1,12,-1
1638 4096 m 1,16,-1
 1638 4915 l 1,17,-1
 2457 4915 l 1,18,-1
 2457 4096 l 1,19,-1
 1638 4096 l 1,16,-1
EndSplineSet
Validated: 5
EndChar

StartChar: Mu
Encoding: 924 924 154
Width: 4915
Flags: W
LayerCount: 2
Fore
SplineSet
1638 2457 m 1,0,-1
 1638 3276 l 1,1,-1
 2457 3276 l 1,2,-1
 2457 2457 l 1,3,-1
 1638 2457 l 1,0,-1
0 0 m 1,4,-1
 0 4915 l 1,5,-1
 819 4915 l 1,6,-1
 819 4096 l 1,7,-1
 1638 4096 l 1,8,-1
 1638 3276 l 1,9,-1
 819 3276 l 1,10,-1
 819 0 l 1,11,-1
 0 0 l 1,4,-1
3276 0 m 1,12,-1
 3276 3276 l 1,13,-1
 2457 3276 l 1,14,-1
 2457 4096 l 1,15,-1
 3276 4096 l 1,16,-1
 3276 4915 l 1,17,-1
 4096 4915 l 1,18,-1
 4096 0 l 1,19,-1
 3276 0 l 1,12,-1
EndSplineSet
Validated: 5
EndChar

StartChar: Nu
Encoding: 925 925 155
Width: 4096
Flags: W
LayerCount: 2
Fore
SplineSet
0 0 m 1,0,-1
 0 4915 l 1,1,-1
 819 4915 l 1,2,-1
 819 4096 l 1,3,-1
 1638 4096 l 1,4,-1
 1638 3276 l 1,5,-1
 819 3276 l 1,6,-1
 819 0 l 1,7,-1
 0 0 l 1,0,-1
2457 0 m 1,8,-1
 2457 2457 l 1,9,-1
 1638 2457 l 1,10,-1
 1638 3276 l 1,11,-1
 2457 3276 l 1,12,-1
 2457 4915 l 1,13,-1
 3276 4915 l 1,14,-1
 3276 0 l 1,15,-1
 2457 0 l 1,8,-1
EndSplineSet
Validated: 5
EndChar

StartChar: Xi
Encoding: 926 926 156
Width: 4915
Flags: W
LayerCount: 2
Fore
SplineSet
0 0 m 1,0,-1
 0 819 l 1,1,-1
 4096 819 l 1,2,-1
 4096 0 l 1,3,-1
 0 0 l 1,0,-1
819 2457 m 1,4,-1
 819 3276 l 1,5,-1
 3276 3276 l 1,6,-1
 3276 2457 l 1,7,-1
 819 2457 l 1,4,-1
0 4096 m 1,8,-1
 0 4915 l 1,9,-1
 4096 4915 l 1,10,-1
 4096 4096 l 1,11,-1
 0 4096 l 1,8,-1
EndSplineSet
Validated: 1
EndChar

StartChar: Omicron
Encoding: 927 927 157
Width: 4096
Flags: W
LayerCount: 2
Fore
SplineSet
819 0 m 1,0,-1
 819 819 l 1,1,-1
 2457 819 l 1,2,-1
 2457 0 l 1,3,-1
 819 0 l 1,0,-1
0 819 m 1,4,-1
 0 4096 l 1,5,-1
 819 4096 l 1,6,-1
 819 819 l 1,7,-1
 0 819 l 1,4,-1
2457 819 m 1,8,-1
 2457 4096 l 1,9,-1
 3276 4096 l 1,10,-1
 3276 819 l 1,11,-1
 2457 819 l 1,8,-1
819 4096 m 1,12,-1
 819 4915 l 1,13,-1
 2457 4915 l 1,14,-1
 2457 4096 l 1,15,-1
 819 4096 l 1,12,-1
EndSplineSet
Validated: 5
EndChar

StartChar: Pi
Encoding: 928 928 158
Width: 4915
Flags: W
LayerCount: 2
Fore
SplineSet
819 0 m 1,0,-1
 819 4096 l 1,1,-1
 0 4096 l 1,2,-1
 0 4915 l 1,3,-1
 4096 4915 l 1,4,-1
 4096 4096 l 1,5,-1
 3276 4096 l 1,6,-1
 3276 0 l 1,7,-1
 2457 0 l 1,8,-1
 2457 4096 l 1,9,-1
 1638 4096 l 1,10,-1
 1638 0 l 1,11,-1
 819 0 l 1,0,-1
EndSplineSet
Validated: 1
EndChar

StartChar: Rho
Encoding: 929 929 159
Width: 4096
Flags: W
LayerCount: 2
Fore
SplineSet
2457 3276 m 1,0,-1
 2457 4096 l 1,1,-1
 819 4096 l 1,2,-1
 819 3276 l 1,3,-1
 2457 3276 l 1,0,-1
0 0 m 1,4,-1
 0 4915 l 1,5,-1
 3276 4915 l 1,6,-1
 3276 2457 l 1,7,-1
 819 2457 l 1,8,-1
 819 0 l 1,9,-1
 0 0 l 1,4,-1
EndSplineSet
Validated: 1
EndChar

StartChar: uni0400
Encoding: 1024 1024 160
Width: 4096
Flags: W
LayerCount: 2
Fore
SplineSet
0 0 m 1,0,-1
 0 4915 l 1,1,-1
 3276 4915 l 1,2,-1
 3276 4096 l 1,3,-1
 819 4096 l 1,4,-1
 819 3276 l 1,5,-1
 3276 3276 l 1,6,-1
 3276 2457 l 1,7,-1
 819 2457 l 1,8,-1
 819 819 l 1,9,-1
 3276 819 l 1,10,-1
 3276 0 l 1,11,-1
 0 0 l 1,0,-1
1638 5734 m 1,12,-1
 1638 6553 l 1,13,-1
 3276 6553 l 1,14,-1
 3276 5734 l 1,15,-1
 1638 5734 l 1,12,-1
0 6553 m 1,16,-1
 0 7372 l 1,17,-1
 1638 7372 l 1,18,-1
 1638 6553 l 1,19,-1
 0 6553 l 1,16,-1
EndSplineSet
Validated: 5
EndChar

StartChar: uni0401
Encoding: 1025 1025 161
Width: 4096
Flags: W
LayerCount: 2
Fore
SplineSet
0 0 m 1,0,-1
 0 4915 l 1,1,-1
 3276 4915 l 1,2,-1
 3276 4096 l 1,3,-1
 819 4096 l 1,4,-1
 819 3276 l 1,5,-1
 3276 3276 l 1,6,-1
 3276 2457 l 1,7,-1
 819 2457 l 1,8,-1
 819 819 l 1,9,-1
 3276 819 l 1,10,-1
 3276 0 l 1,11,-1
 0 0 l 1,0,-1
0 5734 m 1,12,-1
 0 6553 l 1,13,-1
 819 6553 l 1,14,-1
 819 5734 l 1,15,-1
 0 5734 l 1,12,-1
2457 5734 m 1,16,-1
 2457 6553 l 1,17,-1
 3276 6553 l 1,18,-1
 3276 5734 l 1,19,-1
 2457 5734 l 1,16,-1
EndSplineSet
Validated: 1
EndChar

StartChar: uni0402
Encoding: 1026 1026 162
Width: 5734
Flags: W
LayerCount: 2
Fore
SplineSet
3276 0 m 1,0,-1
 3276 819 l 1,1,-1
 4096 819 l 1,2,-1
 4096 0 l 1,3,-1
 3276 0 l 1,0,-1
4096 819 m 1,4,-1
 4096 2457 l 1,5,-1
 4915 2457 l 1,6,-1
 4915 819 l 1,7,-1
 4096 819 l 1,4,-1
1638 0 m 1,8,-1
 1638 4096 l 1,9,-1
 0 4096 l 1,10,-1
 0 4915 l 1,11,-1
 4096 4915 l 1,12,-1
 4096 4096 l 1,13,-1
 2457 4096 l 1,14,-1
 2457 3276 l 1,15,-1
 4096 3276 l 1,16,-1
 4096 2457 l 1,17,-1
 2457 2457 l 1,18,-1
 2457 0 l 1,19,-1
 1638 0 l 1,8,-1
EndSplineSet
Validated: 5
EndChar

StartChar: uni0403
Encoding: 1027 1027 163
Width: 4096
Flags: W
LayerCount: 2
Fore
SplineSet
0 0 m 1,0,-1
 0 4915 l 1,1,-1
 3276 4915 l 1,2,-1
 3276 4096 l 1,3,-1
 819 4096 l 1,4,-1
 819 0 l 1,5,-1
 0 0 l 1,0,-1
0 5734 m 1,6,-1
 0 6553 l 1,7,-1
 1638 6553 l 1,8,-1
 1638 5734 l 1,9,-1
 0 5734 l 1,6,-1
1638 6553 m 1,10,-1
 1638 7372 l 1,11,-1
 3276 7372 l 1,12,-1
 3276 6553 l 1,13,-1
 1638 6553 l 1,10,-1
EndSplineSet
Validated: 5
EndChar

StartChar: uni0404
Encoding: 1028 1028 164
Width: 4096
Flags: W
LayerCount: 2
Fore
SplineSet
819 0 m 1,0,-1
 819 819 l 1,1,-1
 3276 819 l 1,2,-1
 3276 0 l 1,3,-1
 819 0 l 1,0,-1
0 819 m 1,4,-1
 0 4096 l 1,5,-1
 819 4096 l 1,6,-1
 819 3276 l 1,7,-1
 3276 3276 l 1,8,-1
 3276 2457 l 1,9,-1
 819 2457 l 1,10,-1
 819 819 l 1,11,-1
 0 819 l 1,4,-1
819 4096 m 1,12,-1
 819 4915 l 1,13,-1
 3276 4915 l 1,14,-1
 3276 4096 l 1,15,-1
 819 4096 l 1,12,-1
EndSplineSet
Validated: 5
EndChar

StartChar: uni0405
Encoding: 1029 1029 165
Width: 4096
Flags: W
LayerCount: 2
Fore
SplineSet
0 0 m 1,0,-1
 0 819 l 1,1,-1
 2457 819 l 1,2,-1
 2457 2457 l 1,3,-1
 0 2457 l 1,4,-1
 0 4915 l 1,5,-1
 3276 4915 l 1,6,-1
 3276 4096 l 1,7,-1
 819 4096 l 1,8,-1
 819 3276 l 1,9,-1
 3276 3276 l 1,10,-1
 3276 0 l 1,11,-1
 0 0 l 1,0,-1
EndSplineSet
Validated: 1
EndChar

StartChar: uni0406
Encoding: 1030 1030 166
Width: 1638
Flags: W
LayerCount: 2
Fore
SplineSet
0 0 m 1,0,-1
 0 4915 l 1,1,-1
 819 4915 l 1,2,-1
 819 0 l 1,3,-1
 0 0 l 1,0,-1
EndSplineSet
Validated: 1
EndChar

StartChar: uni0407
Encoding: 1031 1031 167
Width: 3276
Flags: W
LayerCount: 2
Fore
SplineSet
819 0 m 1,0,-1
 819 4915 l 1,1,-1
 1638 4915 l 1,2,-1
 1638 0 l 1,3,-1
 819 0 l 1,0,-1
0 5734 m 1,4,-1
 0 6553 l 1,5,-1
 819 6553 l 1,6,-1
 819 5734 l 1,7,-1
 0 5734 l 1,4,-1
1638 5734 m 1,8,-1
 1638 6553 l 1,9,-1
 2457 6553 l 1,10,-1
 2457 5734 l 1,11,-1
 1638 5734 l 1,8,-1
EndSplineSet
Validated: 1
EndChar

StartChar: uni0408
Encoding: 1032 1032 168
Width: 4096
Flags: W
LayerCount: 2
Fore
SplineSet
819 0 m 1,0,-1
 819 819 l 1,1,-1
 2457 819 l 1,2,-1
 2457 0 l 1,3,-1
 819 0 l 1,0,-1
0 819 m 1,4,-1
 0 1638 l 1,5,-1
 819 1638 l 1,6,-1
 819 819 l 1,7,-1
 0 819 l 1,4,-1
2457 819 m 1,8,-1
 2457 4915 l 1,9,-1
 3276 4915 l 1,10,-1
 3276 819 l 1,11,-1
 2457 819 l 1,8,-1
EndSplineSet
Validated: 5
EndChar

StartChar: uni0409
Encoding: 1033 1033 169
Width: 7372
Flags: W
LayerCount: 2
Fore
SplineSet
0 0 m 1,0,-1
 0 819 l 1,1,-1
 819 819 l 1,2,-1
 819 0 l 1,3,-1
 0 0 l 1,0,-1
5734 819 m 1,4,-1
 5734 1638 l 1,5,-1
 4096 1638 l 1,6,-1
 4096 819 l 1,7,-1
 5734 819 l 1,4,-1
3276 0 m 1,8,-1
 3276 4096 l 1,9,-1
 1638 4096 l 1,10,-1
 1638 819 l 1,11,-1
 819 819 l 1,12,-1
 819 4915 l 1,13,-1
 4096 4915 l 1,14,-1
 4096 2457 l 1,15,-1
 6553 2457 l 1,16,-1
 6553 0 l 1,17,-1
 3276 0 l 1,8,-1
EndSplineSet
Validated: 5
EndChar

StartChar: uni040A
Encoding: 1034 1034 170
Width: 6553
Flags: W
LayerCount: 2
Fore
SplineSet
4915 819 m 1,0,-1
 4915 1638 l 1,1,-1
 3276 1638 l 1,2,-1
 3276 819 l 1,3,-1
 4915 819 l 1,0,-1
0 0 m 1,4,-1
 0 4915 l 1,5,-1
 819 4915 l 1,6,-1
 819 3276 l 1,7,-1
 2457 3276 l 1,8,-1
 2457 4915 l 1,9,-1
 3276 4915 l 1,10,-1
 3276 2457 l 1,11,-1
 5734 2457 l 1,12,-1
 5734 0 l 1,13,-1
 2457 0 l 1,14,-1
 2457 2457 l 1,15,-1
 819 2457 l 1,16,-1
 819 0 l 1,17,-1
 0 0 l 1,4,-1
EndSplineSet
Validated: 1
EndChar

StartChar: uni040B
Encoding: 1035 1035 171
Width: 5734
Flags: W
LayerCount: 2
Fore
SplineSet
4096 0 m 1,0,-1
 4096 2457 l 1,1,-1
 4915 2457 l 1,2,-1
 4915 0 l 1,3,-1
 4096 0 l 1,0,-1
1638 0 m 1,4,-1
 1638 4096 l 1,5,-1
 0 4096 l 1,6,-1
 0 4915 l 1,7,-1
 4096 4915 l 1,8,-1
 4096 4096 l 1,9,-1
 2457 4096 l 1,10,-1
 2457 3276 l 1,11,-1
 4096 3276 l 1,12,-1
 4096 2457 l 1,13,-1
 2457 2457 l 1,14,-1
 2457 0 l 1,15,-1
 1638 0 l 1,4,-1
EndSplineSet
Validated: 5
EndChar

StartChar: uni040C
Encoding: 1036 1036 172
Width: 4096
Flags: W
LayerCount: 2
Fore
SplineSet
2457 0 m 1,0,-1
 2457 1638 l 1,1,-1
 3276 1638 l 1,2,-1
 3276 0 l 1,3,-1
 2457 0 l 1,0,-1
1638 1638 m 1,4,-1
 1638 2457 l 1,5,-1
 2457 2457 l 1,6,-1
 2457 1638 l 1,7,-1
 1638 1638 l 1,4,-1
1638 3276 m 1,8,-1
 1638 4096 l 1,9,-1
 2457 4096 l 1,10,-1
 2457 3276 l 1,11,-1
 1638 3276 l 1,8,-1
0 0 m 1,12,-1
 0 4915 l 1,13,-1
 819 4915 l 1,14,-1
 819 3276 l 1,15,-1
 1638 3276 l 1,16,-1
 1638 2457 l 1,17,-1
 819 2457 l 1,18,-1
 819 0 l 1,19,-1
 0 0 l 1,12,-1
2457 4096 m 1,20,-1
 2457 4915 l 1,21,-1
 3276 4915 l 1,22,-1
 3276 4096 l 1,23,-1
 2457 4096 l 1,20,-1
0 5734 m 1,24,-1
 0 6553 l 1,25,-1
 1638 6553 l 1,26,-1
 1638 5734 l 1,27,-1
 0 5734 l 1,24,-1
1638 6553 m 1,28,-1
 1638 7372 l 1,29,-1
 3276 7372 l 1,30,-1
 3276 6553 l 1,31,-1
 1638 6553 l 1,28,-1
EndSplineSet
Validated: 5
EndChar

StartChar: uni040D
Encoding: 1037 1037 173
Width: 4096
Flags: W
LayerCount: 2
Fore
SplineSet
0 0 m 1,0,-1
 0 4915 l 1,1,-1
 819 4915 l 1,2,-1
 819 3276 l 1,3,-1
 1638 3276 l 1,4,-1
 1638 2457 l 1,5,-1
 819 2457 l 1,6,-1
 819 0 l 1,7,-1
 0 0 l 1,0,-1
2457 0 m 1,8,-1
 2457 3276 l 1,9,-1
 1638 3276 l 1,10,-1
 1638 4096 l 1,11,-1
 2457 4096 l 1,12,-1
 2457 4915 l 1,13,-1
 3276 4915 l 1,14,-1
 3276 0 l 1,15,-1
 2457 0 l 1,8,-1
1638 5734 m 1,16,-1
 1638 6553 l 1,17,-1
 3276 6553 l 1,18,-1
 3276 5734 l 1,19,-1
 1638 5734 l 1,16,-1
0 6553 m 1,20,-1
 0 7372 l 1,21,-1
 1638 7372 l 1,22,-1
 1638 6553 l 1,23,-1
 0 6553 l 1,20,-1
EndSplineSet
Validated: 5
EndChar

StartChar: uni040E
Encoding: 1038 1038 174
Width: 4096
Flags: W
LayerCount: 2
Fore
SplineSet
0 0 m 1,0,-1
 0 819 l 1,1,-1
 2457 819 l 1,2,-1
 2457 1638 l 1,3,-1
 0 1638 l 1,4,-1
 0 4915 l 1,5,-1
 819 4915 l 1,6,-1
 819 2457 l 1,7,-1
 2457 2457 l 1,8,-1
 2457 4915 l 1,9,-1
 3276 4915 l 1,10,-1
 3276 0 l 1,11,-1
 0 0 l 1,0,-1
EndSplineSet
Validated: 1
EndChar

StartChar: uni040F
Encoding: 1039 1039 175
Width: 4915
Flags: W
LayerCount: 2
Fore
SplineSet
1638 -819 m 1,0,-1
 1638 0 l 1,1,-1
 0 0 l 1,2,-1
 0 4915 l 1,3,-1
 819 4915 l 1,4,-1
 819 819 l 1,5,-1
 3276 819 l 1,6,-1
 3276 4915 l 1,7,-1
 4096 4915 l 1,8,-1
 4096 0 l 1,9,-1
 2457 0 l 1,10,-1
 2457 -819 l 1,11,-1
 1638 -819 l 1,0,-1
EndSplineSet
Validated: 1
EndChar

StartChar: uni0410
Encoding: 1040 1040 176
Width: 4096
Flags: W
LayerCount: 2
Fore
SplineSet
0 0 m 1,0,-1
 0 4096 l 1,1,-1
 819 4096 l 1,2,-1
 819 2457 l 1,3,-1
 2457 2457 l 1,4,-1
 2457 4096 l 1,5,-1
 3276 4096 l 1,6,-1
 3276 0 l 1,7,-1
 2457 0 l 1,8,-1
 2457 1638 l 1,9,-1
 819 1638 l 1,10,-1
 819 0 l 1,11,-1
 0 0 l 1,0,-1
819 4096 m 1,12,-1
 819 4915 l 1,13,-1
 2457 4915 l 1,14,-1
 2457 4096 l 1,15,-1
 819 4096 l 1,12,-1
EndSplineSet
Validated: 5
EndChar

StartChar: uni0411
Encoding: 1041 1041 177
Width: 4096
Flags: W
LayerCount: 2
Fore
SplineSet
2457 819 m 1,0,-1
 2457 2457 l 1,1,-1
 3276 2457 l 1,2,-1
 3276 819 l 1,3,-1
 2457 819 l 1,0,-1
0 0 m 1,4,-1
 0 4915 l 1,5,-1
 3276 4915 l 1,6,-1
 3276 4096 l 1,7,-1
 819 4096 l 1,8,-1
 819 3276 l 1,9,-1
 2457 3276 l 1,10,-1
 2457 2457 l 1,11,-1
 819 2457 l 1,12,-1
 819 819 l 1,13,-1
 2457 819 l 1,14,-1
 2457 0 l 1,15,-1
 0 0 l 1,4,-1
EndSplineSet
Validated: 5
EndChar

StartChar: uni0412
Encoding: 1042 1042 178
Width: 4096
Flags: W
LayerCount: 2
Fore
SplineSet
2457 819 m 1,0,-1
 2457 2457 l 1,1,-1
 3276 2457 l 1,2,-1
 3276 819 l 1,3,-1
 2457 819 l 1,0,-1
2457 3276 m 1,4,-1
 2457 4096 l 1,5,-1
 3276 4096 l 1,6,-1
 3276 3276 l 1,7,-1
 2457 3276 l 1,4,-1
0 0 m 1,8,-1
 0 4915 l 1,9,-1
 2457 4915 l 1,10,-1
 2457 4096 l 1,11,-1
 819 4096 l 1,12,-1
 819 3276 l 1,13,-1
 2457 3276 l 1,14,-1
 2457 2457 l 1,15,-1
 819 2457 l 1,16,-1
 819 819 l 1,17,-1
 2457 819 l 1,18,-1
 2457 0 l 1,19,-1
 0 0 l 1,8,-1
EndSplineSet
Validated: 5
EndChar

StartChar: uni0413
Encoding: 1043 1043 179
Width: 4096
Flags: W
LayerCount: 2
Fore
SplineSet
0 0 m 1,0,-1
 0 4915 l 1,1,-1
 3276 4915 l 1,2,-1
 3276 4096 l 1,3,-1
 819 4096 l 1,4,-1
 819 0 l 1,5,-1
 0 0 l 1,0,-1
EndSplineSet
Validated: 1
EndChar

StartChar: uni0414
Encoding: 1044 1044 180
Width: 4915
Flags: W
LayerCount: 2
Fore
SplineSet
2457 819 m 1,0,-1
 2457 4096 l 1,1,-1
 1638 4096 l 1,2,-1
 1638 819 l 1,3,-1
 2457 819 l 1,0,-1
0 -819 m 1,4,-1
 0 819 l 1,5,-1
 819 819 l 1,6,-1
 819 4915 l 1,7,-1
 3276 4915 l 1,8,-1
 3276 819 l 1,9,-1
 4096 819 l 1,10,-1
 4096 -819 l 1,11,-1
 3276 -819 l 1,12,-1
 3276 0 l 1,13,-1
 819 0 l 1,14,-1
 819 -819 l 1,15,-1
 0 -819 l 1,4,-1
EndSplineSet
Validated: 1
EndChar

StartChar: uni0415
Encoding: 1045 1045 181
Width: 4096
Flags: W
LayerCount: 2
Fore
SplineSet
0 0 m 1,0,-1
 0 4915 l 1,1,-1
 3276 4915 l 1,2,-1
 3276 4096 l 1,3,-1
 819 4096 l 1,4,-1
 819 3276 l 1,5,-1
 3276 3276 l 1,6,-1
 3276 2457 l 1,7,-1
 819 2457 l 1,8,-1
 819 819 l 1,9,-1
 3276 819 l 1,10,-1
 3276 0 l 1,11,-1
 0 0 l 1,0,-1
EndSplineSet
Validated: 1
EndChar

StartChar: uni0416
Encoding: 1046 1046 182
Width: 4915
Flags: W
LayerCount: 2
Fore
SplineSet
0 0 m 1,0,-1
 0 1638 l 1,1,-1
 819 1638 l 1,2,-1
 819 0 l 1,3,-1
 0 0 l 1,0,-1
3276 0 m 1,4,-1
 3276 1638 l 1,5,-1
 4096 1638 l 1,6,-1
 4096 0 l 1,7,-1
 3276 0 l 1,4,-1
0 3276 m 1,8,-1
 0 4915 l 1,9,-1
 819 4915 l 1,10,-1
 819 3276 l 1,11,-1
 0 3276 l 1,8,-1
1638 0 m 1,12,-1
 1638 1638 l 1,13,-1
 819 1638 l 1,14,-1
 819 3276 l 1,15,-1
 1638 3276 l 1,16,-1
 1638 4915 l 1,17,-1
 2457 4915 l 1,18,-1
 2457 3276 l 1,19,-1
 3276 3276 l 1,20,-1
 3276 1638 l 1,21,-1
 2457 1638 l 1,22,-1
 2457 0 l 1,23,-1
 1638 0 l 1,12,-1
3276 3276 m 1,24,-1
 3276 4915 l 1,25,-1
 4096 4915 l 1,26,-1
 4096 3276 l 1,27,-1
 3276 3276 l 1,24,-1
EndSplineSet
Validated: 5
EndChar

StartChar: uni0417
Encoding: 1047 1047 183
Width: 4096
Flags: W
LayerCount: 2
Fore
SplineSet
0 0 m 1,0,-1
 0 819 l 1,1,-1
 2457 819 l 1,2,-1
 2457 0 l 1,3,-1
 0 0 l 1,0,-1
2457 819 m 1,4,-1
 2457 2457 l 1,5,-1
 3276 2457 l 1,6,-1
 3276 819 l 1,7,-1
 2457 819 l 1,4,-1
0 2457 m 1,8,-1
 0 3276 l 1,9,-1
 2457 3276 l 1,10,-1
 2457 2457 l 1,11,-1
 0 2457 l 1,8,-1
2457 3276 m 1,12,-1
 2457 4096 l 1,13,-1
 3276 4096 l 1,14,-1
 3276 3276 l 1,15,-1
 2457 3276 l 1,12,-1
0 4096 m 1,16,-1
 0 4915 l 1,17,-1
 2457 4915 l 1,18,-1
 2457 4096 l 1,19,-1
 0 4096 l 1,16,-1
EndSplineSet
Validated: 5
EndChar

StartChar: uni0418
Encoding: 1048 1048 184
Width: 4096
Flags: W
LayerCount: 2
Fore
SplineSet
0 0 m 1,0,-1
 0 4915 l 1,1,-1
 819 4915 l 1,2,-1
 819 3276 l 1,3,-1
 1638 3276 l 1,4,-1
 1638 2457 l 1,5,-1
 819 2457 l 1,6,-1
 819 0 l 1,7,-1
 0 0 l 1,0,-1
2457 0 m 1,8,-1
 2457 3276 l 1,9,-1
 1638 3276 l 1,10,-1
 1638 4096 l 1,11,-1
 2457 4096 l 1,12,-1
 2457 4915 l 1,13,-1
 3276 4915 l 1,14,-1
 3276 0 l 1,15,-1
 2457 0 l 1,8,-1
EndSplineSet
Validated: 5
EndChar

StartChar: uni0419
Encoding: 1049 1049 185
Width: 4096
Flags: W
LayerCount: 2
Fore
SplineSet
0 0 m 1,0,-1
 0 4915 l 1,1,-1
 819 4915 l 1,2,-1
 819 3276 l 1,3,-1
 1638 3276 l 1,4,-1
 1638 2457 l 1,5,-1
 819 2457 l 1,6,-1
 819 0 l 1,7,-1
 0 0 l 1,0,-1
2457 0 m 1,8,-1
 2457 3276 l 1,9,-1
 1638 3276 l 1,10,-1
 1638 4096 l 1,11,-1
 2457 4096 l 1,12,-1
 2457 4915 l 1,13,-1
 3276 4915 l 1,14,-1
 3276 0 l 1,15,-1
 2457 0 l 1,8,-1
819 5734 m 1,16,-1
 819 6553 l 1,17,-1
 2457 6553 l 1,18,-1
 2457 5734 l 1,19,-1
 819 5734 l 1,16,-1
0 6553 m 1,20,-1
 0 7372 l 1,21,-1
 819 7372 l 1,22,-1
 819 6553 l 1,23,-1
 0 6553 l 1,20,-1
2457 6553 m 1,24,-1
 2457 7372 l 1,25,-1
 3276 7372 l 1,26,-1
 3276 6553 l 1,27,-1
 2457 6553 l 1,24,-1
EndSplineSet
Validated: 5
EndChar

StartChar: uni041A
Encoding: 1050 1050 186
Width: 4096
Flags: W
LayerCount: 2
Fore
SplineSet
2457 0 m 1,0,-1
 2457 1638 l 1,1,-1
 3276 1638 l 1,2,-1
 3276 0 l 1,3,-1
 2457 0 l 1,0,-1
1638 1638 m 1,4,-1
 1638 2457 l 1,5,-1
 2457 2457 l 1,6,-1
 2457 1638 l 1,7,-1
 1638 1638 l 1,4,-1
1638 3276 m 1,8,-1
 1638 4096 l 1,9,-1
 2457 4096 l 1,10,-1
 2457 3276 l 1,11,-1
 1638 3276 l 1,8,-1
0 0 m 1,12,-1
 0 4915 l 1,13,-1
 819 4915 l 1,14,-1
 819 3276 l 1,15,-1
 1638 3276 l 1,16,-1
 1638 2457 l 1,17,-1
 819 2457 l 1,18,-1
 819 0 l 1,19,-1
 0 0 l 1,12,-1
2457 4096 m 1,20,-1
 2457 4915 l 1,21,-1
 3276 4915 l 1,22,-1
 3276 4096 l 1,23,-1
 2457 4096 l 1,20,-1
EndSplineSet
Validated: 5
EndChar

StartChar: uni041B
Encoding: 1051 1051 187
Width: 4915
Flags: W
LayerCount: 2
Fore
SplineSet
0 0 m 1,0,-1
 0 819 l 1,1,-1
 819 819 l 1,2,-1
 819 0 l 1,3,-1
 0 0 l 1,0,-1
3276 0 m 1,4,-1
 3276 4096 l 1,5,-1
 1638 4096 l 1,6,-1
 1638 819 l 1,7,-1
 819 819 l 1,8,-1
 819 4915 l 1,9,-1
 4096 4915 l 1,10,-1
 4096 0 l 1,11,-1
 3276 0 l 1,4,-1
EndSplineSet
Validated: 5
EndChar

StartChar: uni041C
Encoding: 1052 1052 188
Width: 4915
Flags: W
LayerCount: 2
Fore
SplineSet
1638 2457 m 1,0,-1
 1638 3276 l 1,1,-1
 2457 3276 l 1,2,-1
 2457 2457 l 1,3,-1
 1638 2457 l 1,0,-1
0 0 m 1,4,-1
 0 4915 l 1,5,-1
 819 4915 l 1,6,-1
 819 4096 l 1,7,-1
 1638 4096 l 1,8,-1
 1638 3276 l 1,9,-1
 819 3276 l 1,10,-1
 819 0 l 1,11,-1
 0 0 l 1,4,-1
3276 0 m 1,12,-1
 3276 3276 l 1,13,-1
 2457 3276 l 1,14,-1
 2457 4096 l 1,15,-1
 3276 4096 l 1,16,-1
 3276 4915 l 1,17,-1
 4096 4915 l 1,18,-1
 4096 0 l 1,19,-1
 3276 0 l 1,12,-1
EndSplineSet
Validated: 5
EndChar

StartChar: uni041D
Encoding: 1053 1053 189
Width: 4096
Flags: W
LayerCount: 2
Fore
SplineSet
0 0 m 1,0,-1
 0 4915 l 1,1,-1
 819 4915 l 1,2,-1
 819 3276 l 1,3,-1
 2457 3276 l 1,4,-1
 2457 4915 l 1,5,-1
 3276 4915 l 1,6,-1
 3276 0 l 1,7,-1
 2457 0 l 1,8,-1
 2457 2457 l 1,9,-1
 819 2457 l 1,10,-1
 819 0 l 1,11,-1
 0 0 l 1,0,-1
EndSplineSet
Validated: 1
EndChar

StartChar: uni041E
Encoding: 1054 1054 190
Width: 4096
Flags: W
LayerCount: 2
Fore
SplineSet
819 0 m 1,0,-1
 819 819 l 1,1,-1
 2457 819 l 1,2,-1
 2457 0 l 1,3,-1
 819 0 l 1,0,-1
0 819 m 1,4,-1
 0 4096 l 1,5,-1
 819 4096 l 1,6,-1
 819 819 l 1,7,-1
 0 819 l 1,4,-1
2457 819 m 1,8,-1
 2457 4096 l 1,9,-1
 3276 4096 l 1,10,-1
 3276 819 l 1,11,-1
 2457 819 l 1,8,-1
819 4096 m 1,12,-1
 819 4915 l 1,13,-1
 2457 4915 l 1,14,-1
 2457 4096 l 1,15,-1
 819 4096 l 1,12,-1
EndSplineSet
Validated: 5
EndChar

StartChar: uni041F
Encoding: 1055 1055 191
Width: 4096
Flags: W
LayerCount: 2
Fore
SplineSet
0 0 m 1,0,-1
 0 4915 l 1,1,-1
 3276 4915 l 1,2,-1
 3276 0 l 1,3,-1
 2457 0 l 1,4,-1
 2457 4096 l 1,5,-1
 819 4096 l 1,6,-1
 819 0 l 1,7,-1
 0 0 l 1,0,-1
EndSplineSet
Validated: 1
EndChar

StartChar: uni0420
Encoding: 1056 1056 192
Width: 4096
Flags: W
LayerCount: 2
Fore
SplineSet
2457 3276 m 1,0,-1
 2457 4096 l 1,1,-1
 3276 4096 l 1,2,-1
 3276 3276 l 1,3,-1
 2457 3276 l 1,0,-1
0 0 m 1,4,-1
 0 4915 l 1,5,-1
 2457 4915 l 1,6,-1
 2457 4096 l 1,7,-1
 819 4096 l 1,8,-1
 819 3276 l 1,9,-1
 2457 3276 l 1,10,-1
 2457 2457 l 1,11,-1
 819 2457 l 1,12,-1
 819 0 l 1,13,-1
 0 0 l 1,4,-1
EndSplineSet
Validated: 5
EndChar

StartChar: uni0421
Encoding: 1057 1057 193
Width: 4096
Flags: W
LayerCount: 2
Fore
SplineSet
819 0 m 1,0,-1
 819 819 l 1,1,-1
 2457 819 l 1,2,-1
 2457 0 l 1,3,-1
 819 0 l 1,0,-1
2457 819 m 1,4,-1
 2457 1638 l 1,5,-1
 3276 1638 l 1,6,-1
 3276 819 l 1,7,-1
 2457 819 l 1,4,-1
0 819 m 1,8,-1
 0 4096 l 1,9,-1
 819 4096 l 1,10,-1
 819 819 l 1,11,-1
 0 819 l 1,8,-1
2457 3276 m 1,12,-1
 2457 4096 l 1,13,-1
 3276 4096 l 1,14,-1
 3276 3276 l 1,15,-1
 2457 3276 l 1,12,-1
819 4096 m 1,16,-1
 819 4915 l 1,17,-1
 2457 4915 l 1,18,-1
 2457 4096 l 1,19,-1
 819 4096 l 1,16,-1
EndSplineSet
Validated: 5
EndChar

StartChar: uni0422
Encoding: 1058 1058 194
Width: 4915
Flags: W
LayerCount: 2
Fore
SplineSet
1638 0 m 1,0,-1
 1638 4096 l 1,1,-1
 0 4096 l 1,2,-1
 0 4915 l 1,3,-1
 4096 4915 l 1,4,-1
 4096 4096 l 1,5,-1
 2457 4096 l 1,6,-1
 2457 0 l 1,7,-1
 1638 0 l 1,0,-1
EndSplineSet
Validated: 1
EndChar

StartChar: uni0423
Encoding: 1059 1059 195
Width: 4096
Flags: W
LayerCount: 2
Fore
SplineSet
0 0 m 1,0,-1
 0 819 l 1,1,-1
 2457 819 l 1,2,-1
 2457 2457 l 1,3,-1
 0 2457 l 1,4,-1
 0 4915 l 1,5,-1
 819 4915 l 1,6,-1
 819 3276 l 1,7,-1
 2457 3276 l 1,8,-1
 2457 4915 l 1,9,-1
 3276 4915 l 1,10,-1
 3276 0 l 1,11,-1
 0 0 l 1,0,-1
EndSplineSet
Validated: 1
EndChar

StartChar: uni0424
Encoding: 1060 1060 196
Width: 4915
Flags: W
LayerCount: 2
Fore
SplineSet
0 1638 m 1,0,-1
 0 3276 l 1,1,-1
 819 3276 l 1,2,-1
 819 1638 l 1,3,-1
 0 1638 l 1,0,-1
3276 1638 m 1,4,-1
 3276 3276 l 1,5,-1
 4096 3276 l 1,6,-1
 4096 1638 l 1,7,-1
 3276 1638 l 1,4,-1
1638 0 m 1,8,-1
 1638 819 l 1,9,-1
 819 819 l 1,10,-1
 819 1638 l 1,11,-1
 1638 1638 l 1,12,-1
 1638 3276 l 1,13,-1
 819 3276 l 1,14,-1
 819 4096 l 1,15,-1
 1638 4096 l 1,16,-1
 1638 4915 l 1,17,-1
 2457 4915 l 1,18,-1
 2457 4096 l 1,19,-1
 3276 4096 l 1,20,-1
 3276 3276 l 1,21,-1
 2457 3276 l 1,22,-1
 2457 1638 l 1,23,-1
 3276 1638 l 1,24,-1
 3276 819 l 1,25,-1
 2457 819 l 1,26,-1
 2457 0 l 1,27,-1
 1638 0 l 1,8,-1
EndSplineSet
Validated: 5
EndChar

StartChar: uni0425
Encoding: 1061 1061 197
Width: 4915
Flags: W
LayerCount: 2
Fore
SplineSet
0 0 m 1,0,-1
 0 819 l 1,1,-1
 819 819 l 1,2,-1
 819 0 l 1,3,-1
 0 0 l 1,0,-1
3276 0 m 1,4,-1
 3276 819 l 1,5,-1
 4096 819 l 1,6,-1
 4096 0 l 1,7,-1
 3276 0 l 1,4,-1
819 819 m 1,8,-1
 819 1638 l 1,9,-1
 1638 1638 l 1,10,-1
 1638 819 l 1,11,-1
 819 819 l 1,8,-1
2457 819 m 1,12,-1
 2457 1638 l 1,13,-1
 3276 1638 l 1,14,-1
 3276 819 l 1,15,-1
 2457 819 l 1,12,-1
1638 1638 m 1,16,-1
 1638 2457 l 1,17,-1
 2457 2457 l 1,18,-1
 2457 1638 l 1,19,-1
 1638 1638 l 1,16,-1
819 2457 m 1,20,-1
 819 3276 l 1,21,-1
 1638 3276 l 1,22,-1
 1638 2457 l 1,23,-1
 819 2457 l 1,20,-1
2457 2457 m 1,24,-1
 2457 3276 l 1,25,-1
 3276 3276 l 1,26,-1
 3276 2457 l 1,27,-1
 2457 2457 l 1,24,-1
0 3276 m 1,28,-1
 0 4915 l 1,29,-1
 819 4915 l 1,30,-1
 819 3276 l 1,31,-1
 0 3276 l 1,28,-1
3276 3276 m 1,32,-1
 3276 4915 l 1,33,-1
 4096 4915 l 1,34,-1
 4096 3276 l 1,35,-1
 3276 3276 l 1,32,-1
EndSplineSet
Validated: 5
EndChar

StartChar: uni0426
Encoding: 1062 1062 198
Width: 4915
Flags: W
LayerCount: 2
Fore
SplineSet
3276 -819 m 1,0,-1
 3276 0 l 1,1,-1
 0 0 l 1,2,-1
 0 4915 l 1,3,-1
 819 4915 l 1,4,-1
 819 819 l 1,5,-1
 2457 819 l 1,6,-1
 2457 4915 l 1,7,-1
 3276 4915 l 1,8,-1
 3276 819 l 1,9,-1
 4096 819 l 1,10,-1
 4096 -819 l 1,11,-1
 3276 -819 l 1,0,-1
EndSplineSet
Validated: 1
EndChar

StartChar: uni0427
Encoding: 1063 1063 199
Width: 4096
Flags: W
LayerCount: 2
Fore
SplineSet
2457 0 m 1,0,-1
 2457 2457 l 1,1,-1
 0 2457 l 1,2,-1
 0 4915 l 1,3,-1
 819 4915 l 1,4,-1
 819 3276 l 1,5,-1
 2457 3276 l 1,6,-1
 2457 4915 l 1,7,-1
 3276 4915 l 1,8,-1
 3276 0 l 1,9,-1
 2457 0 l 1,0,-1
EndSplineSet
Validated: 1
EndChar

StartChar: uni0428
Encoding: 1064 1064 200
Width: 4915
Flags: W
LayerCount: 2
Fore
SplineSet
0 0 m 1,0,-1
 0 4915 l 1,1,-1
 819 4915 l 1,2,-1
 819 819 l 1,3,-1
 1638 819 l 1,4,-1
 1638 4915 l 1,5,-1
 2457 4915 l 1,6,-1
 2457 819 l 1,7,-1
 3276 819 l 1,8,-1
 3276 4915 l 1,9,-1
 4096 4915 l 1,10,-1
 4096 0 l 1,11,-1
 0 0 l 1,0,-1
EndSplineSet
Validated: 1
EndChar

StartChar: uni0429
Encoding: 1065 1065 201
Width: 5734
Flags: W
LayerCount: 2
Fore
SplineSet
4096 -819 m 1,0,-1
 4096 0 l 1,1,-1
 0 0 l 1,2,-1
 0 4915 l 1,3,-1
 819 4915 l 1,4,-1
 819 819 l 1,5,-1
 1638 819 l 1,6,-1
 1638 4915 l 1,7,-1
 2457 4915 l 1,8,-1
 2457 819 l 1,9,-1
 3276 819 l 1,10,-1
 3276 4915 l 1,11,-1
 4096 4915 l 1,12,-1
 4096 819 l 1,13,-1
 4915 819 l 1,14,-1
 4915 -819 l 1,15,-1
 4096 -819 l 1,0,-1
EndSplineSet
Validated: 1
EndChar

StartChar: uni042A
Encoding: 1066 1066 202
Width: 4915
Flags: W
LayerCount: 2
Fore
SplineSet
3276 819 m 1,0,-1
 3276 1638 l 1,1,-1
 1638 1638 l 1,2,-1
 1638 819 l 1,3,-1
 3276 819 l 1,0,-1
819 0 m 1,4,-1
 819 4096 l 1,5,-1
 0 4096 l 1,6,-1
 0 4915 l 1,7,-1
 1638 4915 l 1,8,-1
 1638 2457 l 1,9,-1
 4096 2457 l 1,10,-1
 4096 0 l 1,11,-1
 819 0 l 1,4,-1
EndSplineSet
Validated: 1
EndChar

StartChar: uni042B
Encoding: 1067 1067 203
Width: 5734
Flags: W
LayerCount: 2
Fore
SplineSet
2457 819 m 1,0,-1
 2457 1638 l 1,1,-1
 819 1638 l 1,2,-1
 819 819 l 1,3,-1
 2457 819 l 1,0,-1
0 0 m 1,4,-1
 0 4915 l 1,5,-1
 819 4915 l 1,6,-1
 819 2457 l 1,7,-1
 3276 2457 l 1,8,-1
 3276 0 l 1,9,-1
 0 0 l 1,4,-1
4096 0 m 1,10,-1
 4096 4915 l 1,11,-1
 4915 4915 l 1,12,-1
 4915 0 l 1,13,-1
 4096 0 l 1,10,-1
EndSplineSet
Validated: 1
EndChar

StartChar: uni042C
Encoding: 1068 1068 204
Width: 4096
Flags: W
LayerCount: 2
Fore
SplineSet
2457 819 m 1,0,-1
 2457 1638 l 1,1,-1
 819 1638 l 1,2,-1
 819 819 l 1,3,-1
 2457 819 l 1,0,-1
0 0 m 1,4,-1
 0 4915 l 1,5,-1
 819 4915 l 1,6,-1
 819 2457 l 1,7,-1
 3276 2457 l 1,8,-1
 3276 0 l 1,9,-1
 0 0 l 1,4,-1
EndSplineSet
Validated: 1
EndChar

StartChar: uni042D
Encoding: 1069 1069 205
Width: 4096
Flags: W
LayerCount: 2
Fore
SplineSet
0 0 m 1,0,-1
 0 819 l 1,1,-1
 2457 819 l 1,2,-1
 2457 0 l 1,3,-1
 0 0 l 1,0,-1
2457 819 m 1,4,-1
 2457 2457 l 1,5,-1
 0 2457 l 1,6,-1
 0 3276 l 1,7,-1
 2457 3276 l 1,8,-1
 2457 4096 l 1,9,-1
 3276 4096 l 1,10,-1
 3276 819 l 1,11,-1
 2457 819 l 1,4,-1
0 4096 m 1,12,-1
 0 4915 l 1,13,-1
 2457 4915 l 1,14,-1
 2457 4096 l 1,15,-1
 0 4096 l 1,12,-1
EndSplineSet
Validated: 5
EndChar

StartChar: uni042E
Encoding: 1070 1070 206
Width: 6553
Flags: W
LayerCount: 2
Fore
SplineSet
3276 0 m 1,0,-1
 3276 819 l 1,1,-1
 4915 819 l 1,2,-1
 4915 0 l 1,3,-1
 3276 0 l 1,0,-1
4915 819 m 1,4,-1
 4915 4096 l 1,5,-1
 5734 4096 l 1,6,-1
 5734 819 l 1,7,-1
 4915 819 l 1,4,-1
0 0 m 1,8,-1
 0 4915 l 1,9,-1
 819 4915 l 1,10,-1
 819 3276 l 1,11,-1
 2457 3276 l 1,12,-1
 2457 4096 l 1,13,-1
 3276 4096 l 1,14,-1
 3276 819 l 1,15,-1
 2457 819 l 1,16,-1
 2457 2457 l 1,17,-1
 819 2457 l 1,18,-1
 819 0 l 1,19,-1
 0 0 l 1,8,-1
3276 4096 m 1,20,-1
 3276 4915 l 1,21,-1
 4915 4915 l 1,22,-1
 4915 4096 l 1,23,-1
 3276 4096 l 1,20,-1
EndSplineSet
Validated: 5
EndChar

StartChar: uni042F
Encoding: 1071 1071 207
Width: 4096
Flags: W
LayerCount: 2
Fore
SplineSet
0 0 m 1,0,-1
 0 2457 l 1,1,-1
 819 2457 l 1,2,-1
 819 0 l 1,3,-1
 0 0 l 1,0,-1
0 3276 m 1,4,-1
 0 4096 l 1,5,-1
 819 4096 l 1,6,-1
 819 3276 l 1,7,-1
 0 3276 l 1,4,-1
2457 0 m 1,8,-1
 2457 2457 l 1,9,-1
 819 2457 l 1,10,-1
 819 3276 l 1,11,-1
 2457 3276 l 1,12,-1
 2457 4096 l 1,13,-1
 819 4096 l 1,14,-1
 819 4915 l 1,15,-1
 3276 4915 l 1,16,-1
 3276 0 l 1,17,-1
 2457 0 l 1,8,-1
EndSplineSet
Validated: 5
EndChar

StartChar: uni0430
Encoding: 1072 1072 208
Width: 4096
Flags: W
LayerCount: 2
Fore
SplineSet
2457 819 m 1,0,-1
 2457 1638 l 1,1,-1
 819 1638 l 1,2,-1
 819 819 l 1,3,-1
 2457 819 l 1,0,-1
0 0 m 1,4,-1
 0 2457 l 1,5,-1
 2457 2457 l 1,6,-1
 2457 3276 l 1,7,-1
 3276 3276 l 1,8,-1
 3276 0 l 1,9,-1
 0 0 l 1,4,-1
0 3276 m 1,10,-1
 0 4096 l 1,11,-1
 2457 4096 l 1,12,-1
 2457 3276 l 1,13,-1
 0 3276 l 1,10,-1
EndSplineSet
Validated: 5
EndChar

StartChar: uni0431
Encoding: 1073 1073 209
Width: 4096
Flags: W
LayerCount: 2
Fore
SplineSet
819 0 m 1,0,-1
 819 819 l 1,1,-1
 2457 819 l 1,2,-1
 2457 0 l 1,3,-1
 819 0 l 1,0,-1
2457 819 m 1,4,-1
 2457 1638 l 1,5,-1
 3276 1638 l 1,6,-1
 3276 819 l 1,7,-1
 2457 819 l 1,4,-1
0 819 m 1,8,-1
 0 3276 l 1,9,-1
 819 3276 l 1,10,-1
 819 2457 l 1,11,-1
 2457 2457 l 1,12,-1
 2457 1638 l 1,13,-1
 819 1638 l 1,14,-1
 819 819 l 1,15,-1
 0 819 l 1,8,-1
819 3276 m 1,16,-1
 819 4096 l 1,17,-1
 2457 4096 l 1,18,-1
 2457 4915 l 1,19,-1
 3276 4915 l 1,20,-1
 3276 3276 l 1,21,-1
 819 3276 l 1,16,-1
EndSplineSet
Validated: 5
EndChar

StartChar: uni0432
Encoding: 1074 1074 210
Width: 4096
Flags: W
LayerCount: 2
Fore
SplineSet
2457 819 m 1,0,-1
 2457 1638 l 1,1,-1
 3276 1638 l 1,2,-1
 3276 819 l 1,3,-1
 2457 819 l 1,0,-1
2457 2457 m 1,4,-1
 2457 3276 l 1,5,-1
 3276 3276 l 1,6,-1
 3276 2457 l 1,7,-1
 2457 2457 l 1,4,-1
0 0 m 1,8,-1
 0 4096 l 1,9,-1
 2457 4096 l 1,10,-1
 2457 3276 l 1,11,-1
 819 3276 l 1,12,-1
 819 2457 l 1,13,-1
 2457 2457 l 1,14,-1
 2457 1638 l 1,15,-1
 819 1638 l 1,16,-1
 819 819 l 1,17,-1
 2457 819 l 1,18,-1
 2457 0 l 1,19,-1
 0 0 l 1,8,-1
EndSplineSet
Validated: 5
EndChar

StartChar: uni0433
Encoding: 1075 1075 211
Width: 4096
Flags: W
LayerCount: 2
Fore
SplineSet
0 0 m 1,0,-1
 0 4096 l 1,1,-1
 3276 4096 l 1,2,-1
 3276 3276 l 1,3,-1
 819 3276 l 1,4,-1
 819 0 l 1,5,-1
 0 0 l 1,0,-1
EndSplineSet
Validated: 1
EndChar

StartChar: uni0434
Encoding: 1076 1076 212
Width: 4915
Flags: W
LayerCount: 2
Fore
SplineSet
2457 819 m 1,0,-1
 2457 3276 l 1,1,-1
 1638 3276 l 1,2,-1
 1638 819 l 1,3,-1
 2457 819 l 1,0,-1
0 -819 m 1,4,-1
 0 819 l 1,5,-1
 819 819 l 1,6,-1
 819 4096 l 1,7,-1
 3276 4096 l 1,8,-1
 3276 819 l 1,9,-1
 4096 819 l 1,10,-1
 4096 -819 l 1,11,-1
 3276 -819 l 1,12,-1
 3276 0 l 1,13,-1
 819 0 l 1,14,-1
 819 -819 l 1,15,-1
 0 -819 l 1,4,-1
EndSplineSet
Validated: 1
EndChar

StartChar: uni0435
Encoding: 1077 1077 213
Width: 4096
Flags: W
LayerCount: 2
Fore
SplineSet
2457 2457 m 1,0,-1
 2457 3276 l 1,1,-1
 819 3276 l 1,2,-1
 819 2457 l 1,3,-1
 2457 2457 l 1,0,-1
0 0 m 1,4,-1
 0 4096 l 1,5,-1
 3276 4096 l 1,6,-1
 3276 1638 l 1,7,-1
 819 1638 l 1,8,-1
 819 819 l 1,9,-1
 3276 819 l 1,10,-1
 3276 0 l 1,11,-1
 0 0 l 1,4,-1
EndSplineSet
Validated: 1
EndChar

StartChar: uni0436
Encoding: 1078 1078 214
Width: 4915
Flags: W
LayerCount: 2
Fore
SplineSet
0 0 m 1,0,-1
 0 1638 l 1,1,-1
 819 1638 l 1,2,-1
 819 0 l 1,3,-1
 0 0 l 1,0,-1
3276 0 m 1,4,-1
 3276 1638 l 1,5,-1
 4096 1638 l 1,6,-1
 4096 0 l 1,7,-1
 3276 0 l 1,4,-1
0 3276 m 1,8,-1
 0 4096 l 1,9,-1
 819 4096 l 1,10,-1
 819 3276 l 1,11,-1
 0 3276 l 1,8,-1
1638 0 m 1,12,-1
 1638 1638 l 1,13,-1
 819 1638 l 1,14,-1
 819 3276 l 1,15,-1
 1638 3276 l 1,16,-1
 1638 4096 l 1,17,-1
 2457 4096 l 1,18,-1
 2457 3276 l 1,19,-1
 3276 3276 l 1,20,-1
 3276 1638 l 1,21,-1
 2457 1638 l 1,22,-1
 2457 0 l 1,23,-1
 1638 0 l 1,12,-1
3276 3276 m 1,24,-1
 3276 4096 l 1,25,-1
 4096 4096 l 1,26,-1
 4096 3276 l 1,27,-1
 3276 3276 l 1,24,-1
EndSplineSet
Validated: 5
EndChar

StartChar: uni0437
Encoding: 1079 1079 215
Width: 4096
Flags: W
LayerCount: 2
Fore
SplineSet
0 0 m 1,0,-1
 0 819 l 1,1,-1
 2457 819 l 1,2,-1
 2457 0 l 1,3,-1
 0 0 l 1,0,-1
2457 819 m 1,4,-1
 2457 1638 l 1,5,-1
 3276 1638 l 1,6,-1
 3276 819 l 1,7,-1
 2457 819 l 1,4,-1
0 1638 m 1,8,-1
 0 2457 l 1,9,-1
 2457 2457 l 1,10,-1
 2457 1638 l 1,11,-1
 0 1638 l 1,8,-1
2457 2457 m 1,12,-1
 2457 3276 l 1,13,-1
 3276 3276 l 1,14,-1
 3276 2457 l 1,15,-1
 2457 2457 l 1,12,-1
0 3276 m 1,16,-1
 0 4096 l 1,17,-1
 2457 4096 l 1,18,-1
 2457 3276 l 1,19,-1
 0 3276 l 1,16,-1
EndSplineSet
Validated: 5
EndChar

StartChar: uni0438
Encoding: 1080 1080 216
Width: 4096
Flags: W
LayerCount: 2
Fore
SplineSet
0 0 m 1,0,-1
 0 4096 l 1,1,-1
 819 4096 l 1,2,-1
 819 2457 l 1,3,-1
 1638 2457 l 1,4,-1
 1638 1638 l 1,5,-1
 819 1638 l 1,6,-1
 819 0 l 1,7,-1
 0 0 l 1,0,-1
2457 0 m 1,8,-1
 2457 2457 l 1,9,-1
 1638 2457 l 1,10,-1
 1638 3276 l 1,11,-1
 2457 3276 l 1,12,-1
 2457 4096 l 1,13,-1
 3276 4096 l 1,14,-1
 3276 0 l 1,15,-1
 2457 0 l 1,8,-1
EndSplineSet
Validated: 5
EndChar

StartChar: uni0439
Encoding: 1081 1081 217
Width: 4096
Flags: W
LayerCount: 2
Fore
SplineSet
0 0 m 1,0,-1
 0 4096 l 1,1,-1
 819 4096 l 1,2,-1
 819 2457 l 1,3,-1
 1638 2457 l 1,4,-1
 1638 1638 l 1,5,-1
 819 1638 l 1,6,-1
 819 0 l 1,7,-1
 0 0 l 1,0,-1
2457 0 m 1,8,-1
 2457 2457 l 1,9,-1
 1638 2457 l 1,10,-1
 1638 3276 l 1,11,-1
 2457 3276 l 1,12,-1
 2457 4096 l 1,13,-1
 3276 4096 l 1,14,-1
 3276 0 l 1,15,-1
 2457 0 l 1,8,-1
819 4915 m 1,16,-1
 819 5734 l 1,17,-1
 2457 5734 l 1,18,-1
 2457 4915 l 1,19,-1
 819 4915 l 1,16,-1
0 5734 m 1,20,-1
 0 6553 l 1,21,-1
 819 6553 l 1,22,-1
 819 5734 l 1,23,-1
 0 5734 l 1,20,-1
2457 5734 m 1,24,-1
 2457 6553 l 1,25,-1
 3276 6553 l 1,26,-1
 3276 5734 l 1,27,-1
 2457 5734 l 1,24,-1
EndSplineSet
Validated: 5
EndChar

StartChar: uni043A
Encoding: 1082 1082 218
Width: 4096
Flags: W
LayerCount: 2
Fore
SplineSet
2457 0 m 1,0,-1
 2457 819 l 1,1,-1
 3276 819 l 1,2,-1
 3276 0 l 1,3,-1
 2457 0 l 1,0,-1
1638 819 m 1,4,-1
 1638 1638 l 1,5,-1
 2457 1638 l 1,6,-1
 2457 819 l 1,7,-1
 1638 819 l 1,4,-1
1638 2457 m 1,8,-1
 1638 3276 l 1,9,-1
 2457 3276 l 1,10,-1
 2457 2457 l 1,11,-1
 1638 2457 l 1,8,-1
0 0 m 1,12,-1
 0 4096 l 1,13,-1
 819 4096 l 1,14,-1
 819 2457 l 1,15,-1
 1638 2457 l 1,16,-1
 1638 1638 l 1,17,-1
 819 1638 l 1,18,-1
 819 0 l 1,19,-1
 0 0 l 1,12,-1
2457 3276 m 1,20,-1
 2457 4096 l 1,21,-1
 3276 4096 l 1,22,-1
 3276 3276 l 1,23,-1
 2457 3276 l 1,20,-1
EndSplineSet
Validated: 5
EndChar

StartChar: uni043B
Encoding: 1083 1083 219
Width: 4915
Flags: W
LayerCount: 2
Fore
SplineSet
0 0 m 1,0,-1
 0 819 l 1,1,-1
 819 819 l 1,2,-1
 819 0 l 1,3,-1
 0 0 l 1,0,-1
3276 0 m 1,4,-1
 3276 3276 l 1,5,-1
 1638 3276 l 1,6,-1
 1638 819 l 1,7,-1
 819 819 l 1,8,-1
 819 4096 l 1,9,-1
 4096 4096 l 1,10,-1
 4096 0 l 1,11,-1
 3276 0 l 1,4,-1
EndSplineSet
Validated: 5
EndChar

StartChar: uni043C
Encoding: 1084 1084 220
Width: 4915
Flags: W
LayerCount: 2
Fore
SplineSet
1638 1638 m 1,0,-1
 1638 2457 l 1,1,-1
 2457 2457 l 1,2,-1
 2457 1638 l 1,3,-1
 1638 1638 l 1,0,-1
0 0 m 1,4,-1
 0 4096 l 1,5,-1
 819 4096 l 1,6,-1
 819 3276 l 1,7,-1
 1638 3276 l 1,8,-1
 1638 2457 l 1,9,-1
 819 2457 l 1,10,-1
 819 0 l 1,11,-1
 0 0 l 1,4,-1
3276 0 m 1,12,-1
 3276 2457 l 1,13,-1
 2457 2457 l 1,14,-1
 2457 3276 l 1,15,-1
 3276 3276 l 1,16,-1
 3276 4096 l 1,17,-1
 4096 4096 l 1,18,-1
 4096 0 l 1,19,-1
 3276 0 l 1,12,-1
EndSplineSet
Validated: 5
EndChar

StartChar: uni043D
Encoding: 1085 1085 221
Width: 4096
Flags: W
LayerCount: 2
Fore
SplineSet
0 0 m 1,0,-1
 0 4096 l 1,1,-1
 819 4096 l 1,2,-1
 819 2457 l 1,3,-1
 2457 2457 l 1,4,-1
 2457 4096 l 1,5,-1
 3276 4096 l 1,6,-1
 3276 0 l 1,7,-1
 2457 0 l 1,8,-1
 2457 1638 l 1,9,-1
 819 1638 l 1,10,-1
 819 0 l 1,11,-1
 0 0 l 1,0,-1
EndSplineSet
Validated: 1
EndChar

StartChar: uni043E
Encoding: 1086 1086 222
Width: 4096
Flags: W
LayerCount: 2
Fore
SplineSet
819 0 m 1,0,-1
 819 819 l 1,1,-1
 2457 819 l 1,2,-1
 2457 0 l 1,3,-1
 819 0 l 1,0,-1
0 819 m 1,4,-1
 0 3276 l 1,5,-1
 819 3276 l 1,6,-1
 819 819 l 1,7,-1
 0 819 l 1,4,-1
2457 819 m 1,8,-1
 2457 3276 l 1,9,-1
 3276 3276 l 1,10,-1
 3276 819 l 1,11,-1
 2457 819 l 1,8,-1
819 3276 m 1,12,-1
 819 4096 l 1,13,-1
 2457 4096 l 1,14,-1
 2457 3276 l 1,15,-1
 819 3276 l 1,12,-1
EndSplineSet
Validated: 5
EndChar

StartChar: uni043F
Encoding: 1087 1087 223
Width: 4096
Flags: W
LayerCount: 2
Fore
SplineSet
0 0 m 1,0,-1
 0 4096 l 1,1,-1
 3276 4096 l 1,2,-1
 3276 0 l 1,3,-1
 2457 0 l 1,4,-1
 2457 3276 l 1,5,-1
 819 3276 l 1,6,-1
 819 0 l 1,7,-1
 0 0 l 1,0,-1
EndSplineSet
Validated: 1
EndChar

StartChar: uni0440
Encoding: 1088 1088 224
Width: 4096
Flags: W
LayerCount: 2
Fore
SplineSet
2457 2457 m 1,0,-1
 2457 3276 l 1,1,-1
 819 3276 l 1,2,-1
 819 2457 l 1,3,-1
 2457 2457 l 1,0,-1
0 0 m 1,4,-1
 0 4096 l 1,5,-1
 3276 4096 l 1,6,-1
 3276 1638 l 1,7,-1
 819 1638 l 1,8,-1
 819 0 l 1,9,-1
 0 0 l 1,4,-1
EndSplineSet
Validated: 1
EndChar

StartChar: uni0441
Encoding: 1089 1089 225
Width: 4096
Flags: W
LayerCount: 2
Fore
SplineSet
819 0 m 1,0,-1
 819 819 l 1,1,-1
 2457 819 l 1,2,-1
 2457 0 l 1,3,-1
 819 0 l 1,0,-1
2457 819 m 1,4,-1
 2457 1638 l 1,5,-1
 3276 1638 l 1,6,-1
 3276 819 l 1,7,-1
 2457 819 l 1,4,-1
0 819 m 1,8,-1
 0 3276 l 1,9,-1
 819 3276 l 1,10,-1
 819 819 l 1,11,-1
 0 819 l 1,8,-1
2457 2457 m 1,12,-1
 2457 3276 l 1,13,-1
 3276 3276 l 1,14,-1
 3276 2457 l 1,15,-1
 2457 2457 l 1,12,-1
819 3276 m 1,16,-1
 819 4096 l 1,17,-1
 2457 4096 l 1,18,-1
 2457 3276 l 1,19,-1
 819 3276 l 1,16,-1
EndSplineSet
Validated: 5
EndChar

StartChar: uni0442
Encoding: 1090 1090 226
Width: 4915
Flags: W
LayerCount: 2
Fore
SplineSet
1638 0 m 1,0,-1
 1638 3276 l 1,1,-1
 0 3276 l 1,2,-1
 0 4096 l 1,3,-1
 4096 4096 l 1,4,-1
 4096 3276 l 1,5,-1
 2457 3276 l 1,6,-1
 2457 0 l 1,7,-1
 1638 0 l 1,0,-1
EndSplineSet
Validated: 1
EndChar

StartChar: uni0443
Encoding: 1091 1091 227
Width: 4096
Flags: W
LayerCount: 2
Fore
SplineSet
0 0 m 1,0,-1
 0 819 l 1,1,-1
 2457 819 l 1,2,-1
 2457 1638 l 1,3,-1
 0 1638 l 1,4,-1
 0 4096 l 1,5,-1
 819 4096 l 1,6,-1
 819 2457 l 1,7,-1
 2457 2457 l 1,8,-1
 2457 4096 l 1,9,-1
 3276 4096 l 1,10,-1
 3276 0 l 1,11,-1
 0 0 l 1,0,-1
EndSplineSet
Validated: 1
EndChar

StartChar: uni0444
Encoding: 1092 1092 228
Width: 4915
Flags: W
LayerCount: 2
Fore
SplineSet
0 1638 m 1,0,-1
 0 2457 l 1,1,-1
 819 2457 l 1,2,-1
 819 1638 l 1,3,-1
 0 1638 l 1,0,-1
3276 1638 m 1,4,-1
 3276 2457 l 1,5,-1
 4096 2457 l 1,6,-1
 4096 1638 l 1,7,-1
 3276 1638 l 1,4,-1
1638 0 m 1,8,-1
 1638 819 l 1,9,-1
 819 819 l 1,10,-1
 819 1638 l 1,11,-1
 1638 1638 l 1,12,-1
 1638 2457 l 1,13,-1
 819 2457 l 1,14,-1
 819 3276 l 1,15,-1
 1638 3276 l 1,16,-1
 1638 4096 l 1,17,-1
 2457 4096 l 1,18,-1
 2457 3276 l 1,19,-1
 3276 3276 l 1,20,-1
 3276 2457 l 1,21,-1
 2457 2457 l 1,22,-1
 2457 1638 l 1,23,-1
 3276 1638 l 1,24,-1
 3276 819 l 1,25,-1
 2457 819 l 1,26,-1
 2457 0 l 1,27,-1
 1638 0 l 1,8,-1
EndSplineSet
Validated: 5
EndChar

StartChar: uni0445
Encoding: 1093 1093 229
Width: 4915
Flags: W
LayerCount: 2
Fore
SplineSet
0 0 m 1,0,-1
 0 819 l 1,1,-1
 819 819 l 1,2,-1
 819 0 l 1,3,-1
 0 0 l 1,0,-1
3276 0 m 1,4,-1
 3276 819 l 1,5,-1
 4096 819 l 1,6,-1
 4096 0 l 1,7,-1
 3276 0 l 1,4,-1
819 819 m 1,8,-1
 819 1638 l 1,9,-1
 1638 1638 l 1,10,-1
 1638 819 l 1,11,-1
 819 819 l 1,8,-1
2457 819 m 1,12,-1
 2457 1638 l 1,13,-1
 3276 1638 l 1,14,-1
 3276 819 l 1,15,-1
 2457 819 l 1,12,-1
1638 1638 m 1,16,-1
 1638 2457 l 1,17,-1
 2457 2457 l 1,18,-1
 2457 1638 l 1,19,-1
 1638 1638 l 1,16,-1
819 2457 m 1,20,-1
 819 3276 l 1,21,-1
 1638 3276 l 1,22,-1
 1638 2457 l 1,23,-1
 819 2457 l 1,20,-1
2457 2457 m 1,24,-1
 2457 3276 l 1,25,-1
 3276 3276 l 1,26,-1
 3276 2457 l 1,27,-1
 2457 2457 l 1,24,-1
0 3276 m 1,28,-1
 0 4096 l 1,29,-1
 819 4096 l 1,30,-1
 819 3276 l 1,31,-1
 0 3276 l 1,28,-1
3276 3276 m 1,32,-1
 3276 4096 l 1,33,-1
 4096 4096 l 1,34,-1
 4096 3276 l 1,35,-1
 3276 3276 l 1,32,-1
EndSplineSet
Validated: 5
EndChar

StartChar: uni0446
Encoding: 1094 1094 230
Width: 4915
Flags: W
LayerCount: 2
Fore
SplineSet
3276 -819 m 1,0,-1
 3276 0 l 1,1,-1
 0 0 l 1,2,-1
 0 4096 l 1,3,-1
 819 4096 l 1,4,-1
 819 819 l 1,5,-1
 2457 819 l 1,6,-1
 2457 4096 l 1,7,-1
 3276 4096 l 1,8,-1
 3276 819 l 1,9,-1
 4096 819 l 1,10,-1
 4096 -819 l 1,11,-1
 3276 -819 l 1,0,-1
EndSplineSet
Validated: 1
EndChar

StartChar: uni0447
Encoding: 1095 1095 231
Width: 4096
Flags: W
LayerCount: 2
Fore
SplineSet
2457 0 m 1,0,-1
 2457 1638 l 1,1,-1
 0 1638 l 1,2,-1
 0 4096 l 1,3,-1
 819 4096 l 1,4,-1
 819 2457 l 1,5,-1
 2457 2457 l 1,6,-1
 2457 4096 l 1,7,-1
 3276 4096 l 1,8,-1
 3276 0 l 1,9,-1
 2457 0 l 1,0,-1
EndSplineSet
Validated: 1
EndChar

StartChar: uni0448
Encoding: 1096 1096 232
Width: 4915
Flags: W
LayerCount: 2
Fore
SplineSet
0 0 m 1,0,-1
 0 4096 l 1,1,-1
 819 4096 l 1,2,-1
 819 819 l 1,3,-1
 1638 819 l 1,4,-1
 1638 4096 l 1,5,-1
 2457 4096 l 1,6,-1
 2457 819 l 1,7,-1
 3276 819 l 1,8,-1
 3276 4096 l 1,9,-1
 4096 4096 l 1,10,-1
 4096 0 l 1,11,-1
 0 0 l 1,0,-1
EndSplineSet
Validated: 1
EndChar

StartChar: uni0449
Encoding: 1097 1097 233
Width: 5734
Flags: W
LayerCount: 2
Fore
SplineSet
4096 -819 m 1,0,-1
 4096 0 l 1,1,-1
 0 0 l 1,2,-1
 0 4096 l 1,3,-1
 819 4096 l 1,4,-1
 819 819 l 1,5,-1
 1638 819 l 1,6,-1
 1638 4096 l 1,7,-1
 2457 4096 l 1,8,-1
 2457 819 l 1,9,-1
 3276 819 l 1,10,-1
 3276 4096 l 1,11,-1
 4096 4096 l 1,12,-1
 4096 819 l 1,13,-1
 4915 819 l 1,14,-1
 4915 -819 l 1,15,-1
 4096 -819 l 1,0,-1
EndSplineSet
Validated: 1
EndChar

StartChar: uni044A
Encoding: 1098 1098 234
Width: 4915
Flags: W
LayerCount: 2
Fore
SplineSet
3276 819 m 1,0,-1
 3276 1638 l 1,1,-1
 1638 1638 l 1,2,-1
 1638 819 l 1,3,-1
 3276 819 l 1,0,-1
819 0 m 1,4,-1
 819 3276 l 1,5,-1
 0 3276 l 1,6,-1
 0 4096 l 1,7,-1
 1638 4096 l 1,8,-1
 1638 2457 l 1,9,-1
 4096 2457 l 1,10,-1
 4096 0 l 1,11,-1
 819 0 l 1,4,-1
EndSplineSet
Validated: 1
EndChar

StartChar: uni044B
Encoding: 1099 1099 235
Width: 5734
Flags: W
LayerCount: 2
Fore
SplineSet
2457 819 m 1,0,-1
 2457 1638 l 1,1,-1
 819 1638 l 1,2,-1
 819 819 l 1,3,-1
 2457 819 l 1,0,-1
0 0 m 1,4,-1
 0 4096 l 1,5,-1
 819 4096 l 1,6,-1
 819 2457 l 1,7,-1
 3276 2457 l 1,8,-1
 3276 0 l 1,9,-1
 0 0 l 1,4,-1
4096 0 m 1,10,-1
 4096 4096 l 1,11,-1
 4915 4096 l 1,12,-1
 4915 0 l 1,13,-1
 4096 0 l 1,10,-1
EndSplineSet
Validated: 1
EndChar

StartChar: uni044C
Encoding: 1100 1100 236
Width: 4096
Flags: W
LayerCount: 2
Fore
SplineSet
2457 819 m 1,0,-1
 2457 1638 l 1,1,-1
 819 1638 l 1,2,-1
 819 819 l 1,3,-1
 2457 819 l 1,0,-1
0 0 m 1,4,-1
 0 4096 l 1,5,-1
 819 4096 l 1,6,-1
 819 2457 l 1,7,-1
 3276 2457 l 1,8,-1
 3276 0 l 1,9,-1
 0 0 l 1,4,-1
EndSplineSet
Validated: 1
EndChar

StartChar: uni044D
Encoding: 1101 1101 237
Width: 4096
Flags: W
LayerCount: 2
Fore
SplineSet
0 0 m 1,0,-1
 0 819 l 1,1,-1
 2457 819 l 1,2,-1
 2457 0 l 1,3,-1
 0 0 l 1,0,-1
2457 819 m 1,4,-1
 2457 1638 l 1,5,-1
 0 1638 l 1,6,-1
 0 2457 l 1,7,-1
 2457 2457 l 1,8,-1
 2457 3276 l 1,9,-1
 3276 3276 l 1,10,-1
 3276 819 l 1,11,-1
 2457 819 l 1,4,-1
0 3276 m 1,12,-1
 0 4096 l 1,13,-1
 2457 4096 l 1,14,-1
 2457 3276 l 1,15,-1
 0 3276 l 1,12,-1
EndSplineSet
Validated: 5
EndChar

StartChar: uni044E
Encoding: 1102 1102 238
Width: 6553
Flags: W
LayerCount: 2
Fore
SplineSet
3276 0 m 1,0,-1
 3276 819 l 1,1,-1
 4915 819 l 1,2,-1
 4915 0 l 1,3,-1
 3276 0 l 1,0,-1
4915 819 m 1,4,-1
 4915 3276 l 1,5,-1
 5734 3276 l 1,6,-1
 5734 819 l 1,7,-1
 4915 819 l 1,4,-1
0 0 m 1,8,-1
 0 4096 l 1,9,-1
 819 4096 l 1,10,-1
 819 2457 l 1,11,-1
 2457 2457 l 1,12,-1
 2457 3276 l 1,13,-1
 3276 3276 l 1,14,-1
 3276 819 l 1,15,-1
 2457 819 l 1,16,-1
 2457 1638 l 1,17,-1
 819 1638 l 1,18,-1
 819 0 l 1,19,-1
 0 0 l 1,8,-1
3276 3276 m 1,20,-1
 3276 4096 l 1,21,-1
 4915 4096 l 1,22,-1
 4915 3276 l 1,23,-1
 3276 3276 l 1,20,-1
EndSplineSet
Validated: 5
EndChar

StartChar: uni044F
Encoding: 1103 1103 239
Width: 4096
Flags: W
LayerCount: 2
Fore
SplineSet
0 0 m 1,0,-1
 0 1638 l 1,1,-1
 819 1638 l 1,2,-1
 819 0 l 1,3,-1
 0 0 l 1,0,-1
0 2457 m 1,4,-1
 0 3276 l 1,5,-1
 819 3276 l 1,6,-1
 819 2457 l 1,7,-1
 0 2457 l 1,4,-1
2457 0 m 1,8,-1
 2457 1638 l 1,9,-1
 819 1638 l 1,10,-1
 819 2457 l 1,11,-1
 2457 2457 l 1,12,-1
 2457 3276 l 1,13,-1
 819 3276 l 1,14,-1
 819 4096 l 1,15,-1
 3276 4096 l 1,16,-1
 3276 0 l 1,17,-1
 2457 0 l 1,8,-1
EndSplineSet
Validated: 5
EndChar

StartChar: uni0450
Encoding: 1104 1104 240
Width: 4096
Flags: W
LayerCount: 2
Fore
SplineSet
2457 2457 m 1,0,-1
 2457 3276 l 1,1,-1
 819 3276 l 1,2,-1
 819 2457 l 1,3,-1
 2457 2457 l 1,0,-1
0 0 m 1,4,-1
 0 4096 l 1,5,-1
 3276 4096 l 1,6,-1
 3276 1638 l 1,7,-1
 819 1638 l 1,8,-1
 819 819 l 1,9,-1
 3276 819 l 1,10,-1
 3276 0 l 1,11,-1
 0 0 l 1,4,-1
1638 4915 m 1,12,-1
 1638 5734 l 1,13,-1
 3276 5734 l 1,14,-1
 3276 4915 l 1,15,-1
 1638 4915 l 1,12,-1
0 5734 m 1,16,-1
 0 6553 l 1,17,-1
 1638 6553 l 1,18,-1
 1638 5734 l 1,19,-1
 0 5734 l 1,16,-1
EndSplineSet
Validated: 5
EndChar

StartChar: uni0451
Encoding: 1105 1105 241
Width: 4096
Flags: W
LayerCount: 2
Fore
SplineSet
2457 2457 m 1,0,-1
 2457 3276 l 1,1,-1
 819 3276 l 1,2,-1
 819 2457 l 1,3,-1
 2457 2457 l 1,0,-1
0 0 m 1,4,-1
 0 4096 l 1,5,-1
 3276 4096 l 1,6,-1
 3276 1638 l 1,7,-1
 819 1638 l 1,8,-1
 819 819 l 1,9,-1
 3276 819 l 1,10,-1
 3276 0 l 1,11,-1
 0 0 l 1,4,-1
0 4915 m 1,12,-1
 0 5734 l 1,13,-1
 819 5734 l 1,14,-1
 819 4915 l 1,15,-1
 0 4915 l 1,12,-1
2457 4915 m 1,16,-1
 2457 5734 l 1,17,-1
 3276 5734 l 1,18,-1
 3276 4915 l 1,19,-1
 2457 4915 l 1,16,-1
EndSplineSet
Validated: 1
EndChar

StartChar: uni0452
Encoding: 1106 1106 242
Width: 4096
Flags: W
LayerCount: 2
Fore
SplineSet
1638 -1638 m 1,0,-1
 1638 -819 l 1,1,-1
 2457 -819 l 1,2,-1
 2457 -1638 l 1,3,-1
 1638 -1638 l 1,0,-1
2457 -819 m 1,4,-1
 2457 1638 l 1,5,-1
 3276 1638 l 1,6,-1
 3276 -819 l 1,7,-1
 2457 -819 l 1,4,-1
819 0 m 1,8,-1
 819 3276 l 1,9,-1
 0 3276 l 1,10,-1
 0 4096 l 1,11,-1
 819 4096 l 1,12,-1
 819 4915 l 1,13,-1
 1638 4915 l 1,14,-1
 1638 4096 l 1,15,-1
 2457 4096 l 1,16,-1
 2457 3276 l 1,17,-1
 1638 3276 l 1,18,-1
 1638 2457 l 1,19,-1
 2457 2457 l 1,20,-1
 2457 1638 l 1,21,-1
 1638 1638 l 1,22,-1
 1638 0 l 1,23,-1
 819 0 l 1,8,-1
EndSplineSet
Validated: 5
EndChar

StartChar: uni0453
Encoding: 1107 1107 243
Width: 4096
Flags: W
LayerCount: 2
Fore
SplineSet
0 0 m 1,0,-1
 0 4096 l 1,1,-1
 3276 4096 l 1,2,-1
 3276 3276 l 1,3,-1
 819 3276 l 1,4,-1
 819 0 l 1,5,-1
 0 0 l 1,0,-1
0 4915 m 1,6,-1
 0 5734 l 1,7,-1
 1638 5734 l 1,8,-1
 1638 4915 l 1,9,-1
 0 4915 l 1,6,-1
1638 5734 m 1,10,-1
 1638 6553 l 1,11,-1
 3276 6553 l 1,12,-1
 3276 5734 l 1,13,-1
 1638 5734 l 1,10,-1
EndSplineSet
Validated: 5
EndChar

StartChar: uni0454
Encoding: 1108 1108 244
Width: 4096
Flags: W
LayerCount: 2
Fore
SplineSet
819 0 m 1,0,-1
 819 819 l 1,1,-1
 3276 819 l 1,2,-1
 3276 0 l 1,3,-1
 819 0 l 1,0,-1
0 819 m 1,4,-1
 0 3276 l 1,5,-1
 819 3276 l 1,6,-1
 819 2457 l 1,7,-1
 3276 2457 l 1,8,-1
 3276 1638 l 1,9,-1
 819 1638 l 1,10,-1
 819 819 l 1,11,-1
 0 819 l 1,4,-1
819 3276 m 1,12,-1
 819 4096 l 1,13,-1
 3276 4096 l 1,14,-1
 3276 3276 l 1,15,-1
 819 3276 l 1,12,-1
EndSplineSet
Validated: 5
EndChar

StartChar: uni0455
Encoding: 1109 1109 245
Width: 4096
Flags: W
LayerCount: 2
Fore
SplineSet
0 0 m 1,0,-1
 0 819 l 1,1,-1
 2457 819 l 1,2,-1
 2457 1638 l 1,3,-1
 0 1638 l 1,4,-1
 0 4096 l 1,5,-1
 3276 4096 l 1,6,-1
 3276 3276 l 1,7,-1
 819 3276 l 1,8,-1
 819 2457 l 1,9,-1
 3276 2457 l 1,10,-1
 3276 0 l 1,11,-1
 0 0 l 1,0,-1
EndSplineSet
Validated: 1
EndChar

StartChar: uni0456
Encoding: 1110 1110 246
Width: 1638
Flags: W
LayerCount: 2
Fore
SplineSet
0 0 m 1,0,-1
 0 3276 l 1,1,-1
 819 3276 l 1,2,-1
 819 0 l 1,3,-1
 0 0 l 1,0,-1
0 4096 m 1,4,-1
 0 4915 l 1,5,-1
 819 4915 l 1,6,-1
 819 4096 l 1,7,-1
 0 4096 l 1,4,-1
EndSplineSet
Validated: 1
EndChar

StartChar: uni0457
Encoding: 1111 1111 247
Width: 3276
Flags: W
LayerCount: 2
Fore
SplineSet
819 0 m 1,0,-1
 819 3276 l 1,1,-1
 1638 3276 l 1,2,-1
 1638 0 l 1,3,-1
 819 0 l 1,0,-1
0 4096 m 1,4,-1
 0 4915 l 1,5,-1
 819 4915 l 1,6,-1
 819 4096 l 1,7,-1
 0 4096 l 1,4,-1
1638 4096 m 1,8,-1
 1638 4915 l 1,9,-1
 2457 4915 l 1,10,-1
 2457 4096 l 1,11,-1
 1638 4096 l 1,8,-1
EndSplineSet
Validated: 1
EndChar

StartChar: uni0458
Encoding: 1112 1112 248
Width: 4096
Flags: W
LayerCount: 2
Fore
SplineSet
819 0 m 1,0,-1
 819 819 l 1,1,-1
 2457 819 l 1,2,-1
 2457 0 l 1,3,-1
 819 0 l 1,0,-1
0 819 m 1,4,-1
 0 1638 l 1,5,-1
 819 1638 l 1,6,-1
 819 819 l 1,7,-1
 0 819 l 1,4,-1
2457 819 m 1,8,-1
 2457 3276 l 1,9,-1
 3276 3276 l 1,10,-1
 3276 819 l 1,11,-1
 2457 819 l 1,8,-1
2457 4096 m 1,12,-1
 2457 4915 l 1,13,-1
 3276 4915 l 1,14,-1
 3276 4096 l 1,15,-1
 2457 4096 l 1,12,-1
EndSplineSet
Validated: 5
EndChar

StartChar: uni0459
Encoding: 1113 1113 249
Width: 7372
Flags: W
LayerCount: 2
Fore
SplineSet
0 0 m 1,0,-1
 0 819 l 1,1,-1
 819 819 l 1,2,-1
 819 0 l 1,3,-1
 0 0 l 1,0,-1
5734 819 m 1,4,-1
 5734 1638 l 1,5,-1
 4096 1638 l 1,6,-1
 4096 819 l 1,7,-1
 5734 819 l 1,4,-1
3276 0 m 1,8,-1
 3276 3276 l 1,9,-1
 1638 3276 l 1,10,-1
 1638 819 l 1,11,-1
 819 819 l 1,12,-1
 819 4096 l 1,13,-1
 4096 4096 l 1,14,-1
 4096 2457 l 1,15,-1
 6553 2457 l 1,16,-1
 6553 0 l 1,17,-1
 3276 0 l 1,8,-1
EndSplineSet
Validated: 5
EndChar

StartChar: uni045A
Encoding: 1114 1114 250
Width: 6553
Flags: W
LayerCount: 2
Fore
SplineSet
4915 819 m 1,0,-1
 4915 1638 l 1,1,-1
 3276 1638 l 1,2,-1
 3276 819 l 1,3,-1
 4915 819 l 1,0,-1
0 0 m 1,4,-1
 0 4096 l 1,5,-1
 819 4096 l 1,6,-1
 819 2457 l 1,7,-1
 2457 2457 l 1,8,-1
 2457 4096 l 1,9,-1
 3276 4096 l 1,10,-1
 3276 2457 l 1,11,-1
 5734 2457 l 1,12,-1
 5734 0 l 1,13,-1
 2457 0 l 1,14,-1
 2457 1638 l 1,15,-1
 819 1638 l 1,16,-1
 819 0 l 1,17,-1
 0 0 l 1,4,-1
EndSplineSet
Validated: 1
EndChar

StartChar: uni045B
Encoding: 1115 1115 251
Width: 4096
Flags: W
LayerCount: 2
Fore
SplineSet
2457 0 m 1,0,-1
 2457 1638 l 1,1,-1
 3276 1638 l 1,2,-1
 3276 0 l 1,3,-1
 2457 0 l 1,0,-1
819 0 m 1,4,-1
 819 3276 l 1,5,-1
 0 3276 l 1,6,-1
 0 4096 l 1,7,-1
 819 4096 l 1,8,-1
 819 4915 l 1,9,-1
 1638 4915 l 1,10,-1
 1638 4096 l 1,11,-1
 2457 4096 l 1,12,-1
 2457 3276 l 1,13,-1
 1638 3276 l 1,14,-1
 1638 2457 l 1,15,-1
 2457 2457 l 1,16,-1
 2457 1638 l 1,17,-1
 1638 1638 l 1,18,-1
 1638 0 l 1,19,-1
 819 0 l 1,4,-1
EndSplineSet
Validated: 5
EndChar

StartChar: uni045C
Encoding: 1116 1116 252
Width: 4096
Flags: W
LayerCount: 2
Fore
SplineSet
2457 0 m 1,0,-1
 2457 819 l 1,1,-1
 3276 819 l 1,2,-1
 3276 0 l 1,3,-1
 2457 0 l 1,0,-1
1638 819 m 1,4,-1
 1638 1638 l 1,5,-1
 2457 1638 l 1,6,-1
 2457 819 l 1,7,-1
 1638 819 l 1,4,-1
1638 2457 m 1,8,-1
 1638 3276 l 1,9,-1
 2457 3276 l 1,10,-1
 2457 2457 l 1,11,-1
 1638 2457 l 1,8,-1
0 0 m 1,12,-1
 0 4096 l 1,13,-1
 819 4096 l 1,14,-1
 819 2457 l 1,15,-1
 1638 2457 l 1,16,-1
 1638 1638 l 1,17,-1
 819 1638 l 1,18,-1
 819 0 l 1,19,-1
 0 0 l 1,12,-1
2457 3276 m 1,20,-1
 2457 4096 l 1,21,-1
 3276 4096 l 1,22,-1
 3276 3276 l 1,23,-1
 2457 3276 l 1,20,-1
0 4915 m 1,24,-1
 0 5734 l 1,25,-1
 1638 5734 l 1,26,-1
 1638 4915 l 1,27,-1
 0 4915 l 1,24,-1
1638 5734 m 1,28,-1
 1638 6553 l 1,29,-1
 3276 6553 l 1,30,-1
 3276 5734 l 1,31,-1
 1638 5734 l 1,28,-1
EndSplineSet
Validated: 5
EndChar

StartChar: uni045D
Encoding: 1117 1117 253
Width: 4096
Flags: W
LayerCount: 2
Fore
SplineSet
0 0 m 1,0,-1
 0 4096 l 1,1,-1
 819 4096 l 1,2,-1
 819 2457 l 1,3,-1
 1638 2457 l 1,4,-1
 1638 1638 l 1,5,-1
 819 1638 l 1,6,-1
 819 0 l 1,7,-1
 0 0 l 1,0,-1
2457 0 m 1,8,-1
 2457 2457 l 1,9,-1
 1638 2457 l 1,10,-1
 1638 3276 l 1,11,-1
 2457 3276 l 1,12,-1
 2457 4096 l 1,13,-1
 3276 4096 l 1,14,-1
 3276 0 l 1,15,-1
 2457 0 l 1,8,-1
1638 4915 m 1,16,-1
 1638 5734 l 1,17,-1
 3276 5734 l 1,18,-1
 3276 4915 l 1,19,-1
 1638 4915 l 1,16,-1
0 5734 m 1,20,-1
 0 6553 l 1,21,-1
 1638 6553 l 1,22,-1
 1638 5734 l 1,23,-1
 0 5734 l 1,20,-1
EndSplineSet
Validated: 5
EndChar

StartChar: uni045E
Encoding: 1118 1118 254
Width: 4096
Flags: W
LayerCount: 2
Fore
SplineSet
0 0 m 1,0,-1
 0 819 l 1,1,-1
 2457 819 l 1,2,-1
 2457 1638 l 1,3,-1
 0 1638 l 1,4,-1
 0 4096 l 1,5,-1
 819 4096 l 1,6,-1
 819 2457 l 1,7,-1
 2457 2457 l 1,8,-1
 2457 4096 l 1,9,-1
 3276 4096 l 1,10,-1
 3276 0 l 1,11,-1
 0 0 l 1,0,-1
819 4915 m 1,12,-1
 819 5734 l 1,13,-1
 2457 5734 l 1,14,-1
 2457 4915 l 1,15,-1
 819 4915 l 1,12,-1
0 5734 m 1,16,-1
 0 6553 l 1,17,-1
 819 6553 l 1,18,-1
 819 5734 l 1,19,-1
 0 5734 l 1,16,-1
2457 5734 m 1,20,-1
 2457 6553 l 1,21,-1
 3276 6553 l 1,22,-1
 3276 5734 l 1,23,-1
 2457 5734 l 1,20,-1
EndSplineSet
Validated: 5
EndChar

StartChar: uni045F
Encoding: 1119 1119 255
Width: 4096
Flags: W
LayerCount: 2
Fore
SplineSet
1638 -819 m 1,0,-1
 1638 0 l 1,1,-1
 0 0 l 1,2,-1
 0 4096 l 1,3,-1
 819 4096 l 1,4,-1
 819 819 l 1,5,-1
 2457 819 l 1,6,-1
 2457 4096 l 1,7,-1
 3276 4096 l 1,8,-1
 3276 0 l 1,9,-1
 2457 0 l 1,10,-1
 2457 -819 l 1,11,-1
 1638 -819 l 1,0,-1
EndSplineSet
Validated: 1
EndChar

StartChar: uni0462
Encoding: 1122 1122 256
Width: 5734
Flags: W
LayerCount: 2
Fore
SplineSet
4096 819 m 1,0,-1
 4096 2457 l 1,1,-1
 2457 2457 l 1,2,-1
 2457 819 l 1,3,-1
 4096 819 l 1,0,-1
1638 0 m 1,4,-1
 1638 4096 l 1,5,-1
 0 4096 l 1,6,-1
 0 4915 l 1,7,-1
 1638 4915 l 1,8,-1
 1638 5734 l 1,9,-1
 2457 5734 l 1,10,-1
 2457 4915 l 1,11,-1
 4096 4915 l 1,12,-1
 4096 4096 l 1,13,-1
 2457 4096 l 1,14,-1
 2457 3276 l 1,15,-1
 4915 3276 l 1,16,-1
 4915 0 l 1,17,-1
 1638 0 l 1,4,-1
EndSplineSet
Validated: 1
EndChar

StartChar: uni0463
Encoding: 1123 1123 257
Width: 5734
Flags: W
LayerCount: 2
Fore
SplineSet
4096 819 m 1,0,-1
 4096 1638 l 1,1,-1
 2457 1638 l 1,2,-1
 2457 819 l 1,3,-1
 4096 819 l 1,0,-1
1638 0 m 1,4,-1
 1638 3276 l 1,5,-1
 0 3276 l 1,6,-1
 0 4096 l 1,7,-1
 1638 4096 l 1,8,-1
 1638 5734 l 1,9,-1
 2457 5734 l 1,10,-1
 2457 4096 l 1,11,-1
 4096 4096 l 1,12,-1
 4096 3276 l 1,13,-1
 2457 3276 l 1,14,-1
 2457 2457 l 1,15,-1
 4915 2457 l 1,16,-1
 4915 0 l 1,17,-1
 1638 0 l 1,4,-1
EndSplineSet
Validated: 1
EndChar

StartChar: uni0474
Encoding: 1140 1140 258
Width: 5734
Flags: W
LayerCount: 2
Fore
SplineSet
1638 0 m 1,0,-1
 1638 819 l 1,1,-1
 2457 819 l 1,2,-1
 2457 0 l 1,3,-1
 1638 0 l 1,0,-1
819 819 m 1,4,-1
 819 1638 l 1,5,-1
 1638 1638 l 1,6,-1
 1638 819 l 1,7,-1
 819 819 l 1,4,-1
2457 819 m 1,8,-1
 2457 1638 l 1,9,-1
 3276 1638 l 1,10,-1
 3276 819 l 1,11,-1
 2457 819 l 1,8,-1
0 1638 m 1,12,-1
 0 5734 l 1,13,-1
 819 5734 l 1,14,-1
 819 1638 l 1,15,-1
 0 1638 l 1,12,-1
3276 1638 m 1,16,-1
 3276 5734 l 1,17,-1
 4915 5734 l 1,18,-1
 4915 4915 l 1,19,-1
 4096 4915 l 1,20,-1
 4096 1638 l 1,21,-1
 3276 1638 l 1,16,-1
EndSplineSet
Validated: 5
EndChar

StartChar: uni0475
Encoding: 1141 1141 259
Width: 5734
Flags: W
LayerCount: 2
Fore
SplineSet
1638 0 m 1,0,-1
 1638 819 l 1,1,-1
 2457 819 l 1,2,-1
 2457 0 l 1,3,-1
 1638 0 l 1,0,-1
819 819 m 1,4,-1
 819 1638 l 1,5,-1
 1638 1638 l 1,6,-1
 1638 819 l 1,7,-1
 819 819 l 1,4,-1
2457 819 m 1,8,-1
 2457 1638 l 1,9,-1
 3276 1638 l 1,10,-1
 3276 819 l 1,11,-1
 2457 819 l 1,8,-1
0 1638 m 1,12,-1
 0 4915 l 1,13,-1
 819 4915 l 1,14,-1
 819 1638 l 1,15,-1
 0 1638 l 1,12,-1
3276 1638 m 1,16,-1
 3276 4915 l 1,17,-1
 4915 4915 l 1,18,-1
 4915 4096 l 1,19,-1
 4096 4096 l 1,20,-1
 4096 1638 l 1,21,-1
 3276 1638 l 1,16,-1
EndSplineSet
Validated: 5
EndChar

StartChar: uni0476
Encoding: 1142 1142 260
Width: 5734
Flags: W
LayerCount: 2
Fore
SplineSet
1638 0 m 1,0,-1
 1638 819 l 1,1,-1
 2457 819 l 1,2,-1
 2457 0 l 1,3,-1
 1638 0 l 1,0,-1
819 819 m 1,4,-1
 819 1638 l 1,5,-1
 1638 1638 l 1,6,-1
 1638 819 l 1,7,-1
 819 819 l 1,4,-1
2457 819 m 1,8,-1
 2457 1638 l 1,9,-1
 3276 1638 l 1,10,-1
 3276 819 l 1,11,-1
 2457 819 l 1,8,-1
0 1638 m 1,12,-1
 0 5734 l 1,13,-1
 819 5734 l 1,14,-1
 819 1638 l 1,15,-1
 0 1638 l 1,12,-1
3276 1638 m 1,16,-1
 3276 5734 l 1,17,-1
 4915 5734 l 1,18,-1
 4915 4915 l 1,19,-1
 4096 4915 l 1,20,-1
 4096 1638 l 1,21,-1
 3276 1638 l 1,16,-1
819 6553 m 1,22,-1
 819 7372 l 1,23,-1
 1638 7372 l 1,24,-1
 1638 6553 l 1,25,-1
 819 6553 l 1,22,-1
3276 6553 m 1,26,-1
 3276 7372 l 1,27,-1
 4096 7372 l 1,28,-1
 4096 6553 l 1,29,-1
 3276 6553 l 1,26,-1
0 7372 m 1,30,-1
 0 8192 l 1,31,-1
 819 8192 l 1,32,-1
 819 7372 l 1,33,-1
 0 7372 l 1,30,-1
2457 7372 m 1,34,-1
 2457 8192 l 1,35,-1
 3276 8192 l 1,36,-1
 3276 7372 l 1,37,-1
 2457 7372 l 1,34,-1
EndSplineSet
Validated: 5
EndChar

StartChar: uni0477
Encoding: 1143 1143 261
Width: 5734
Flags: W
LayerCount: 2
Fore
SplineSet
1638 0 m 1,0,-1
 1638 819 l 1,1,-1
 2457 819 l 1,2,-1
 2457 0 l 1,3,-1
 1638 0 l 1,0,-1
819 819 m 1,4,-1
 819 1638 l 1,5,-1
 1638 1638 l 1,6,-1
 1638 819 l 1,7,-1
 819 819 l 1,4,-1
2457 819 m 1,8,-1
 2457 1638 l 1,9,-1
 3276 1638 l 1,10,-1
 3276 819 l 1,11,-1
 2457 819 l 1,8,-1
0 1638 m 1,12,-1
 0 4915 l 1,13,-1
 819 4915 l 1,14,-1
 819 1638 l 1,15,-1
 0 1638 l 1,12,-1
3276 1638 m 1,16,-1
 3276 4915 l 1,17,-1
 4915 4915 l 1,18,-1
 4915 4096 l 1,19,-1
 4096 4096 l 1,20,-1
 4096 1638 l 1,21,-1
 3276 1638 l 1,16,-1
819 5734 m 1,22,-1
 819 6553 l 1,23,-1
 1638 6553 l 1,24,-1
 1638 5734 l 1,25,-1
 819 5734 l 1,22,-1
3276 5734 m 1,26,-1
 3276 6553 l 1,27,-1
 4096 6553 l 1,28,-1
 4096 5734 l 1,29,-1
 3276 5734 l 1,26,-1
0 6553 m 1,30,-1
 0 7372 l 1,31,-1
 819 7372 l 1,32,-1
 819 6553 l 1,33,-1
 0 6553 l 1,30,-1
2457 6553 m 1,34,-1
 2457 7372 l 1,35,-1
 3276 7372 l 1,36,-1
 3276 6553 l 1,37,-1
 2457 6553 l 1,34,-1
EndSplineSet
Validated: 5
EndChar

StartChar: uni0478
Encoding: 1144 1144 262
Width: 8191
Flags: W
LayerCount: 2
Fore
SplineSet
819 0 m 1,0,-1
 819 819 l 1,1,-1
 2457 819 l 1,2,-1
 2457 0 l 1,3,-1
 819 0 l 1,0,-1
0 819 m 1,4,-1
 0 4096 l 1,5,-1
 819 4096 l 1,6,-1
 819 819 l 1,7,-1
 0 819 l 1,4,-1
2457 819 m 1,8,-1
 2457 4096 l 1,9,-1
 3276 4096 l 1,10,-1
 3276 819 l 1,11,-1
 2457 819 l 1,8,-1
4096 0 m 1,12,-1
 4096 819 l 1,13,-1
 6553 819 l 1,14,-1
 6553 1638 l 1,15,-1
 4096 1638 l 1,16,-1
 4096 4096 l 1,17,-1
 4915 4096 l 1,18,-1
 4915 2457 l 1,19,-1
 6553 2457 l 1,20,-1
 6553 4096 l 1,21,-1
 7372 4096 l 1,22,-1
 7372 0 l 1,23,-1
 4096 0 l 1,12,-1
819 4096 m 1,24,-1
 819 4915 l 1,25,-1
 2457 4915 l 1,26,-1
 2457 4096 l 1,27,-1
 819 4096 l 1,24,-1
EndSplineSet
Validated: 5
EndChar

StartChar: uni0479
Encoding: 1145 1145 263
Width: 8191
Flags: W
LayerCount: 2
Fore
SplineSet
819 0 m 1,0,-1
 819 819 l 1,1,-1
 2457 819 l 1,2,-1
 2457 0 l 1,3,-1
 819 0 l 1,0,-1
0 819 m 1,4,-1
 0 3276 l 1,5,-1
 819 3276 l 1,6,-1
 819 819 l 1,7,-1
 0 819 l 1,4,-1
2457 819 m 1,8,-1
 2457 3276 l 1,9,-1
 3276 3276 l 1,10,-1
 3276 819 l 1,11,-1
 2457 819 l 1,8,-1
819 3276 m 1,12,-1
 819 4096 l 1,13,-1
 2457 4096 l 1,14,-1
 2457 3276 l 1,15,-1
 819 3276 l 1,12,-1
4096 0 m 1,16,-1
 4096 819 l 1,17,-1
 6553 819 l 1,18,-1
 6553 1638 l 1,19,-1
 4096 1638 l 1,20,-1
 4096 4096 l 1,21,-1
 4915 4096 l 1,22,-1
 4915 2457 l 1,23,-1
 6553 2457 l 1,24,-1
 6553 4096 l 1,25,-1
 7372 4096 l 1,26,-1
 7372 0 l 1,27,-1
 4096 0 l 1,16,-1
EndSplineSet
Validated: 5
EndChar

StartChar: uni048C
Encoding: 1164 1164 264
Width: 4915
Flags: W
LayerCount: 2
Fore
SplineSet
3276 819 m 1,0,-1
 3276 2457 l 1,1,-1
 1638 2457 l 1,2,-1
 1638 819 l 1,3,-1
 3276 819 l 1,0,-1
819 0 m 1,4,-1
 819 4096 l 1,5,-1
 0 4096 l 1,6,-1
 0 4915 l 1,7,-1
 819 4915 l 1,8,-1
 819 5734 l 1,9,-1
 1638 5734 l 1,10,-1
 1638 4915 l 1,11,-1
 2457 4915 l 1,12,-1
 2457 4096 l 1,13,-1
 1638 4096 l 1,14,-1
 1638 3276 l 1,15,-1
 4096 3276 l 1,16,-1
 4096 0 l 1,17,-1
 819 0 l 1,4,-1
EndSplineSet
Validated: 1
EndChar

StartChar: uni048D
Encoding: 1165 1165 265
Width: 4915
Flags: W
LayerCount: 2
Fore
SplineSet
3276 819 m 1,0,-1
 3276 1638 l 1,1,-1
 1638 1638 l 1,2,-1
 1638 819 l 1,3,-1
 3276 819 l 1,0,-1
819 0 m 1,4,-1
 819 4096 l 1,5,-1
 0 4096 l 1,6,-1
 0 4915 l 1,7,-1
 819 4915 l 1,8,-1
 819 5734 l 1,9,-1
 1638 5734 l 1,10,-1
 1638 4915 l 1,11,-1
 2457 4915 l 1,12,-1
 2457 4096 l 1,13,-1
 1638 4096 l 1,14,-1
 1638 2457 l 1,15,-1
 4096 2457 l 1,16,-1
 4096 0 l 1,17,-1
 819 0 l 1,4,-1
EndSplineSet
Validated: 1
EndChar

StartChar: uni0490
Encoding: 1168 1168 266
Width: 4096
Flags: W
LayerCount: 2
Fore
SplineSet
0 0 m 1,0,-1
 0 4915 l 1,1,-1
 2457 4915 l 1,2,-1
 2457 5734 l 1,3,-1
 3276 5734 l 1,4,-1
 3276 4096 l 1,5,-1
 819 4096 l 1,6,-1
 819 0 l 1,7,-1
 0 0 l 1,0,-1
EndSplineSet
Validated: 1
EndChar

StartChar: uni0491
Encoding: 1169 1169 267
Width: 4096
Flags: W
LayerCount: 2
Fore
SplineSet
0 0 m 1,0,-1
 0 4096 l 1,1,-1
 2457 4096 l 1,2,-1
 2457 4915 l 1,3,-1
 3276 4915 l 1,4,-1
 3276 3276 l 1,5,-1
 819 3276 l 1,6,-1
 819 0 l 1,7,-1
 0 0 l 1,0,-1
EndSplineSet
Validated: 1
EndChar

StartChar: uni0492
Encoding: 1170 1170 268
Width: 4915
Flags: W
LayerCount: 2
Fore
SplineSet
819 0 m 1,0,-1
 819 1638 l 1,1,-1
 0 1638 l 1,2,-1
 0 2457 l 1,3,-1
 819 2457 l 1,4,-1
 819 4915 l 1,5,-1
 4096 4915 l 1,6,-1
 4096 4096 l 1,7,-1
 1638 4096 l 1,8,-1
 1638 2457 l 1,9,-1
 2457 2457 l 1,10,-1
 2457 1638 l 1,11,-1
 1638 1638 l 1,12,-1
 1638 0 l 1,13,-1
 819 0 l 1,0,-1
EndSplineSet
Validated: 1
EndChar

StartChar: uni0493
Encoding: 1171 1171 269
Width: 4915
Flags: W
LayerCount: 2
Fore
SplineSet
819 0 m 1,0,-1
 819 1638 l 1,1,-1
 0 1638 l 1,2,-1
 0 2457 l 1,3,-1
 819 2457 l 1,4,-1
 819 4096 l 1,5,-1
 4096 4096 l 1,6,-1
 4096 3276 l 1,7,-1
 1638 3276 l 1,8,-1
 1638 2457 l 1,9,-1
 2457 2457 l 1,10,-1
 2457 1638 l 1,11,-1
 1638 1638 l 1,12,-1
 1638 0 l 1,13,-1
 819 0 l 1,0,-1
EndSplineSet
Validated: 1
EndChar

StartChar: uni04A2
Encoding: 1186 1186 270
Width: 4915
Flags: W
LayerCount: 2
Fore
SplineSet
3276 -819 m 1,0,-1
 3276 0 l 1,1,-1
 2457 0 l 1,2,-1
 2457 2457 l 1,3,-1
 819 2457 l 1,4,-1
 819 0 l 1,5,-1
 0 0 l 1,6,-1
 0 4915 l 1,7,-1
 819 4915 l 1,8,-1
 819 3276 l 1,9,-1
 2457 3276 l 1,10,-1
 2457 4915 l 1,11,-1
 3276 4915 l 1,12,-1
 3276 819 l 1,13,-1
 4096 819 l 1,14,-1
 4096 -819 l 1,15,-1
 3276 -819 l 1,0,-1
EndSplineSet
Validated: 1
EndChar

StartChar: uni04A3
Encoding: 1187 1187 271
Width: 4915
Flags: W
LayerCount: 2
Fore
SplineSet
3276 -819 m 1,0,-1
 3276 0 l 1,1,-1
 2457 0 l 1,2,-1
 2457 1638 l 1,3,-1
 819 1638 l 1,4,-1
 819 0 l 1,5,-1
 0 0 l 1,6,-1
 0 4096 l 1,7,-1
 819 4096 l 1,8,-1
 819 2457 l 1,9,-1
 2457 2457 l 1,10,-1
 2457 4096 l 1,11,-1
 3276 4096 l 1,12,-1
 3276 819 l 1,13,-1
 4096 819 l 1,14,-1
 4096 -819 l 1,15,-1
 3276 -819 l 1,0,-1
EndSplineSet
Validated: 1
EndChar

StartChar: uni04A4
Encoding: 1188 1188 272
Width: 4915
Flags: W
LayerCount: 2
Fore
SplineSet
0 0 m 1,0,-1
 0 4915 l 1,1,-1
 819 4915 l 1,2,-1
 819 3276 l 1,3,-1
 2457 3276 l 1,4,-1
 2457 4915 l 1,5,-1
 4096 4915 l 1,6,-1
 4096 4096 l 1,7,-1
 3276 4096 l 1,8,-1
 3276 0 l 1,9,-1
 2457 0 l 1,10,-1
 2457 2457 l 1,11,-1
 819 2457 l 1,12,-1
 819 0 l 1,13,-1
 0 0 l 1,0,-1
EndSplineSet
Validated: 1
EndChar

StartChar: uni04A5
Encoding: 1189 1189 273
Width: 4915
Flags: W
LayerCount: 2
Fore
SplineSet
0 0 m 1,0,-1
 0 4096 l 1,1,-1
 819 4096 l 1,2,-1
 819 2457 l 1,3,-1
 2457 2457 l 1,4,-1
 2457 4096 l 1,5,-1
 4096 4096 l 1,6,-1
 4096 3276 l 1,7,-1
 3276 3276 l 1,8,-1
 3276 0 l 1,9,-1
 2457 0 l 1,10,-1
 2457 1638 l 1,11,-1
 819 1638 l 1,12,-1
 819 0 l 1,13,-1
 0 0 l 1,0,-1
EndSplineSet
Validated: 1
EndChar

StartChar: uni04D4
Encoding: 1236 1236 274
Width: 6553
Flags: W
LayerCount: 2
Fore
SplineSet
0 0 m 1,0,-1
 0 4096 l 1,1,-1
 819 4096 l 1,2,-1
 819 2457 l 1,3,-1
 2457 2457 l 1,4,-1
 2457 4096 l 1,5,-1
 819 4096 l 1,6,-1
 819 4915 l 1,7,-1
 5734 4915 l 1,8,-1
 5734 4096 l 1,9,-1
 3276 4096 l 1,10,-1
 3276 3276 l 1,11,-1
 5734 3276 l 1,12,-1
 5734 2457 l 1,13,-1
 3276 2457 l 1,14,-1
 3276 819 l 1,15,-1
 5734 819 l 1,16,-1
 5734 0 l 1,17,-1
 2457 0 l 1,18,-1
 2457 1638 l 1,19,-1
 819 1638 l 1,20,-1
 819 0 l 1,21,-1
 0 0 l 1,0,-1
EndSplineSet
Validated: 5
EndChar

StartChar: uni04D5
Encoding: 1237 1237 275
Width: 6553
Flags: W
LayerCount: 2
Fore
SplineSet
2457 819 m 1,0,-1
 2457 1638 l 1,1,-1
 819 1638 l 1,2,-1
 819 819 l 1,3,-1
 2457 819 l 1,0,-1
4915 2457 m 1,4,-1
 4915 3276 l 1,5,-1
 3276 3276 l 1,6,-1
 3276 2457 l 1,7,-1
 4915 2457 l 1,4,-1
0 0 m 1,8,-1
 0 2457 l 1,9,-1
 2457 2457 l 1,10,-1
 2457 3276 l 1,11,-1
 0 3276 l 1,12,-1
 0 4096 l 1,13,-1
 5734 4096 l 1,14,-1
 5734 1638 l 1,15,-1
 3276 1638 l 1,16,-1
 3276 819 l 1,17,-1
 5734 819 l 1,18,-1
 5734 0 l 1,19,-1
 0 0 l 1,8,-1
EndSplineSet
Validated: 1
EndChar

StartChar: uni1E00
Encoding: 7680 7680 276
Width: 4096
Flags: W
LayerCount: 2
Fore
SplineSet
819 -1638 m 1,0,-1
 819 -819 l 1,1,-1
 1638 -819 l 1,2,-1
 1638 -1638 l 1,3,-1
 819 -1638 l 1,0,-1
0 0 m 1,4,-1
 0 4096 l 1,5,-1
 819 4096 l 1,6,-1
 819 2457 l 1,7,-1
 2457 2457 l 1,8,-1
 2457 4096 l 1,9,-1
 3276 4096 l 1,10,-1
 3276 0 l 1,11,-1
 2457 0 l 1,12,-1
 2457 1638 l 1,13,-1
 819 1638 l 1,14,-1
 819 0 l 1,15,-1
 0 0 l 1,4,-1
819 4096 m 1,16,-1
 819 4915 l 1,17,-1
 2457 4915 l 1,18,-1
 2457 4096 l 1,19,-1
 819 4096 l 1,16,-1
EndSplineSet
Validated: 5
EndChar

StartChar: uni1E01
Encoding: 7681 7681 277
Width: 4096
Flags: W
LayerCount: 2
Fore
SplineSet
819 -1638 m 1,0,-1
 819 -819 l 1,1,-1
 1638 -819 l 1,2,-1
 1638 -1638 l 1,3,-1
 819 -1638 l 1,0,-1
2457 819 m 1,4,-1
 2457 1638 l 1,5,-1
 819 1638 l 1,6,-1
 819 819 l 1,7,-1
 2457 819 l 1,4,-1
0 0 m 1,8,-1
 0 2457 l 1,9,-1
 2457 2457 l 1,10,-1
 2457 3276 l 1,11,-1
 3276 3276 l 1,12,-1
 3276 0 l 1,13,-1
 0 0 l 1,8,-1
0 3276 m 1,14,-1
 0 4096 l 1,15,-1
 2457 4096 l 1,16,-1
 2457 3276 l 1,17,-1
 0 3276 l 1,14,-1
EndSplineSet
Validated: 5
EndChar

StartChar: uni1E02
Encoding: 7682 7682 278
Width: 4096
Flags: W
LayerCount: 2
Fore
SplineSet
2457 819 m 1,0,-1
 2457 2457 l 1,1,-1
 3276 2457 l 1,2,-1
 3276 819 l 1,3,-1
 2457 819 l 1,0,-1
2457 3276 m 1,4,-1
 2457 4096 l 1,5,-1
 3276 4096 l 1,6,-1
 3276 3276 l 1,7,-1
 2457 3276 l 1,4,-1
0 0 m 1,8,-1
 0 4915 l 1,9,-1
 2457 4915 l 1,10,-1
 2457 4096 l 1,11,-1
 819 4096 l 1,12,-1
 819 3276 l 1,13,-1
 2457 3276 l 1,14,-1
 2457 2457 l 1,15,-1
 819 2457 l 1,16,-1
 819 819 l 1,17,-1
 2457 819 l 1,18,-1
 2457 0 l 1,19,-1
 0 0 l 1,8,-1
819 5734 m 1,20,-1
 819 6553 l 1,21,-1
 1638 6553 l 1,22,-1
 1638 5734 l 1,23,-1
 819 5734 l 1,20,-1
EndSplineSet
Validated: 5
EndChar

StartChar: uni1E03
Encoding: 7683 7683 279
Width: 4096
Flags: W
LayerCount: 2
Fore
SplineSet
2457 819 m 1,0,-1
 2457 1638 l 1,1,-1
 819 1638 l 1,2,-1
 819 819 l 1,3,-1
 2457 819 l 1,0,-1
0 0 m 1,4,-1
 0 4096 l 1,5,-1
 819 4096 l 1,6,-1
 819 2457 l 1,7,-1
 3276 2457 l 1,8,-1
 3276 0 l 1,9,-1
 0 0 l 1,4,-1
1638 3276 m 1,10,-1
 1638 4096 l 1,11,-1
 2457 4096 l 1,12,-1
 2457 3276 l 1,13,-1
 1638 3276 l 1,10,-1
EndSplineSet
Validated: 1
EndChar

StartChar: uni1E04
Encoding: 7684 7684 280
Width: 4096
Flags: W
LayerCount: 2
Fore
SplineSet
819 -1638 m 1,0,-1
 819 -819 l 1,1,-1
 1638 -819 l 1,2,-1
 1638 -1638 l 1,3,-1
 819 -1638 l 1,0,-1
2457 819 m 1,4,-1
 2457 2457 l 1,5,-1
 3276 2457 l 1,6,-1
 3276 819 l 1,7,-1
 2457 819 l 1,4,-1
2457 3276 m 1,8,-1
 2457 4096 l 1,9,-1
 3276 4096 l 1,10,-1
 3276 3276 l 1,11,-1
 2457 3276 l 1,8,-1
0 0 m 1,12,-1
 0 4915 l 1,13,-1
 2457 4915 l 1,14,-1
 2457 4096 l 1,15,-1
 819 4096 l 1,16,-1
 819 3276 l 1,17,-1
 2457 3276 l 1,18,-1
 2457 2457 l 1,19,-1
 819 2457 l 1,20,-1
 819 819 l 1,21,-1
 2457 819 l 1,22,-1
 2457 0 l 1,23,-1
 0 0 l 1,12,-1
EndSplineSet
Validated: 5
EndChar

StartChar: uni1E05
Encoding: 7685 7685 281
Width: 4096
Flags: W
LayerCount: 2
Fore
SplineSet
819 -1638 m 1,0,-1
 819 -819 l 1,1,-1
 1638 -819 l 1,2,-1
 1638 -1638 l 1,3,-1
 819 -1638 l 1,0,-1
2457 819 m 1,4,-1
 2457 1638 l 1,5,-1
 819 1638 l 1,6,-1
 819 819 l 1,7,-1
 2457 819 l 1,4,-1
0 0 m 1,8,-1
 0 4096 l 1,9,-1
 819 4096 l 1,10,-1
 819 2457 l 1,11,-1
 3276 2457 l 1,12,-1
 3276 0 l 1,13,-1
 0 0 l 1,8,-1
EndSplineSet
Validated: 1
EndChar

StartChar: uni1E06
Encoding: 7686 7686 282
Width: 4096
Flags: W
LayerCount: 2
Fore
SplineSet
819 -1638 m 1,0,-1
 819 -819 l 1,1,-1
 2457 -819 l 1,2,-1
 2457 -1638 l 1,3,-1
 819 -1638 l 1,0,-1
2457 819 m 1,4,-1
 2457 2457 l 1,5,-1
 3276 2457 l 1,6,-1
 3276 819 l 1,7,-1
 2457 819 l 1,4,-1
2457 3276 m 1,8,-1
 2457 4096 l 1,9,-1
 3276 4096 l 1,10,-1
 3276 3276 l 1,11,-1
 2457 3276 l 1,8,-1
0 0 m 1,12,-1
 0 4915 l 1,13,-1
 2457 4915 l 1,14,-1
 2457 4096 l 1,15,-1
 819 4096 l 1,16,-1
 819 3276 l 1,17,-1
 2457 3276 l 1,18,-1
 2457 2457 l 1,19,-1
 819 2457 l 1,20,-1
 819 819 l 1,21,-1
 2457 819 l 1,22,-1
 2457 0 l 1,23,-1
 0 0 l 1,12,-1
EndSplineSet
Validated: 5
EndChar

StartChar: uni1E07
Encoding: 7687 7687 283
Width: 4096
Flags: W
LayerCount: 2
Fore
SplineSet
819 -1638 m 1,0,-1
 819 -819 l 1,1,-1
 2457 -819 l 1,2,-1
 2457 -1638 l 1,3,-1
 819 -1638 l 1,0,-1
2457 819 m 1,4,-1
 2457 1638 l 1,5,-1
 819 1638 l 1,6,-1
 819 819 l 1,7,-1
 2457 819 l 1,4,-1
0 0 m 1,8,-1
 0 4096 l 1,9,-1
 819 4096 l 1,10,-1
 819 2457 l 1,11,-1
 3276 2457 l 1,12,-1
 3276 0 l 1,13,-1
 0 0 l 1,8,-1
EndSplineSet
Validated: 1
EndChar

StartChar: uni1E08
Encoding: 7688 7688 284
Width: 4096
Flags: W
LayerCount: 2
Fore
SplineSet
819 -1638 m 1,0,-1
 819 -819 l 1,1,-1
 1638 -819 l 1,2,-1
 1638 -1638 l 1,3,-1
 819 -1638 l 1,0,-1
1638 -819 m 1,4,-1
 1638 0 l 1,5,-1
 819 0 l 1,6,-1
 819 819 l 1,7,-1
 2457 819 l 1,8,-1
 2457 -819 l 1,9,-1
 1638 -819 l 1,4,-1
2457 819 m 1,10,-1
 2457 1638 l 1,11,-1
 3276 1638 l 1,12,-1
 3276 819 l 1,13,-1
 2457 819 l 1,10,-1
0 819 m 1,14,-1
 0 4096 l 1,15,-1
 819 4096 l 1,16,-1
 819 819 l 1,17,-1
 0 819 l 1,14,-1
2457 3276 m 1,18,-1
 2457 4096 l 1,19,-1
 3276 4096 l 1,20,-1
 3276 3276 l 1,21,-1
 2457 3276 l 1,18,-1
819 4096 m 1,22,-1
 819 4915 l 1,23,-1
 2457 4915 l 1,24,-1
 2457 4096 l 1,25,-1
 819 4096 l 1,22,-1
0 5734 m 1,26,-1
 0 6553 l 1,27,-1
 1638 6553 l 1,28,-1
 1638 5734 l 1,29,-1
 0 5734 l 1,26,-1
1638 6553 m 1,30,-1
 1638 7372 l 1,31,-1
 3276 7372 l 1,32,-1
 3276 6553 l 1,33,-1
 1638 6553 l 1,30,-1
EndSplineSet
Validated: 5
EndChar

StartChar: uni1E09
Encoding: 7689 7689 285
Width: 4096
Flags: W
LayerCount: 2
Fore
SplineSet
819 -1638 m 1,0,-1
 819 -819 l 1,1,-1
 1638 -819 l 1,2,-1
 1638 -1638 l 1,3,-1
 819 -1638 l 1,0,-1
1638 -819 m 1,4,-1
 1638 0 l 1,5,-1
 819 0 l 1,6,-1
 819 819 l 1,7,-1
 2457 819 l 1,8,-1
 2457 -819 l 1,9,-1
 1638 -819 l 1,4,-1
2457 819 m 1,10,-1
 2457 1638 l 1,11,-1
 3276 1638 l 1,12,-1
 3276 819 l 1,13,-1
 2457 819 l 1,10,-1
0 819 m 1,14,-1
 0 3276 l 1,15,-1
 819 3276 l 1,16,-1
 819 819 l 1,17,-1
 0 819 l 1,14,-1
2457 2457 m 1,18,-1
 2457 3276 l 1,19,-1
 3276 3276 l 1,20,-1
 3276 2457 l 1,21,-1
 2457 2457 l 1,18,-1
819 3276 m 1,22,-1
 819 4096 l 1,23,-1
 2457 4096 l 1,24,-1
 2457 3276 l 1,25,-1
 819 3276 l 1,22,-1
0 4915 m 1,26,-1
 0 5734 l 1,27,-1
 1638 5734 l 1,28,-1
 1638 4915 l 1,29,-1
 0 4915 l 1,26,-1
1638 5734 m 1,30,-1
 1638 6553 l 1,31,-1
 3276 6553 l 1,32,-1
 3276 5734 l 1,33,-1
 1638 5734 l 1,30,-1
EndSplineSet
Validated: 5
EndChar

StartChar: uni1E0A
Encoding: 7690 7690 286
Width: 4096
Flags: W
LayerCount: 2
Fore
SplineSet
2457 819 m 1,0,-1
 2457 4096 l 1,1,-1
 3276 4096 l 1,2,-1
 3276 819 l 1,3,-1
 2457 819 l 1,0,-1
0 0 m 1,4,-1
 0 4915 l 1,5,-1
 2457 4915 l 1,6,-1
 2457 4096 l 1,7,-1
 819 4096 l 1,8,-1
 819 819 l 1,9,-1
 2457 819 l 1,10,-1
 2457 0 l 1,11,-1
 0 0 l 1,4,-1
819 5734 m 1,12,-1
 819 6553 l 1,13,-1
 1638 6553 l 1,14,-1
 1638 5734 l 1,15,-1
 819 5734 l 1,12,-1
EndSplineSet
Validated: 5
EndChar

StartChar: uni1E0B
Encoding: 7691 7691 287
Width: 4096
Flags: W
LayerCount: 2
Fore
SplineSet
2457 819 m 1,0,-1
 2457 1638 l 1,1,-1
 819 1638 l 1,2,-1
 819 819 l 1,3,-1
 2457 819 l 1,0,-1
819 3276 m 1,4,-1
 819 4096 l 1,5,-1
 1638 4096 l 1,6,-1
 1638 3276 l 1,7,-1
 819 3276 l 1,4,-1
0 0 m 1,8,-1
 0 2457 l 1,9,-1
 2457 2457 l 1,10,-1
 2457 4096 l 1,11,-1
 3276 4096 l 1,12,-1
 3276 0 l 1,13,-1
 0 0 l 1,8,-1
EndSplineSet
Validated: 1
EndChar

StartChar: uni1E0C
Encoding: 7692 7692 288
Width: 4096
Flags: W
LayerCount: 2
Fore
SplineSet
819 -1638 m 1,0,-1
 819 -819 l 1,1,-1
 1638 -819 l 1,2,-1
 1638 -1638 l 1,3,-1
 819 -1638 l 1,0,-1
2457 819 m 1,4,-1
 2457 4096 l 1,5,-1
 3276 4096 l 1,6,-1
 3276 819 l 1,7,-1
 2457 819 l 1,4,-1
0 0 m 1,8,-1
 0 4915 l 1,9,-1
 2457 4915 l 1,10,-1
 2457 4096 l 1,11,-1
 819 4096 l 1,12,-1
 819 819 l 1,13,-1
 2457 819 l 1,14,-1
 2457 0 l 1,15,-1
 0 0 l 1,8,-1
EndSplineSet
Validated: 5
EndChar

StartChar: uni1E0D
Encoding: 7693 7693 289
Width: 4096
Flags: W
LayerCount: 2
Fore
SplineSet
819 -1638 m 1,0,-1
 819 -819 l 1,1,-1
 1638 -819 l 1,2,-1
 1638 -1638 l 1,3,-1
 819 -1638 l 1,0,-1
2457 819 m 1,4,-1
 2457 1638 l 1,5,-1
 819 1638 l 1,6,-1
 819 819 l 1,7,-1
 2457 819 l 1,4,-1
0 0 m 1,8,-1
 0 2457 l 1,9,-1
 2457 2457 l 1,10,-1
 2457 4096 l 1,11,-1
 3276 4096 l 1,12,-1
 3276 0 l 1,13,-1
 0 0 l 1,8,-1
EndSplineSet
Validated: 1
EndChar

StartChar: uni1E0E
Encoding: 7694 7694 290
Width: 4096
Flags: W
LayerCount: 2
Fore
SplineSet
819 -1638 m 1,0,-1
 819 -819 l 1,1,-1
 2457 -819 l 1,2,-1
 2457 -1638 l 1,3,-1
 819 -1638 l 1,0,-1
2457 819 m 1,4,-1
 2457 4096 l 1,5,-1
 3276 4096 l 1,6,-1
 3276 819 l 1,7,-1
 2457 819 l 1,4,-1
0 0 m 1,8,-1
 0 4915 l 1,9,-1
 2457 4915 l 1,10,-1
 2457 4096 l 1,11,-1
 819 4096 l 1,12,-1
 819 819 l 1,13,-1
 2457 819 l 1,14,-1
 2457 0 l 1,15,-1
 0 0 l 1,8,-1
EndSplineSet
Validated: 5
EndChar

StartChar: uni1E0F
Encoding: 7695 7695 291
Width: 4096
Flags: W
LayerCount: 2
Fore
SplineSet
819 -1638 m 1,0,-1
 819 -819 l 1,1,-1
 2457 -819 l 1,2,-1
 2457 -1638 l 1,3,-1
 819 -1638 l 1,0,-1
2457 819 m 1,4,-1
 2457 1638 l 1,5,-1
 819 1638 l 1,6,-1
 819 819 l 1,7,-1
 2457 819 l 1,4,-1
0 0 m 1,8,-1
 0 2457 l 1,9,-1
 2457 2457 l 1,10,-1
 2457 4096 l 1,11,-1
 3276 4096 l 1,12,-1
 3276 0 l 1,13,-1
 0 0 l 1,8,-1
EndSplineSet
Validated: 1
EndChar

StartChar: uni1E10
Encoding: 7696 7696 292
Width: 4096
Flags: W
LayerCount: 2
Fore
SplineSet
1638 -2457 m 1,0,-1
 1638 -1638 l 1,1,-1
 819 -1638 l 1,2,-1
 819 -819 l 1,3,-1
 2457 -819 l 1,4,-1
 2457 -2457 l 1,5,-1
 1638 -2457 l 1,0,-1
2457 819 m 1,6,-1
 2457 4096 l 1,7,-1
 3276 4096 l 1,8,-1
 3276 819 l 1,9,-1
 2457 819 l 1,6,-1
0 0 m 1,10,-1
 0 4915 l 1,11,-1
 2457 4915 l 1,12,-1
 2457 4096 l 1,13,-1
 819 4096 l 1,14,-1
 819 819 l 1,15,-1
 2457 819 l 1,16,-1
 2457 0 l 1,17,-1
 0 0 l 1,10,-1
EndSplineSet
Validated: 5
EndChar

StartChar: uni1E11
Encoding: 7697 7697 293
Width: 4096
Flags: W
LayerCount: 2
Fore
SplineSet
1638 -2457 m 1,0,-1
 1638 -1638 l 1,1,-1
 819 -1638 l 1,2,-1
 819 -819 l 1,3,-1
 2457 -819 l 1,4,-1
 2457 -2457 l 1,5,-1
 1638 -2457 l 1,0,-1
2457 819 m 1,6,-1
 2457 1638 l 1,7,-1
 819 1638 l 1,8,-1
 819 819 l 1,9,-1
 2457 819 l 1,6,-1
0 0 m 1,10,-1
 0 2457 l 1,11,-1
 2457 2457 l 1,12,-1
 2457 4096 l 1,13,-1
 3276 4096 l 1,14,-1
 3276 0 l 1,15,-1
 0 0 l 1,10,-1
EndSplineSet
Validated: 1
EndChar

StartChar: uni1E12
Encoding: 7698 7698 294
Width: 4096
Flags: W
LayerCount: 2
Fore
SplineSet
819 -2457 m 1,0,-1
 819 -1638 l 1,1,-1
 1638 -1638 l 1,2,-1
 1638 -2457 l 1,3,-1
 819 -2457 l 1,0,-1
2457 -2457 m 1,4,-1
 2457 -1638 l 1,5,-1
 3276 -1638 l 1,6,-1
 3276 -2457 l 1,7,-1
 2457 -2457 l 1,4,-1
1638 -1638 m 1,8,-1
 1638 -819 l 1,9,-1
 2457 -819 l 1,10,-1
 2457 -1638 l 1,11,-1
 1638 -1638 l 1,8,-1
2457 819 m 1,12,-1
 2457 4096 l 1,13,-1
 3276 4096 l 1,14,-1
 3276 819 l 1,15,-1
 2457 819 l 1,12,-1
0 0 m 1,16,-1
 0 4915 l 1,17,-1
 2457 4915 l 1,18,-1
 2457 4096 l 1,19,-1
 819 4096 l 1,20,-1
 819 819 l 1,21,-1
 2457 819 l 1,22,-1
 2457 0 l 1,23,-1
 0 0 l 1,16,-1
EndSplineSet
Validated: 5
EndChar

StartChar: uni1E13
Encoding: 7699 7699 295
Width: 4096
Flags: W
LayerCount: 2
Fore
SplineSet
819 -2457 m 1,0,-1
 819 -1638 l 1,1,-1
 1638 -1638 l 1,2,-1
 1638 -2457 l 1,3,-1
 819 -2457 l 1,0,-1
2457 -2457 m 1,4,-1
 2457 -1638 l 1,5,-1
 3276 -1638 l 1,6,-1
 3276 -2457 l 1,7,-1
 2457 -2457 l 1,4,-1
1638 -1638 m 1,8,-1
 1638 -819 l 1,9,-1
 2457 -819 l 1,10,-1
 2457 -1638 l 1,11,-1
 1638 -1638 l 1,8,-1
2457 819 m 1,12,-1
 2457 1638 l 1,13,-1
 819 1638 l 1,14,-1
 819 819 l 1,15,-1
 2457 819 l 1,12,-1
0 0 m 1,16,-1
 0 2457 l 1,17,-1
 2457 2457 l 1,18,-1
 2457 4096 l 1,19,-1
 3276 4096 l 1,20,-1
 3276 0 l 1,21,-1
 0 0 l 1,16,-1
EndSplineSet
Validated: 5
EndChar

StartChar: uni1E2C
Encoding: 7724 7724 296
Width: 4096
Flags: W
LayerCount: 2
Fore
SplineSet
0 -2457 m 1,0,-1
 0 -1638 l 1,1,-1
 819 -1638 l 1,2,-1
 819 -2457 l 1,3,-1
 0 -2457 l 1,0,-1
1638 -2457 m 1,4,-1
 1638 -1638 l 1,5,-1
 2457 -1638 l 1,6,-1
 2457 -2457 l 1,7,-1
 1638 -2457 l 1,4,-1
819 -1638 m 1,8,-1
 819 -819 l 1,9,-1
 1638 -819 l 1,10,-1
 1638 -1638 l 1,11,-1
 819 -1638 l 1,8,-1
2457 -1638 m 1,12,-1
 2457 -819 l 1,13,-1
 3276 -819 l 1,14,-1
 3276 -1638 l 1,15,-1
 2457 -1638 l 1,12,-1
819 0 m 1,16,-1
 819 4915 l 1,17,-1
 1638 4915 l 1,18,-1
 1638 0 l 1,19,-1
 819 0 l 1,16,-1
EndSplineSet
Validated: 5
EndChar

StartChar: uni1E2D
Encoding: 7725 7725 297
Width: 4096
Flags: W
LayerCount: 2
Fore
SplineSet
0 -2457 m 1,0,-1
 0 -1638 l 1,1,-1
 819 -1638 l 1,2,-1
 819 -2457 l 1,3,-1
 0 -2457 l 1,0,-1
1638 -2457 m 1,4,-1
 1638 -1638 l 1,5,-1
 2457 -1638 l 1,6,-1
 2457 -2457 l 1,7,-1
 1638 -2457 l 1,4,-1
819 -1638 m 1,8,-1
 819 -819 l 1,9,-1
 1638 -819 l 1,10,-1
 1638 -1638 l 1,11,-1
 819 -1638 l 1,8,-1
2457 -1638 m 1,12,-1
 2457 -819 l 1,13,-1
 3276 -819 l 1,14,-1
 3276 -1638 l 1,15,-1
 2457 -1638 l 1,12,-1
819 0 m 1,16,-1
 819 2457 l 1,17,-1
 1638 2457 l 1,18,-1
 1638 0 l 1,19,-1
 819 0 l 1,16,-1
819 3276 m 1,20,-1
 819 4096 l 1,21,-1
 1638 4096 l 1,22,-1
 1638 3276 l 1,23,-1
 819 3276 l 1,20,-1
EndSplineSet
Validated: 5
EndChar

StartChar: uni1E6A
Encoding: 7786 7786 298
Width: 4915
Flags: W
LayerCount: 2
Fore
SplineSet
1638 0 m 1,0,-1
 1638 4096 l 1,1,-1
 0 4096 l 1,2,-1
 0 4915 l 1,3,-1
 4096 4915 l 1,4,-1
 4096 4096 l 1,5,-1
 2457 4096 l 1,6,-1
 2457 0 l 1,7,-1
 1638 0 l 1,0,-1
1638 5734 m 1,8,-1
 1638 6553 l 1,9,-1
 2457 6553 l 1,10,-1
 2457 5734 l 1,11,-1
 1638 5734 l 1,8,-1
EndSplineSet
Validated: 1
EndChar

StartChar: uni1E6B
Encoding: 7787 7787 299
Width: 4096
Flags: W
LayerCount: 2
Fore
SplineSet
0 0 m 1,0,-1
 0 4096 l 1,1,-1
 819 4096 l 1,2,-1
 819 2457 l 1,3,-1
 3276 2457 l 1,4,-1
 3276 1638 l 1,5,-1
 819 1638 l 1,6,-1
 819 819 l 1,7,-1
 3276 819 l 1,8,-1
 3276 0 l 1,9,-1
 0 0 l 1,0,-1
0 4915 m 1,10,-1
 0 5734 l 1,11,-1
 819 5734 l 1,12,-1
 819 4915 l 1,13,-1
 0 4915 l 1,10,-1
EndSplineSet
Validated: 1
EndChar

StartChar: uni1E6C
Encoding: 7788 7788 300
Width: 4915
Flags: W
LayerCount: 2
Fore
SplineSet
1638 -1638 m 1,0,-1
 1638 -819 l 1,1,-1
 2457 -819 l 1,2,-1
 2457 -1638 l 1,3,-1
 1638 -1638 l 1,0,-1
1638 0 m 1,4,-1
 1638 4096 l 1,5,-1
 0 4096 l 1,6,-1
 0 4915 l 1,7,-1
 4096 4915 l 1,8,-1
 4096 4096 l 1,9,-1
 2457 4096 l 1,10,-1
 2457 0 l 1,11,-1
 1638 0 l 1,4,-1
EndSplineSet
Validated: 1
EndChar

StartChar: uni1E6D
Encoding: 7789 7789 301
Width: 4096
Flags: W
LayerCount: 2
Fore
SplineSet
1638 -1638 m 1,0,-1
 1638 -819 l 1,1,-1
 2457 -819 l 1,2,-1
 2457 -1638 l 1,3,-1
 1638 -1638 l 1,0,-1
0 0 m 1,4,-1
 0 4096 l 1,5,-1
 819 4096 l 1,6,-1
 819 2457 l 1,7,-1
 3276 2457 l 1,8,-1
 3276 1638 l 1,9,-1
 819 1638 l 1,10,-1
 819 819 l 1,11,-1
 3276 819 l 1,12,-1
 3276 0 l 1,13,-1
 0 0 l 1,4,-1
EndSplineSet
Validated: 1
EndChar

StartChar: uni1E6E
Encoding: 7790 7790 302
Width: 4915
Flags: W
LayerCount: 2
Fore
SplineSet
819 -1638 m 1,0,-1
 819 -819 l 1,1,-1
 3276 -819 l 1,2,-1
 3276 -1638 l 1,3,-1
 819 -1638 l 1,0,-1
1638 0 m 1,4,-1
 1638 4096 l 1,5,-1
 0 4096 l 1,6,-1
 0 4915 l 1,7,-1
 4096 4915 l 1,8,-1
 4096 4096 l 1,9,-1
 2457 4096 l 1,10,-1
 2457 0 l 1,11,-1
 1638 0 l 1,4,-1
EndSplineSet
Validated: 1
EndChar

StartChar: uni1E6F
Encoding: 7791 7791 303
Width: 4096
Flags: W
LayerCount: 2
Fore
SplineSet
819 -1638 m 1,0,-1
 819 -819 l 1,1,-1
 2457 -819 l 1,2,-1
 2457 -1638 l 1,3,-1
 819 -1638 l 1,0,-1
0 0 m 1,4,-1
 0 4096 l 1,5,-1
 819 4096 l 1,6,-1
 819 2457 l 1,7,-1
 3276 2457 l 1,8,-1
 3276 1638 l 1,9,-1
 819 1638 l 1,10,-1
 819 819 l 1,11,-1
 3276 819 l 1,12,-1
 3276 0 l 1,13,-1
 0 0 l 1,4,-1
EndSplineSet
Validated: 1
EndChar

StartChar: uni1E70
Encoding: 7792 7792 304
Width: 4915
Flags: W
LayerCount: 2
Fore
SplineSet
819 -2457 m 1,0,-1
 819 -1638 l 1,1,-1
 1638 -1638 l 1,2,-1
 1638 -2457 l 1,3,-1
 819 -2457 l 1,0,-1
2457 -2457 m 1,4,-1
 2457 -1638 l 1,5,-1
 3276 -1638 l 1,6,-1
 3276 -2457 l 1,7,-1
 2457 -2457 l 1,4,-1
1638 -1638 m 1,8,-1
 1638 -819 l 1,9,-1
 2457 -819 l 1,10,-1
 2457 -1638 l 1,11,-1
 1638 -1638 l 1,8,-1
1638 0 m 1,12,-1
 1638 4096 l 1,13,-1
 0 4096 l 1,14,-1
 0 4915 l 1,15,-1
 4096 4915 l 1,16,-1
 4096 4096 l 1,17,-1
 2457 4096 l 1,18,-1
 2457 0 l 1,19,-1
 1638 0 l 1,12,-1
EndSplineSet
Validated: 5
EndChar

StartChar: uni1E71
Encoding: 7793 7793 305
Width: 4096
Flags: W
LayerCount: 2
Fore
SplineSet
819 -2457 m 1,0,-1
 819 -1638 l 1,1,-1
 1638 -1638 l 1,2,-1
 1638 -2457 l 1,3,-1
 819 -2457 l 1,0,-1
2457 -2457 m 1,4,-1
 2457 -1638 l 1,5,-1
 3276 -1638 l 1,6,-1
 3276 -2457 l 1,7,-1
 2457 -2457 l 1,4,-1
1638 -1638 m 1,8,-1
 1638 -819 l 1,9,-1
 2457 -819 l 1,10,-1
 2457 -1638 l 1,11,-1
 1638 -1638 l 1,8,-1
0 0 m 1,12,-1
 0 4096 l 1,13,-1
 819 4096 l 1,14,-1
 819 2457 l 1,15,-1
 3276 2457 l 1,16,-1
 3276 1638 l 1,17,-1
 819 1638 l 1,18,-1
 819 819 l 1,19,-1
 3276 819 l 1,20,-1
 3276 0 l 1,21,-1
 0 0 l 1,12,-1
EndSplineSet
Validated: 5
EndChar

StartChar: quoteleft
Encoding: 8216 8216 306
Width: 2457
Flags: W
LayerCount: 2
Fore
SplineSet
0 3276 m 1,0,-1
 0 4915 l 1,1,-1
 819 4915 l 1,2,-1
 819 4096 l 1,3,-1
 1638 4096 l 1,4,-1
 1638 3276 l 1,5,-1
 0 3276 l 1,0,-1
EndSplineSet
Validated: 1
EndChar

StartChar: quoteright
Encoding: 8217 8217 307
Width: 2457
Flags: W
LayerCount: 2
Fore
SplineSet
819 3276 m 1,0,-1
 819 4096 l 1,1,-1
 0 4096 l 1,2,-1
 0 4915 l 1,3,-1
 1638 4915 l 1,4,-1
 1638 3276 l 1,5,-1
 819 3276 l 1,0,-1
EndSplineSet
Validated: 1
EndChar

StartChar: quotedblleft
Encoding: 8220 8220 308
Width: 4915
Flags: W
LayerCount: 2
Fore
SplineSet
0 3276 m 1,0,-1
 0 4915 l 1,1,-1
 819 4915 l 1,2,-1
 819 4096 l 1,3,-1
 1638 4096 l 1,4,-1
 1638 3276 l 1,5,-1
 0 3276 l 1,0,-1
2457 3276 m 1,6,-1
 2457 4915 l 1,7,-1
 3276 4915 l 1,8,-1
 3276 4096 l 1,9,-1
 4096 4096 l 1,10,-1
 4096 3276 l 1,11,-1
 2457 3276 l 1,6,-1
EndSplineSet
Validated: 1
EndChar

StartChar: quotedblright
Encoding: 8221 8221 309
Width: 4915
Flags: W
LayerCount: 2
Fore
SplineSet
819 3276 m 1,0,-1
 819 4096 l 1,1,-1
 0 4096 l 1,2,-1
 0 4915 l 1,3,-1
 1638 4915 l 1,4,-1
 1638 3276 l 1,5,-1
 819 3276 l 1,0,-1
3276 3276 m 1,6,-1
 3276 4096 l 1,7,-1
 2457 4096 l 1,8,-1
 2457 4915 l 1,9,-1
 4096 4915 l 1,10,-1
 4096 3276 l 1,11,-1
 3276 3276 l 1,6,-1
EndSplineSet
Validated: 1
EndChar

StartChar: ellipsis
Encoding: 8230 8230 310
Width: 4915
Flags: W
LayerCount: 2
Fore
SplineSet
0 0 m 1,0,-1
 0 819 l 1,1,-1
 819 819 l 1,2,-1
 819 0 l 1,3,-1
 0 0 l 1,0,-1
1638 0 m 1,4,-1
 1638 819 l 1,5,-1
 2457 819 l 1,6,-1
 2457 0 l 1,7,-1
 1638 0 l 1,4,-1
3276 0 m 1,8,-1
 3276 819 l 1,9,-1
 4096 819 l 1,10,-1
 4096 0 l 1,11,-1
 3276 0 l 1,8,-1
EndSplineSet
Validated: 1
EndChar

StartChar: trademark
Encoding: 8482 8482 311
Width: 7372
Flags: W
LayerCount: 2
Fore
SplineSet
4096 2457 m 1,0,-1
 4096 3276 l 1,1,-1
 4915 3276 l 1,2,-1
 4915 2457 l 1,3,-1
 4096 2457 l 1,0,-1
819 2457 m 1,4,-1
 819 4096 l 1,5,-1
 0 4096 l 1,6,-1
 0 4915 l 1,7,-1
 3276 4915 l 1,8,-1
 3276 4096 l 1,9,-1
 4096 4096 l 1,10,-1
 4096 3276 l 1,11,-1
 3276 3276 l 1,12,-1
 3276 2457 l 1,13,-1
 2457 2457 l 1,14,-1
 2457 4096 l 1,15,-1
 1638 4096 l 1,16,-1
 1638 2457 l 1,17,-1
 819 2457 l 1,4,-1
5734 2457 m 1,18,-1
 5734 3276 l 1,19,-1
 4915 3276 l 1,20,-1
 4915 4096 l 1,21,-1
 5734 4096 l 1,22,-1
 5734 4915 l 1,23,-1
 6553 4915 l 1,24,-1
 6553 2457 l 1,25,-1
 5734 2457 l 1,18,-1
EndSplineSet
Validated: 5
EndChar

StartChar: uniFB01
Encoding: 64257 64257 312
Width: 5734
Flags: W
LayerCount: 2
Fore
SplineSet
0 0 m 1,0,-1
 0 4096 l 1,1,-1
 3276 4096 l 1,2,-1
 3276 3276 l 1,3,-1
 819 3276 l 1,4,-1
 819 2457 l 1,5,-1
 4915 2457 l 1,6,-1
 4915 0 l 1,7,-1
 4096 0 l 1,8,-1
 4096 1638 l 1,9,-1
 819 1638 l 1,10,-1
 819 0 l 1,11,-1
 0 0 l 1,0,-1
4096 3276 m 1,12,-1
 4096 4096 l 1,13,-1
 4915 4096 l 1,14,-1
 4915 3276 l 1,15,-1
 4096 3276 l 1,12,-1
EndSplineSet
Validated: 1
EndChar

StartChar: uniFB02
Encoding: 64258 64258 313
Width: 5734
Flags: W
LayerCount: 2
Fore
SplineSet
0 0 m 1,0,-1
 0 4096 l 1,1,-1
 4915 4096 l 1,2,-1
 4915 0 l 1,3,-1
 4096 0 l 1,4,-1
 4096 3276 l 1,5,-1
 819 3276 l 1,6,-1
 819 2457 l 1,7,-1
 3276 2457 l 1,8,-1
 3276 1638 l 1,9,-1
 819 1638 l 1,10,-1
 819 0 l 1,11,-1
 0 0 l 1,0,-1
EndSplineSet
Validated: 1
EndChar

StartChar: Utilde
Encoding: 360 360 314
Width: 4096
InSpiro: 1
Flags: W
LayerCount: 2
Fore
SplineSet
2463 4105 m 1
 3282 4105 l 1
 3282 3285 l 1
 2463 3285 l 1
 2463 4105 l 1
  Spiro
    2463 4105 v
    3282 4105 v
    3282 3285 v
    2463 3285 v
    0 0 z
  EndSpiro
0 4096 m 1
 819 4096 l 1
 819 3276 l 1
 0 3276 l 1
 0 4096 l 1
  Spiro
    0 4096 v
    819 4096 v
    819 3276 v
    0 3276 v
    0 0 z
  EndSpiro
819 0 m 1
 819 819 l 1
 2457 819 l 1
 2457 0 l 1
 819 0 l 1
  Spiro
    819 0 v
    819 819 v
    2457 819 v
    2457 0 v
    0 0 z
  EndSpiro
0 819 m 1
 0 2457 l 1
 819 2457 l 1
 819 819 l 1
 0 819 l 1
  Spiro
    0 819 v
    0 2457 v
    819 2457 v
    819 819 v
    0 0 z
  EndSpiro
2457 819 m 1
 2457 2457 l 1
 3276 2457 l 1
 3276 819 l 1
 2457 819 l 1
  Spiro
    2457 819 v
    2457 2457 v
    3276 2457 v
    3276 819 v
    0 0 z
  EndSpiro
EndSplineSet
Validated: 5
EndChar

StartChar: udieresis
Encoding: 252 252 315
Width: 4096
Flags: WO
LayerCount: 2
Fore
SplineSet
2463 4105 m 5
 3282 4105 l 5
 3282 3285 l 5
 2463 3285 l 5
 2463 4105 l 5
  Spiro
    2463 4105 v
    3282 4105 v
    3282 3285 v
    2463 3285 v
    0 0 z
  EndSpiro
0 4096 m 5
 819 4096 l 5
 819 3276 l 5
 0 3276 l 5
 0 4096 l 5
  Spiro
    0 4096 v
    819 4096 v
    819 3276 v
    0 3276 v
    0 0 z
  EndSpiro
819 0 m 5
 819 819 l 5
 2457 819 l 5
 2457 0 l 5
 819 0 l 5
  Spiro
    819 0 v
    819 819 v
    2457 819 v
    2457 0 v
    0 0 z
  EndSpiro
0 819 m 5
 0 2457 l 5
 819 2457 l 5
 819 819 l 5
 0 819 l 5
  Spiro
    0 819 v
    0 2457 v
    819 2457 v
    819 819 v
    0 0 z
  EndSpiro
2457 819 m 5
 2457 2457 l 5
 3276 2457 l 5
 3276 819 l 5
 2457 819 l 5
  Spiro
    2457 819 v
    2457 2457 v
    3276 2457 v
    3276 819 v
    0 0 z
  EndSpiro
EndSplineSet
EndChar
